<?xml version="1.0" encoding="utf-8"?>
<!-- Generator: Adobe Illustrator 22.1.0, SVG Export Plug-In . SVG Version: 6.00 Build 0)  -->
<svg version="1.1" id="Capa_1" xmlns="http://www.w3.org/2000/svg" xmlns:xlink="http://www.w3.org/1999/xlink" x="0px" y="0px"
	 viewBox="0 0 112.2 112.2" style="enable-background:new 0 0 112.2 112.2;" xml:space="preserve">
<style type="text/css">
	.st0{fill:#E40013;}
	.st1{fill:#FFFFFF;}
</style>
<g>
	<circle class="st0" cx="56.1" cy="56.1" r="56.1"/>
	<path class="st1" d="M92,38.1c-0.9-3.2-3.4-5.7-6.6-6.6c-5.8-1.6-29.3-1.6-29.3-1.6s-23.4,0-29.3,1.5c-3.1,0.9-5.7,3.5-6.6,6.6
		c-1.5,5.9-1.5,18-1.5,18s0,12.2,1.5,18c0.9,3.2,3.4,5.7,6.6,6.6c5.9,1.6,29.3,1.6,29.3,1.6s23.4,0,29.3-1.5
		c3.2-0.9,5.7-3.4,6.6-6.6c1.5-5.9,1.5-18,1.5-18S93.6,44,92,38.1z M48.6,67.3V44.9l19.5,11.2L48.6,67.3z"/>
</g>
</svg>
