<?xml version="1.0" encoding="UTF-8" standalone="no"?><!DOCTYPE svg PUBLIC "-//W3C//DTD SVG 1.1//EN" "http://www.w3.org/Graphics/SVG/1.1/DTD/svg11.dtd"><svg width="100%" height="100%" viewBox="0 0 550 180" version="1.1" xmlns="http://www.w3.org/2000/svg" xmlns:xlink="http://www.w3.org/1999/xlink" xml:space="preserve" style="fill-rule:evenodd;clip-rule:evenodd;stroke-linejoin:round;stroke-miterlimit:1.41421;"><path d="M177.897,115.838c-4.9,-4.614 -8.15,-5.257 -12.123,-8.166c-12.161,-8.906 -15.094,-27.569 -5.76,-39.736c2.669,-3.478 5.989,-5.932 9.725,-8.415c3.882,-2.58 7.422,-6.323 9.256,-10.212c3.684,-7.81 2.809,-17.685 -2.907,-25.056c-5.439,-7.013 -13.992,-10.671 -23.335,-8.95c-4.407,0.811 -8.115,2.634 -11.855,5.973c-3.843,3.43 -4.822,6.952 -9.219,11.261c-6.935,6.797 -15.249,10.129 -25.1,9.458c-4.826,-0.329 -8.899,-1.475 -13.749,-4.213c-5.216,-2.944 -7.254,-6.47 -11.273,-7.387c-4.176,-0.953 -8.818,0.211 -11.602,3.41c-3.796,4.361 -3.296,8.423 -1.646,13.637c1.56,4.93 2.896,9.711 3.153,14.918c0.252,5.121 -0.338,10.283 -1.796,15.2c-2.664,8.987 -9.22,17.424 -15.499,22.983c-5.175,4.582 -8.833,5.313 -12.151,8.516c-3.226,3.112 -5.324,7.39 -5.324,12.228c0,8.371 6.001,15.355 13.941,16.831c6.207,1.151 12.129,-1.677 13.979,-2.261c12.891,-4.064 29.078,-3.564 40.777,-0.153c9.673,2.821 18.041,7.818 25.847,14.144c3.755,3.043 6.603,7.133 10.552,9.949c10.151,7.246 27.684,8.651 38.895,-5.799c7.59,-9.785 9.413,-26.674 -2.786,-38.16" style="fill:#ff7800;"/><path d="M129.682,63.058c-3.783,0 -5.239,2.986 -5.239,5.155l0,4.01c-3.904,-5.251 -9.178,-8.745 -16.381,-8.745c-5.881,0 -10.895,2.368 -15.045,7.103c-4.149,4.735 -6.224,10.45 -6.224,17.145c0,6.668 2.075,12.372 6.224,17.108c4.15,4.759 9.164,7.139 15.045,7.139c7.72,0 13.066,-4.206 16.381,-8.781l0,4.314c0,1.931 1.553,5.002 5.194,5.002c3.599,0 5.116,-3.133 5.116,-5.154l0,-39.141c0,-3.32 -2.843,-5.155 -5.072,-5.155m-18.79,39.441c-7.881,0 -13.556,-7.188 -13.556,-14.93c0,-8.176 5.843,-14.892 13.556,-14.892c8.324,0 13.556,7.455 13.556,14.892c0,7.862 -5.582,14.93 -13.556,14.93" style="fill:#fff;"/><path d="M331.027,53.941c-4.813,-1.894 -8.382,1.727 -9.262,4.056l-17.382,45.588l-17.38,-45.588c-0.88,-2.33 -4.45,-5.95 -9.262,-4.057c-5.192,2.044 -4.942,6.928 -4.07,9.113c0,0 14.479,38.015 19.171,50.301c2.698,7.065 7.991,8.563 11.541,8.569c3.55,-0.008 8.844,-1.503 11.541,-8.569c4.692,-12.286 19.172,-50.301 19.172,-50.301c0.874,-2.186 1.124,-7.07 -4.07,-9.113m-73.69,-0.529c-5.24,0 -7.257,4.136 -7.257,7.142l0,5.555c-5.409,-7.275 -12.716,-12.115 -22.695,-12.115c-8.148,0 -15.096,3.28 -20.845,9.84c-5.748,6.561 -8.623,14.478 -8.623,23.755c0,9.24 2.875,17.142 8.623,23.701c5.749,6.597 12.697,9.894 20.845,9.894c10.695,0 18.101,-5.828 22.695,-12.168l0,5.978c0,2.676 2.151,6.931 7.196,6.931c4.986,0 7.088,-4.343 7.088,-7.142l0,-54.228c0,-4.6 -3.94,-7.142 -7.027,-7.142m-26.249,54.862c-10.918,0 -18.781,-9.959 -18.781,-20.686c0,-11.328 8.094,-20.633 18.781,-20.633c11.532,0 18.78,10.33 18.78,20.633c0,10.893 -7.733,20.686 -18.781,20.686m166.719,-54.862c-5.24,0 -7.257,4.136 -7.257,7.142l0,5.555c-5.409,-7.275 -12.717,-12.115 -22.695,-12.115c-8.148,0 -15.096,3.28 -20.845,9.84c-5.748,6.56 -8.623,14.478 -8.623,23.754c0,9.24 2.875,17.142 8.623,23.701c5.75,6.597 12.697,9.894 20.846,9.894c10.695,0 18.101,-5.828 22.695,-12.168l0,5.978c0,2.676 2.151,6.931 7.195,6.931c4.986,0 7.088,-4.343 7.088,-7.142l0,-54.228c0,-4.6 -3.938,-7.142 -7.026,-7.142m-26.25,54.862c-10.918,0 -18.781,-9.959 -18.781,-20.686c0,-11.328 8.094,-20.633 18.781,-20.633c11.534,0 18.78,10.33 18.78,20.633c0,10.893 -7.732,20.686 -18.779,20.686" style="fill:#2d364c;"/><path d="M416.871,114.033c-1.628,-0.878 -2.881,-2.758 -2.881,-5.261c0,-3.382 2.629,-6.138 6.137,-6.138c1.253,0.001 2.38,0.377 3.256,0.877c6.386,4.258 13.024,6.388 19.037,6.388c6.512,0 10.269,-2.756 10.269,-7.139l0,-0.251c0,-5.135 -7.013,-6.636 -14.777,-9.014c-9.77,-2.758 -20.666,-7.019 -20.666,-19.669l0,-0.25c0,-12.524 10.396,-20.164 23.547,-20.164c7.014,0 14.401,2.003 20.788,5.385c2.128,1.127 3.633,3.131 3.633,5.761c0,3.508 -2.756,6.139 -6.263,6.139c-1.252,0 -2.005,-0.251 -3.006,-0.752c-5.386,-2.756 -10.896,-4.51 -15.529,-4.51c-5.886,0 -9.268,2.756 -9.268,6.514l0,0.25c0,4.885 7.139,6.638 14.904,9.143c9.642,3.007 20.539,7.641 20.539,19.542l0,0.25c0,13.902 -10.772,20.791 -24.546,20.791c-8.392,-0.002 -17.536,-2.631 -25.175,-7.892l0,-0.001Zm63.454,-11.382l0,-34.371l-2.889,0c-3.625,0 -6.5,-2.871 -6.5,-6.492c0,-3.62 2.875,-6.49 6.5,-6.49l2.889,0l0,-10.201c0,-4.119 2.986,-7.49 7.236,-7.49c4.125,0 7.076,3.371 7.076,7.49l0,10.202l11.299,0c3.625,0 6.625,2.87 6.625,6.489c0,3.621 -3,6.493 -6.625,6.493l-11.299,0l0,31.997c0,5.867 3.424,8.24 8.549,8.24c1.75,0.001 3.25,-0.374 3.75,-0.374c3.375,-0.001 6.375,2.746 6.375,6.241c0,2.747 -1.875,4.993 -4,5.868c-3.25,1.121 -6.375,1.746 -10.375,1.746c-11.125,0.001 -18.611,-4.866 -18.611,-19.348l0,0.001Z" style="fill:#2d364c;fill-rule:nonzero;"/></svg>