<svg xmlns="http://www.w3.org/2000/svg" viewBox="0 0 76.18 88.9"><defs><style>.cls-1{fill:#006380;}</style></defs><title>Asset 1</title><g id="Layer_2" data-name="Layer 2"><g id="Layer_1-2" data-name="Layer 1"><g id="artwork"><path class="cls-1" d="M55.43,12.77a1.56,1.56,0,0,1,1.92,1.11l-23,10.45a5.23,5.23,0,1,0-1.81,7.29l19.11,9.26h0v.22a6,6,0,1,0,.74-2.88h0L30.76,27.92a2,2,0,0,1,1.35-1.48c.69-.24,1.91.47,1.91.47l1.12.54h0v-.37A5.69,5.69,0,0,0,35,25.84h0l19.85-9.45a4.12,4.12,0,1,0-.24-5.82,4.07,4.07,0,0,0-1.09,2.82v.11h0Z"/><path class="cls-1" d="M45.76,70.83h-6v.72A18.24,18.24,0,1,0,67.45,55.16L67.14,55l.3-.21a16.69,16.69,0,0,0-18.22-28l-.08.05V34l.2-.2q.33-.36.69-.69a11.37,11.37,0,0,1,11.56-2.24,10.45,10.45,0,0,1,4,2.53c.14.14.29.29.43.45a10.52,10.52,0,0,1,1.56,12,11,11,0,0,1-3.61,4,11.4,11.4,0,0,1-5.24,1.86,14.06,14.06,0,0,1-1.59,0v6.78H58a12.7,12.7,0,0,1,3.87.63h.06a12.2,12.2,0,0,1,6.58,5.45h0A12.25,12.25,0,0,1,52.17,81.49h0A12.22,12.22,0,0,1,45.76,70.83Z"/><path class="cls-1" d="M13.2,42.34A20.64,20.64,0,0,1,9.78,16.7l.08-.13.06-.1.06-.08a20.69,20.69,0,0,1,29.15-6.13V2.64l-.5-.22A27.39,27.39,0,1,0,27.38,54.79a27.07,27.07,0,0,0,11.24-2.44l.5-.23v-7.6A20.68,20.68,0,0,1,13.2,42.34Z"/></g></g></g></svg>