<svg xmlns="http://www.w3.org/2000/svg" viewBox="0 0 164.93 88.94"><defs><style>.cls-1{fill:#006380;}</style></defs><title>Asset 1</title><g id="Layer_2" data-name="Layer 2"><g id="artwork"><path class="cls-1" d="M55.45,12.78a1.57,1.57,0,0,1,1.92,1.11l-23,10.45a5.21,5.21,0,1,0-4.43,8,5.16,5.16,0,0,0,2.62-.71l19.11,9.26h0v.22a6,6,0,1,0,.74-2.88h0L30.78,27.93a2,2,0,0,1,1.35-1.48c.69-.24,1.91.47,1.91.47l1.12.54h0c0-.12,0-.25,0-.37A5.54,5.54,0,0,0,35,25.85h0L54.85,16.4a4.12,4.12,0,1,0-1.33-3v.11h0Z"/><path class="cls-1" d="M45.78,70.84l-6,0,0,.72A18.22,18.22,0,1,0,73.41,61a18.38,18.38,0,0,0-5.94-5.83L67.16,55l.3-.21A16.68,16.68,0,0,0,49.24,26.81l-.08.05V34l.2-.2q.33-.36.69-.69a11.34,11.34,0,0,1,7.62-2.94,11.44,11.44,0,0,1,3.94.7,10.52,10.52,0,0,1,4,2.53c.14.14.29.29.43.45a10.52,10.52,0,0,1,1.56,12,11,11,0,0,1-3.61,4,11.29,11.29,0,0,1-5.24,1.86,12.15,12.15,0,0,1-1.59,0v6.78H58a12.7,12.7,0,0,1,3.87.63l0,0,.06,0h0a12.23,12.23,0,0,1,6.58,5.45l0,0h0A12.25,12.25,0,0,1,52.19,81.5l0,0A12.19,12.19,0,0,1,45.78,70.84Z"/><path class="cls-1" d="M13.22,42.35A20.63,20.63,0,0,1,9.8,16.71l.08-.13.06-.1L10,16.4A20.68,20.68,0,0,1,27.53,6.7a20.53,20.53,0,0,1,11.62,3.57V2.65l-.5-.22A27.39,27.39,0,1,0,27.4,54.8a27.09,27.09,0,0,0,11.24-2.44l.5-.23v-7.6a20.67,20.67,0,0,1-25.92-2.18Z"/><path class="cls-1" d="M121.18,54.8A18.32,18.32,0,1,1,139.5,36.48,18.34,18.34,0,0,1,121.18,54.8Zm0-30.64A12.32,12.32,0,1,0,133.5,36.48,12.33,12.33,0,0,0,121.18,24.16Z"/><polygon class="cls-1" points="164.93 9.25 136.88 9.25 136.88 15.25 147.93 15.25 147.93 54.8 153.93 54.8 153.93 15.25 164.93 15.25 164.93 9.25"/><rect class="cls-1" x="90.35" y="9.25" width="6" height="45.55"/></g></g></svg>