<svg id="图层_1" data-name="图层 1" xmlns="http://www.w3.org/2000/svg" viewBox="0 0 318 444"><defs><style>.cls-1{fill:#005ea6;}.cls-2{fill:#a5c5e6;}</style></defs><title>canaan22</title><path class="cls-1" d="M145.7,289.4c-23.8-14.5-50.2-28.8-75.3-43.3a7.45,7.45,0,0,0-7.1,0L25.8,268a7,7,0,0,0,0,12.2c37.6,21.8,73.9,43.5,112.8,65.4a7.07,7.07,0,0,0,10.5-6.1V295.8A7.51,7.51,0,0,0,145.7,289.4Z"/><path class="cls-1" d="M68.2,106.5c25.9-14.8,53.5-29.7,77.5-44.4a6.71,6.71,0,0,0,3.3-6V12.3a7,7,0,0,0-10.5-6.1c-26.9,15-51.8,30.2-77.9,45.1-12.3,7.1-24.4,14.1-37,21.3a7,7,0,0,0,0,12.2l37.6,21.8A7.53,7.53,0,0,0,68.2,106.5Z"/><path class="cls-1" d="M55.7,220.4c0-29-.1-57.8,0-86.8a7.05,7.05,0,0,0-3.5-6.1L15,105.9A7,7,0,0,0,4.5,112V241.8A7,7,0,0,0,15,247.9l37.5-21.4A7.48,7.48,0,0,0,55.7,220.4Z"/><path class="cls-1" d="M250.4,106.5c-25.9-14.8-53.5-29.7-77.5-44.4a6.71,6.71,0,0,1-3.3-6V12.3a7,7,0,0,1,10.5-6.1c26.9,15,51.8,30.2,77.9,45.1,12.3,7.1,24.4,14.1,37,21.3a7,7,0,0,1,0,12.2l-37.6,21.8A7.53,7.53,0,0,1,250.4,106.5Z"/><path class="cls-2" d="M172.3,289.4c23.8-14.5,50.2-28.8,75.3-43.3a7.45,7.45,0,0,1,7.1,0l37.5,21.8a7,7,0,0,1,0,12.2c-37.6,21.8-73.9,43.5-112.8,65.4a7.07,7.07,0,0,1-10.5-6.1V295.7C169.1,292.8,170.1,290.7,172.3,289.4Z"/><path class="cls-2" d="M262.1,220.4c0-29,.1-57.8,0-86.8a7.05,7.05,0,0,1,3.5-6.1L303,106.1a7,7,0,0,1,10.5,6.1V242a7,7,0,0,1-10.5,6.1l-37.5-21.6A7.41,7.41,0,0,1,262.1,220.4Z"/><path class="cls-1" d="M56.3,422.3a2.39,2.39,0,0,1,2.4,2.4,2.27,2.27,0,0,1-.6,1.6,33,33,0,0,1-9.3,5.2,30.81,30.81,0,0,1-22.3-.6,33.58,33.58,0,0,1-10.1-6.7,31.81,31.81,0,0,1-6.7-10.1,31,31,0,0,1,6.7-33.9A30.21,30.21,0,0,1,38.5,371a30.64,30.64,0,0,1,19.8,7.1,2.4,2.4,0,0,1-1.7,4.1,3,3,0,0,1-2-.9,25.12,25.12,0,0,0-16.1-5.5,25.45,25.45,0,0,0-18.7,7.8,26.44,26.44,0,0,0,0,37.3,25.59,25.59,0,0,0,18.7,7.7A25,25,0,0,0,55,422.8,1.54,1.54,0,0,1,56.3,422.3Z"/><path class="cls-1" d="M103.8,425.3c-5.3,5.3-10.9,7.9-17,7.9A21.8,21.8,0,1,1,102.2,396a20.92,20.92,0,0,1,6.4,15.4v19.4a2.39,2.39,0,0,1-2.4,2.4,2.06,2.06,0,0,1-1.7-.7,2.19,2.19,0,0,1-.7-1.7Zm-17-30.9a17.07,17.07,0,1,0,12,5A16,16,0,0,0,86.8,394.4Z"/><path class="cls-1" d="M114.9,392a2.4,2.4,0,1,1,4.8,0v4.5c4.8-4.6,9.9-6.9,15.4-6.9a20.31,20.31,0,0,1,20.3,20.2v21a2.19,2.19,0,0,1-.7,1.7,2.34,2.34,0,0,1-1.7.7,2.39,2.39,0,0,1-2.4-2.4v-21a14.41,14.41,0,0,0-4.5-10.8,15.35,15.35,0,0,0-26.2,10.8v21a2.4,2.4,0,1,1-4.8,0V392Z"/><path class="cls-1" d="M200.5,425.3c-5.3,5.3-10.9,7.9-17,7.9a21.78,21.78,0,1,1,21.8-21.8v19.4a2.39,2.39,0,0,1-2.4,2.4,2.06,2.06,0,0,1-1.7-.7,2.19,2.19,0,0,1-.7-1.7v-5.5Zm-17-30.9a17.07,17.07,0,1,0,12,5A16,16,0,0,0,183.5,394.4Z"/><path class="cls-1" d="M250.4,425.3c-5.3,5.3-10.9,7.9-17,7.9a21.78,21.78,0,1,1,21.8-21.8v19.4a2.39,2.39,0,0,1-2.4,2.4,2.06,2.06,0,0,1-1.7-.7,2.19,2.19,0,0,1-.7-1.7v-5.5Zm-17-30.9a17.07,17.07,0,1,0,12,5A16,16,0,0,0,233.4,394.4Z"/><path class="cls-1" d="M261.5,392a2.4,2.4,0,1,1,4.8,0v4.5c4.8-4.6,9.9-6.9,15.4-6.9A20.31,20.31,0,0,1,302,409.8v21a2.19,2.19,0,0,1-.7,1.7,2.34,2.34,0,0,1-1.7.7,2.39,2.39,0,0,1-2.4-2.4v-21a14.41,14.41,0,0,0-4.5-10.8,15.35,15.35,0,0,0-26.2,10.8v21a2.4,2.4,0,1,1-4.8,0V392Z"/></svg>