<?xml version="1.0" encoding="UTF-8"?>
<!DOCTYPE svg  PUBLIC '-//W3C//DTD SVG 1.1//EN'  'http://www.w3.org/Graphics/SVG/1.1/DTD/svg11.dtd'>
<svg enable-background="new 0 0 612.3 858.9" version="1.1" viewBox="0 0 612.3 858.9" xml:space="preserve" xmlns="http://www.w3.org/2000/svg">
<g fill="#005EA6">
	<path d="m179.6 455.2c0.9 0 1.6 0.3 2.2 0.9s0.9 1.3 0.9 2.2c0 0.8-0.3 1.5-0.8 2.1-3.8 2.9-7.8 5.1-12 6.7-4.2 1.5-8.7 2.3-13.4 2.3-5.5 0-10.6-1-15.4-3.1-4.8-2-9.2-5-13.1-8.7-3.8-3.9-6.7-8.3-8.7-13.1s-3.1-9.9-3.1-15.4c0-11.1 3.9-20.6 11.8-28.5s17.4-11.8 28.5-11.8c9.6 0 18.1 3.1 25.5 9.2 0.6 0.6 0.9 1.3 0.9 2.2 0 0.8-0.3 1.6-0.9 2.2s-1.3 0.9-2.2 0.9-1.7-0.4-2.6-1.2c-5.8-4.7-12.7-7.1-20.8-7.1-9.4 0-17.4 3.3-24.1 10-6.6 6.6-10 14.7-10 24.1s3.3 17.5 10 24.1c6.6 6.6 14.7 10 24.1 10 8.1 0 15.2-2.5 21.4-7.5 0.6-0.4 1.1-0.5 1.8-0.5z"/>
	<path d="m240.9 459.1c-6.8 6.8-14.1 10.2-21.9 10.2s-14.4-2.8-19.9-8.3-8.3-12.2-8.3-19.9c0-7.8 2.8-14.4 8.3-19.9s12.2-8.3 19.9-8.3c7.8 0 14.4 2.8 19.9 8.3s8.3 12.2 8.3 19.9v25.1c0 0.9-0.3 1.6-0.9 2.2s-1.3 0.9-2.2 0.9-1.6-0.3-2.2-0.9-0.9-1.3-0.9-2.2v-7.1zm-21.9-40c-6 0-11.2 2.1-15.5 6.4s-6.4 9.5-6.4 15.5 2.1 11.2 6.4 15.5 9.5 6.4 15.5 6.4 11.2-2.1 15.5-6.4 6.4-9.4 6.4-15.5-2.1-11.2-6.4-15.5c-4.3-4.2-9.4-6.4-15.5-6.4z"/>
	<path d="m255.3 416c0-0.9 0.3-1.6 0.9-2.2s1.3-0.9 2.2-0.9 1.6 0.3 2.2 0.9 0.9 1.3 0.9 2.2v5.8c6.2-6 12.8-9 19.8-9 7.3 0 13.4 2.6 18.4 7.7 5.1 5.1 7.7 11.3 7.7 18.5v27.1c0 0.9-0.3 1.6-0.9 2.2s-1.4 0.9-2.2 0.9c-0.9 0-1.6-0.3-2.2-0.9s-0.9-1.3-0.9-2.2v-27.1c0-5.5-1.9-10.2-5.8-14-3.9-3.9-8.6-5.9-14-5.9s-10.1 2-14.1 5.9c-3.9 3.8-5.8 8.5-5.8 14v27.1c0 0.9-0.3 1.6-0.9 2.2s-1.3 0.9-2.2 0.9-1.6-0.3-2.2-0.9-0.9-1.3-0.9-2.2v-50.1z"/>
	<path d="m365.8 459.1c-6.8 6.8-14.1 10.2-21.9 10.2s-14.4-2.8-19.9-8.3-8.3-12.2-8.3-19.9c0-7.8 2.8-14.4 8.3-19.9s12.2-8.3 19.9-8.3c7.8 0 14.4 2.8 19.9 8.3s8.3 12.2 8.3 19.9v25.1c0 0.9-0.3 1.6-0.9 2.2s-1.3 0.9-2.2 0.9-1.6-0.3-2.2-0.9-0.9-1.3-0.9-2.2v-7.1zm-21.9-40c-6 0-11.2 2.1-15.5 6.4s-6.4 9.5-6.4 15.5 2.1 11.2 6.4 15.5 9.5 6.4 15.5 6.4 11.2-2.1 15.5-6.4 6.4-9.4 6.4-15.5-2.1-11.2-6.4-15.5c-4.3-4.2-9.4-6.4-15.5-6.4z"/>
	<path d="m430.3 459.1c-6.8 6.8-14.1 10.2-21.9 10.2s-14.4-2.8-19.9-8.3-8.3-12.2-8.3-19.9c0-7.8 2.8-14.4 8.3-19.9s12.2-8.3 19.9-8.3c7.8 0 14.4 2.8 19.9 8.3s8.3 12.2 8.3 19.9v25.1c0 0.9-0.3 1.6-0.9 2.2s-1.3 0.9-2.2 0.9-1.6-0.3-2.2-0.9-0.9-1.3-0.9-2.2v-7.1zm-21.9-40c-6 0-11.2 2.1-15.5 6.4s-6.4 9.5-6.4 15.5 2.1 11.2 6.4 15.5 9.5 6.4 15.5 6.4 11.2-2.1 15.5-6.4 6.4-9.4 6.4-15.5-2.1-11.2-6.4-15.5c-4.3-4.2-9.5-6.4-15.5-6.4z"/>
	<path d="m444.7 416c0-0.9 0.3-1.6 0.9-2.2s1.3-0.9 2.2-0.9 1.6 0.3 2.2 0.9 0.9 1.3 0.9 2.2v5.8c6.2-6 12.8-9 19.8-9 7.3 0 13.4 2.6 18.4 7.7 5.1 5.1 7.7 11.3 7.7 18.5v27.1c0 0.9-0.3 1.6-0.9 2.2s-1.4 0.9-2.2 0.9c-0.9 0-1.6-0.3-2.2-0.9s-0.9-1.3-0.9-2.2v-27.1c0-5.5-1.9-10.2-5.8-14-3.9-3.9-8.6-5.9-14-5.9s-10.1 2-14.1 5.9c-3.9 3.8-5.8 8.5-5.8 14v27.1c0 0.9-0.3 1.6-0.9 2.2s-1.3 0.9-2.2 0.9-1.6-0.3-2.2-0.9-0.9-1.3-0.9-2.2v-50.1z"/>
</g>
</svg>
