<?xml version="1.0" encoding="UTF-8" standalone="no"?><!DOCTYPE svg PUBLIC "-//W3C//DTD SVG 1.1//EN" "http://www.w3.org/Graphics/SVG/1.1/DTD/svg11.dtd"><svg width="100%" height="100%" viewBox="0 0 754 243" version="1.1" xmlns="http://www.w3.org/2000/svg" xmlns:xlink="http://www.w3.org/1999/xlink" xml:space="preserve" style="fill-rule:evenodd;clip-rule:evenodd;stroke-linejoin:round;stroke-miterlimit:1.41421;"><g id="Layer_1.-2"><path d="M54.84,152.36c0,-22.22 68,-44.84 127,-56.81c-13.645,16.832 -21.066,37.872 -21,59.54c0,38.83 23.16,72.15 56,86l0,0.2c-69.31,-13.79 -162,-59.24 -162,-88.93Z" style="fill:#00a650;fill-rule:nonzero;"/><path d="M72.78,112l62.53,-112l31.29,56.05c-34.983,11.574 -67.009,30.673 -93.82,55.95l0,0Z" style="fill:#ed1b34;fill-rule:nonzero;"/><path d="M142.17,241.28l-142.17,0l44.73,-78.63c11.61,17.8 41.67,55.28 97.44,78.63Z" style="fill:#0099d9;fill-rule:nonzero;"/><g><text x="252.98px" y="201.02px" style="font-family:'Lato-Black', 'Lato', sans-serif;font-weight:900;font-size:138px;fill:#010101;">C<tspan x="340.725px 435.9px 512.601px 614.469px " y="201.02px 201.02px 201.02px 201.02px ">VEDI</tspan></text><text x="656.102px" y="201.02px" style="font-family:'Lato-Black', 'Lato', sans-serif;font-weight:900;font-size:138px;fill:#010101;">A</text></g></g></svg>