<svg xmlns="http://www.w3.org/2000/svg" viewBox="0 0 667.21 270.12"><defs><style>.cls-1{fill:#fff;}.cls-2{fill:#08499e;}.cls-3{fill:#f5a21c;}</style></defs><title>Asset 1</title><g id="Layer_2" data-name="Layer 2"><g id="图层_1" data-name="图层 1"><path class="cls-1" d="M136.27,17,93.37,21.6,82.69,34.75,75,48.37s-2.27,12.71-1.37,19.06S85.87,96.5,87.67,98.75s17.27,19.07,17.27,19.07,9.09,60.84,11.81,64,26.79,30.89,28.6,33.14,23.15,13.15,27.23,13.15,24.51-13.59,25.89-14.95,33.13-54.51,33.13-54.51,10.44-42.2,15-48.57,20.44-29,20.44-29l2.29-23.6L263.84,37l-9.07-9.1-7-4.71L228,18l-55.39-3.18Z"/><path class="cls-2" d="M121.24,52.33a18.31,18.31,0,1,0,18.31,18.32,18.33,18.33,0,0,0-18.31-18.32m-12,9.82a5.35,5.35,0,1,1,5.35,5.34,5.33,5.33,0,0,1-5.35-5.34m12.94,10.41a4,4,0,1,1,4-4,4,4,0,0,1-4,4M221.68,89a18.31,18.31,0,1,0-18.31-18.3A18.3,18.3,0,0,0,221.68,89m6.7-21.46a4,4,0,1,1-4,4,4,4,0,0,1,4-4m-9.79-10.68a6,6,0,1,1-6,6,6,6,0,0,1,6-6m89.66,177.51c-.93-2.06-3.15-3.44-4.89-4.22a11.75,11.75,0,0,0-4.06-.9c-9.44-.19-55.09-1.91-92-4.77l-2.41-5.3-.32-.64a4.37,4.37,0,0,1-.18-1.21,3.65,3.65,0,0,1,.7-2.13c.15-.15.3-.33.47-.52,4.31-4.65,16.85-14.34,28.38-31.84,11.29-17.15,21.63-41.78,22.33-76.52a.88.88,0,0,0,0-.33c0-.06.67-2.26,1.28-4.32,10.62-8.87,16.46-23,16.46-38.42a48,48,0,0,0-23.43-41.52c12-7.33,25.13-17,29.58-20.26-11.08,3.75-26.91,6.84-45.8,9C223.09,4.25,199.66,0,172.55,0,145,0,121.3,4.39,110.17,10.75c-18.8-2-34.72-5-46.21-8.6,5.53,4,18.94,13.59,29.41,19.45A48,48,0,0,0,69.82,63.2c0,14.78,5.41,28.36,15.24,37.27a33.54,33.54,0,0,1,1.58,5.8c.7,34.74,11,59.37,22.33,76.52,11.52,17.5,24.07,27.19,28.39,31.84.15.19.33.37.47.52a3.65,3.65,0,0,1,.7,2.13,3.21,3.21,0,0,1-.05.55c-7.1-.8-14.33-1.68-21.74-2.61C46.27,205.52,3,188.7,3,188.7L0,191s16.56,11.71,71.32,23.49h-.11s17.32,4,41.88,8c-1.6,1.41-12.68,8-35.46,9.83a154.13,154.13,0,0,1-32-.64l-2.48,2s42.51,11.38,79.06-9.71c4.11.64,8.39,1.26,12.76,1.86l-10.21,22.39-.14.32a3.34,3.34,0,0,0-.26,1.34,3.67,3.67,0,0,0,.9,2.37,3.27,3.27,0,0,0,.47.44,63.39,63.39,0,0,0,7.72,6.33,3,3,0,0,0,.73.53,3.47,3.47,0,0,0,1.68.43,3.61,3.61,0,0,0,2.74-1.26,4.6,4.6,0,0,0,.32-.45l10.77-14.62a.11.11,0,0,1,.05-.09,1.13,1.13,0,0,1,.88-.44,1.09,1.09,0,0,1,1.11,1.07v.36L148,263.09a.11.11,0,0,1,0,.09,4.91,4.91,0,0,0-.06.66,3.66,3.66,0,0,0,2.13,3.31,4.26,4.26,0,0,0,.74.23,66.74,66.74,0,0,0,12.19,2.67,2.48,2.48,0,0,0,.39,0,.65.65,0,0,0,.2,0h.13a3.58,3.58,0,0,0,3.55-3h0l3.14-20.21a1.13,1.13,0,0,1,2.24,0l3.13,20.21a3.61,3.61,0,0,0,3.56,3h.13a.65.65,0,0,0,.2,0,2.75,2.75,0,0,0,.41,0,67.86,67.86,0,0,0,12.19-2.67,4.64,4.64,0,0,0,.72-.23,3.66,3.66,0,0,0,2.15-3.31,2.5,2.5,0,0,0-.09-.66v-.09l-3.76-18.55,0-.36a1.09,1.09,0,0,1,1.12-1.07,1.13,1.13,0,0,1,.88.44s0,.06.07.09L204,258.26c.11.15.22.31.34.45a3.55,3.55,0,0,0,2.72,1.26,3.37,3.37,0,0,0,1.66-.43,2.57,2.57,0,0,0,.74-.53,64.36,64.36,0,0,0,7.74-6.33,3.19,3.19,0,0,0,.46-.44,3.58,3.58,0,0,0,.92-2.37,3.53,3.53,0,0,0-.28-1.34l-.13-.32L211.66,234c12.92,1,26.53,1.92,40.32,2.57v0l1.29,0c.68,0,1.33.06,2,.1H255s14.45.84,32.64,1c0,0,6.56.35,9.72,1.32,2.39.71,10.13.23,10.92.23,4.33,0,.74-3.1,0-4.92M181.18,72.79l.32-.34c.91-1,2.22-2.3,3.95-4,8.21-7.74,24.49-20,33-26.22,1.85-1.29,3.65-2.59,5.45-4v0A192.19,192.19,0,0,1,247.77,23.2,41.46,41.46,0,0,1,267.4,58.33a47.54,47.54,0,0,1-2.08,11.49c-4.7,13.44-14.41,27.1-34.5,30a62.26,62.26,0,0,1-16.6.55v0c-10-.91-26-5-33.48-23-.93-2.54,0-4.07.44-4.55m-52.47,27.6a62.31,62.31,0,0,1-16.61-.55h0a43.91,43.91,0,0,1-12.66-3.79V96a40.65,40.65,0,0,1-13-10.1,10.42,10.42,0,0,0-.67-.82c-.23-.3-.44-.59-.67-.88A48.55,48.55,0,0,1,81,77.73a42.29,42.29,0,0,1-4.55-19.07A41.75,41.75,0,0,1,86.61,31.25C88,29.79,89.46,28.36,90.84,27a39.11,39.11,0,0,1,5.29-3.86A218.4,218.4,0,0,1,119,38.26l0,0c1.8,1.36,3.61,2.66,5.43,4,8.5,6.25,24.79,18.48,33,26.22,1.71,1.68,3,3,3.92,4,.12.11.21.22.32.34a4.47,4.47,0,0,1,.47,4.55c-7.5,18-23.49,22.12-33.49,23Zm71.74,97.17c-.23.38-.52.91-.91,1.54-3.62,5.79-12.89,17.8-28.07,19.43-15.2-1.63-24.48-13.64-28.07-19.43-.39-.63-.71-1.16-.92-1.54A74.38,74.38,0,0,1,133,160.45c0-3.52.17-6.82.47-9.91,3.73-38,28.53-43.28,28.53-43.28l9.45,18.33.06.1,0-.1L181,107.26s24.8,5.3,28.52,43.28c.29,3.09.47,6.39.47,9.91a74.17,74.17,0,0,1-9.51,37.11"/><path class="cls-3" d="M156.43,95.81l15,30.46L187.09,96s-7.4-6.61-15.24-6.61-15.42,6.39-15.42,6.39"/><path class="cls-2" d="M316.46,87.33c-1.82-.33-2.73-12.79-2.73-14.56v-5H302.22v5a14.26,14.26,0,0,0,3.58,9.73A14.57,14.57,0,0,0,316.46,87.33Zm42.07-14.56v-5H347v5c0,1.77-.91,14.23-2.7,14.56a14.51,14.51,0,0,0,10.64-4.83A14.23,14.23,0,0,0,358.53,72.77Zm-34.7,48.63h13V94.84H358v-4H336.87V67.57h-13V90.8H299.66v4h24.17Zm20.46-18.7v5a14.16,14.16,0,0,0,3.59,9.73,14.49,14.49,0,0,0,10.65,4.83c-1.82-.33-2.73-12.78-2.73-14.56v-5Zm63.92,2.85.88-24.22h5.07V77.16H379.27L383,67.57H371.21c-2.35,9.67-1.72,9.83-3.25,14.76-1.2,3.78-5.18,20.25-7.83,20.75,4.93-1.17,8.57-2.82,11-5,2.66-2.39,5.12-11.2,7.3-16.77h18.72L396.5,105a140.32,140.32,0,0,1-1.91,19.74,63.11,63.11,0,0,1-4.48,15,119.52,119.52,0,0,1-6-18.48c-.59-2.48-1.94-8.87-4-19.14H368.75q3.83,19.45,5.38,25.09a97,97,0,0,0,9,21.49c-5.32,8-11.16,17.26-17.71,23.92a105.3,105.3,0,0,0,12.92-5.46c3.62-2,7.61-6.77,12-10.78,6.39,6.52,14.26,13.14,23.59,16.24-7.39-7.88-12.25-17.23-16.53-23.24a72,72,0,0,0,7.37-18.45A136.48,136.48,0,0,0,408.21,105.55Zm-106,16.72a14.56,14.56,0,0,0,10.65-4.83,14.3,14.3,0,0,0,3.59-9.73v-5H305v5C305,109.49,304,121.94,302.22,122.27Zm38.45,35.45q10.49-6.08,12.09-7.82c1.84-2,2.78-4.87,2.78-8.55v-1.92h4.21v-4h-4.21V124.5H342.47v10.94H316.86V124.5h-13v10.94h-4.16v4h4.16a29.1,29.1,0,0,0,.24,4.64c.65,3.72,3.08,6.85,7.3,9.36l8.37,5c-6.05,5.33-8.44,7-11,9.07-1.51,1.21-9.14,5.31-9.14,5.31A48.22,48.22,0,0,0,314.4,172q3.3-.65,10.48-4.29c2.68-1.36,4.48-3.49,5.38-4,6.56,3.71,10.22,6.11,11,6.35a39.14,39.14,0,0,0,13.69,2.58H361s-7.39-5.76-9.55-7.36S345.12,160.47,340.67,157.72Zm-10.31-4.53-8.16-5.84c-3.13-1.72-3.28-2.23-4.14-3.28-.77-.9-1.08-2.95-1.2-4.39h25.49c-.19,2.15.67,3.94-1.75,5.4Z"/><path class="cls-2" d="M540.78,117.24v-4.17H518.24l0-16.74h9.31c4.65,0,8-1.07,10-3.23a10.2,10.2,0,0,0,2.94-7.49v-6q0-12.26-11.46-12.26H480.5q-7.78,0-11.77,6.21c-1.27,2-1.92,5.69-1.92,11.14v66.66a36.67,36.67,0,0,1-1,8.9c-.51,1.77-5.53,11.8-7.76,12.66,5.82,0,12.85-2.65,15.51-5.21a19.6,19.6,0,0,0,6.27-14.8V96.33h25.39v16.74H483.73v4.17h21.49v16.68h-6.13c-5.62,0-9.5.73-11.58,2.16q-4.59,3.16-4.59,11.17v11.33c0,4.78,1.05,8.21,3.16,10.21,2.39,2.33,6.1,3.47,11.08,3.47H527.6q6.24,0,9.83-3.64c2.09-2,3.11-5.14,3.11-9.3V145.63q0-11.7-14.76-11.71h-7.54V117.24Zm-16.92,20.88q3.66,0,3.66,4.4v20.36c0,2.35-.19,3.21-.57,3.86-.48.91-2,1.36-5.15,1.36H498.62c-2.47,0-2.68-2.34-2.68-4.86V142.52a5,5,0,0,1,1.12-3.59,4.37,4.37,0,0,1,3.09-.81Zm-44-45.95v-15c0-2.11.48-3.62,1.44-4.52s3-1.18,6.48-1.18h35.18c3,0,4.59,1.27,4.59,3.78v5.46c0,1-.19,9.17-.57,9.81-.6,1.09-.65,1.63-3.35,1.63ZM461.6,100a44.63,44.63,0,0,0-8.6,8.74V81.2h8.6V77H453v-9.7H440V77H426.37V81.2H440V119c-.51,1.5-10.77,16.58-14,17.14a76.77,76.77,0,0,0,7.87-1.6,63.56,63.56,0,0,0,6.13-2.48v21.75c0,2.83-6.08,18.45-12.26,18.45h6.06c4.76,0,10.1-.95,12.9-2.9Q453,165,453,155.54v-31.4c4.1-4.26,5.48-6.32,8.6-9.81Z"/><path class="cls-2" d="M660.94,77.06H649.43V67.32h-13v9.73H616.81V67.32h-13v9.73H584.38V67.32h-13v9.73H557.61V96.62c4.42-.19,8.61-2.11,10.1-4.28s1.43-6.51,1.43-10.27v-.74h83.62v.74c0,3.76,0,8.16,1.41,10.27s5.69,4.09,10.1,4.28c0-5.74,0,0,0-14.55v-5Z"/><path class="cls-2" d="M617.5,146h45.19v-4.31H617.5V126.77h21.81a10.25,10.25,0,0,0,7.51-3.11,9.92,9.92,0,0,0,3.21-7.37V106.21c0-7.65-4.36-11.48-13.14-11.48h-53.7a11.1,11.1,0,0,0-8.23,3.1c-2,2-3,4.72-3,8.38v10.08a10.07,10.07,0,0,0,3.23,7.56,11.2,11.2,0,0,0,8,2.92h21.32v14.91h-45V146h45v22.73h-47v4.17H664.29v-4.17H617.5Zm-28-23.39c-2.54,0-4.48-3.1-4.48-11.85,0-7.54,1.7-11.83,4.55-11.83h44.2c2.53,0,3.2,8.92,3.2,12,0,2.88-.67,11.69-2.89,11.69Z"/><path class="cls-2" d="M384.34,238.85c-2.14,0-3.65-.37-4.43-1a6.08,6.08,0,0,1-1.77-2.72l-.41-1.17-.94.77a21.18,21.18,0,0,1-5,3,18.34,18.34,0,0,1-7.14,1.16,13.55,13.55,0,0,1-6.77-1.46,8.1,8.1,0,0,1-3.55-3.5,10.66,10.66,0,0,1-1-4.49,9.14,9.14,0,0,1,1.74-5.74,13.56,13.56,0,0,1,4.84-3.78,66.22,66.22,0,0,1,8.41-3.22l4.57-1.47c1.05-.34,1.83-.61,2.34-.8a13.16,13.16,0,0,0,1.72-.76l.45-.26v-.51A8.72,8.72,0,0,0,376,207.7c-1-1.37-2.94-2-5.92-2a19.58,19.58,0,0,0-9.21,2.19,31.42,31.42,0,0,0-6.22,4.19v-8.71a27.94,27.94,0,0,1,5.3-2.81,32.74,32.74,0,0,1,6.4-1.77,38.45,38.45,0,0,1,6.77-.59c5.69,0,10.05,1.08,12.84,3.25a10.32,10.32,0,0,1,4.17,8.8V226a10.63,10.63,0,0,0,.48,3.65,2.4,2.4,0,0,0,2.37,1.67,7.92,7.92,0,0,0,2.84-.7v5.69c-1.93.73-3.68,1.33-5.26,1.78A23.54,23.54,0,0,1,384.34,238.85Zm-8.14-20.26a41.34,41.34,0,0,0-7.71,3.86,6.08,6.08,0,0,0-2.71,5.22,4.85,4.85,0,0,0,1.45,3.76,4.77,4.77,0,0,0,3.33,1.32,6.64,6.64,0,0,0,3.38-.95,22.52,22.52,0,0,0,3.09-2l.35-.26V218.11Z"/><path class="cls-2" d="M420.23,238.85c-10,0-14.81-4.73-14.81-14.44V207.22H400l18.22-19.32v11h13.84v8.35H418.24v14a22.3,22.3,0,0,0,.29,3.87,4.7,4.7,0,0,0,1.94,2.88,7.52,7.52,0,0,0,4.46,1.11c2.2,0,4.92-.78,8.25-2.36v9.36a40.3,40.3,0,0,1-5.59,1.83A29.86,29.86,0,0,1,420.23,238.85Z"/><path class="cls-2" d="M470.87,238.85c-2.15,0-3.65-.37-4.43-1a6,6,0,0,1-1.77-2.72l-.41-1.17-.94.77a21.18,21.18,0,0,1-5,3,18.34,18.34,0,0,1-7.14,1.16,13.62,13.62,0,0,1-6.78-1.46,8.21,8.21,0,0,1-3.55-3.5,10.64,10.64,0,0,1-1-4.49,9.08,9.08,0,0,1,1.74-5.74,13.47,13.47,0,0,1,4.84-3.78,65.63,65.63,0,0,1,8.41-3.22l4.57-1.47c1.05-.34,1.83-.61,2.34-.8a13.78,13.78,0,0,0,1.72-.76l.45-.26v-.51a8.65,8.65,0,0,0-1.37-5.16c-1-1.37-2.93-2-5.91-2a19.62,19.62,0,0,0-9.22,2.19,31.29,31.29,0,0,0-6.2,4.19v-8.71a27.56,27.56,0,0,1,5.29-2.81,32.74,32.74,0,0,1,6.4-1.77,38.37,38.37,0,0,1,6.77-.59c5.69,0,10.05,1.08,12.84,3.25a10.34,10.34,0,0,1,4.17,8.8V226a10.63,10.63,0,0,0,.48,3.65,2.4,2.4,0,0,0,2.37,1.67,8,8,0,0,0,2.84-.7v5.69c-1.93.73-3.68,1.33-5.26,1.78A23.54,23.54,0,0,1,470.87,238.85Zm-8.14-20.26a41.34,41.34,0,0,0-7.71,3.86,6.09,6.09,0,0,0-2.72,5.22,4.86,4.86,0,0,0,1.46,3.76,4.77,4.77,0,0,0,3.33,1.32,6.64,6.64,0,0,0,3.38-.95,23.8,23.8,0,0,0,3.09-2l.35-.26V218.11Z"/><path class="cls-2" d="M505.84,238.85c-9.95,0-14.81-4.73-14.81-14.44V207.22h-5.4l18.22-19.32v11h13.84v8.35H503.85v14a22.3,22.3,0,0,0,.29,3.87,4.65,4.65,0,0,0,1.94,2.88,7.49,7.49,0,0,0,4.46,1.11c2.2,0,4.92-.78,8.25-2.36v9.36a40.3,40.3,0,0,1-5.59,1.83A29.92,29.92,0,0,1,505.84,238.85Z"/><path class="cls-2" d="M556.48,238.85c-2.15,0-3.65-.37-4.43-1a6,6,0,0,1-1.77-2.72l-.41-1.17-.94.77a21.38,21.38,0,0,1-5,3,18.36,18.36,0,0,1-7.15,1.16,13.6,13.6,0,0,1-6.77-1.46,8.13,8.13,0,0,1-3.54-3.5,10.52,10.52,0,0,1-1-4.49,9.09,9.09,0,0,1,1.75-5.74,13.38,13.38,0,0,1,4.84-3.78,65.63,65.63,0,0,1,8.41-3.22l4.57-1.47c1-.34,1.82-.61,2.33-.8a13.16,13.16,0,0,0,1.72-.76l.46-.26v-.51a8.72,8.72,0,0,0-1.37-5.16c-1-1.37-2.93-2-5.91-2a19.62,19.62,0,0,0-9.22,2.19,31.65,31.65,0,0,0-6.21,4.19v-8.71a27.65,27.65,0,0,1,5.3-2.81,32.74,32.74,0,0,1,6.4-1.77,38.37,38.37,0,0,1,6.77-.59c5.69,0,10.05,1.08,12.84,3.25a10.34,10.34,0,0,1,4.17,8.8V226a10.63,10.63,0,0,0,.48,3.65,2.39,2.39,0,0,0,2.36,1.67,7.92,7.92,0,0,0,2.85-.7v5.69c-1.93.73-3.68,1.33-5.27,1.78A23.41,23.41,0,0,1,556.48,238.85Zm-8.14-20.26a41,41,0,0,0-7.71,3.86,6.07,6.07,0,0,0-2.72,5.22,4.75,4.75,0,0,0,4.79,5.08,6.64,6.64,0,0,0,3.38-.95,23.8,23.8,0,0,0,3.09-2l.35-.26V218.11Z"/><path class="cls-2" d="M604.6,238.12V216.89a15.5,15.5,0,0,0-1.18-6.24c-.89-2-2.77-3-5.62-3a7.83,7.83,0,0,0-3.49.75,10.67,10.67,0,0,0-2.66,1.88,24.48,24.48,0,0,0-1.89,2.1c-.48.65-1,1.35-1.47,2.07l-.17.21v23.49H575.36V193.59l12.76,5v7.46l1.49-1.58a19.59,19.59,0,0,1,6.56-4.92,18.46,18.46,0,0,1,7.33-1.4c9.33,0,13.87,5.48,13.87,16.76v23.2Z"/><path class="cls-2" d="M645.53,257.47c-7.1,0-12.36-.94-15.64-2.82s-4.7-4.14-4.7-7.11a8.15,8.15,0,0,1,.61-2.76,7.26,7.26,0,0,1,2.53-2.95,13,13,0,0,1,5.88-2l.17-1.67a4.17,4.17,0,0,1-2.07-1.7,4.32,4.32,0,0,1-.92-2.67,6.52,6.52,0,0,1,1.29-3.73,6.61,6.61,0,0,1,4.25-2.37L637,226a16.64,16.64,0,0,1-7.55-4.3,11,11,0,0,1-3.06-8.06,14.42,14.42,0,0,1,1.45-6.65,12.62,12.62,0,0,1,4-4.6,19.07,19.07,0,0,1,6.08-2.66,31.62,31.62,0,0,1,7.71-.89h21.6l-7.49,7.94.67.6a9.45,9.45,0,0,1,3.49,7.43,10.58,10.58,0,0,1-1,4.51,11.35,11.35,0,0,1-2.93,3.86,15.54,15.54,0,0,1-4.84,2.79,23.4,23.4,0,0,1-6.69,1.35c-3.87.14-5.83,1.34-5.83,3.54a2.32,2.32,0,0,0,1,2.11,5.69,5.69,0,0,0,2.39.81c.94.15,2.5.32,4.73.51a42.36,42.36,0,0,1,6.83,1.11,12.84,12.84,0,0,1,5.62,3.16c1.69,1.58,2.49,3.77,2.49,6.73a10.77,10.77,0,0,1-1.91,6.28,12.59,12.59,0,0,1-6.28,4.26A36.43,36.43,0,0,1,645.53,257.47Zm.67-16c-3.52,0-6,.36-7.63,1.12a4.46,4.46,0,0,0-2.74,4.2c0,3.6,3.41,5.44,10.13,5.44a16.41,16.41,0,0,0,7-1.28,4.7,4.7,0,0,0,2.93-4.38c0-1.52-.6-3.5-3.52-4.3A23.17,23.17,0,0,0,646.2,241.51ZM645.29,206a7.46,7.46,0,0,0-5.94,2.57,8.14,8.14,0,0,0-2.1,5.3,7.62,7.62,0,0,0,.92,3.63,7,7,0,0,0,2.66,2.71,7.65,7.65,0,0,0,4,1,8.16,8.16,0,0,0,5.8-2.2,7.56,7.56,0,0,0-.11-10.95A7.84,7.84,0,0,0,645.29,206Z"/><path class="cls-2" d="M301.81,183.8h20.51a40.41,40.41,0,0,1,10.58,1.06,18.63,18.63,0,0,1,8.38,5.12,24.2,24.2,0,0,1,5.31,9,41.09,41.09,0,0,1,1.82,13.13A36.5,36.5,0,0,1,346.7,224a24.56,24.56,0,0,1-5.95,9.82,19.82,19.82,0,0,1-7.89,4.43,33.73,33.73,0,0,1-9.93,1.18H301.81ZM313,193.2V230h8.38a30.27,30.27,0,0,0,6.79-.53,10.37,10.37,0,0,0,4.53-2.31,11.84,11.84,0,0,0,2.94-5.36,36.25,36.25,0,0,0,1.14-10.19,33.12,33.12,0,0,0-1.14-9.89,12.72,12.72,0,0,0-3.19-5.39,10.58,10.58,0,0,0-5.19-2.61,50.1,50.1,0,0,0-9.22-.54Z"/></g></g></svg>