<svg xmlns="http://www.w3.org/2000/svg" viewBox="0 0 283.17 88.79"><defs><style>.cls-1{fill:#939598;}.cls-2{fill:#363436;}</style></defs><title>Asset 1</title><g id="Layer_2" data-name="Layer 2"><g id="Layer_1-2" data-name="Layer 1"><path class="cls-1" d="M54.06,39.79l-9.39,3a3.28,3.28,0,0,0,1,6.41,3.18,3.18,0,0,0,1-.17l9.39-3a3.28,3.28,0,0,0-2-6.24Z"/><path class="cls-1" d="M54.06,50.56l-9.39,3a3.28,3.28,0,0,0,1,6.41,3.17,3.17,0,0,0,1-.16l9.39-3a3.28,3.28,0,0,0-2-6.24Z"/><path class="cls-1" d="M73.86,16.39c0-.06,0-.11,0-.16s0-.24,0-.35,0-.22-.07-.33l0-.17-.06-.13a2.88,2.88,0,0,0-.13-.31c0-.09-.1-.19-.16-.28a2.2,2.2,0,0,0-.17-.25L73,14.15a1.34,1.34,0,0,0-.21-.2,2.52,2.52,0,0,0-.25-.21l-.26-.17L72,13.42l-.29-.11-.31-.1-.3-.06-.34,0-.15,0-.17,0-.32,0-.36.08-.15,0-24.91,8a3.28,3.28,0,0,0,1,6.4,3.46,3.46,0,0,0,1-.15L67.3,20.88v3.89L44.67,32a3.28,3.28,0,0,0,1,6.4,3.17,3.17,0,0,0,1-.16l24.91-8,.13-.05.32-.14.27-.15a1.51,1.51,0,0,0,.26-.18,1.64,1.64,0,0,0,.25-.21c.08-.07.14-.14.21-.21l.2-.25c.07-.09.12-.18.18-.27s.1-.18.14-.27a1.88,1.88,0,0,0,.12-.3c0-.1.07-.2.1-.3s0-.2,0-.3,0-.23,0-.35,0-.09,0-.14Z"/><path class="cls-1" d="M118.31,76.12V86.34h-4.59V50c1.49-.1,3.81-.15,6.93-.15h9.08q4.17,0,5.9,1.38c1.14.92,1.72,2.76,1.72,5.5V69.23c0,2.74-.58,4.58-1.72,5.5s-3.12,1.39-5.9,1.39Zm14.45-20.34a2.24,2.24,0,0,0-.53-1.78,3.79,3.79,0,0,0-2.19-.42H118.31V72.15H130a4.07,4.07,0,0,0,2.22-.39,2.15,2.15,0,0,0,.5-1.7Z"/><path class="cls-1" d="M166.34,76.12q-2.28.15-8,.15h-7.67q-4.38,0-5.92-1.43t-1.53-5.2V66.47c0-2.26.55-3.78,1.66-4.54s3.12-1.15,6-1.15h10.9v-5a2.21,2.21,0,0,0-.54-1.78,4.14,4.14,0,0,0-2.27-.42H145.58V50c1-.1,2.89-.15,5.74-.15h7.36c3,0,5.06.44,6.1,1.33s1.56,2.77,1.56,5.65Zm-4.59-11.79H150.54a4,4,0,0,0-2.24.41,2.25,2.25,0,0,0-.52,1.78v3.7c0,.87.17,1.44.52,1.7a4.32,4.32,0,0,0,2.29.39h11.16Z"/><path class="cls-1" d="M235.19,76.12q-2.08.15-5.95.15h-8.55q-4.23,0-5.95-1.54T213,69V56.55c0-2.71.57-4.52,1.7-5.45s3.1-1.38,5.92-1.38h8q4.17,0,5.68,1.41t1.51,5.58v8h-18.3v5.48c0,.9.17,1.49.52,1.75a4.13,4.13,0,0,0,2.24.34h14.92Zm-3.86-20.56a2,2,0,0,0-.55-1.69,4.36,4.36,0,0,0-2.27-.39h-8.24a4.2,4.2,0,0,0-2.24.39,2.08,2.08,0,0,0-.52,1.69v5.63h13.82Z"/><path class="cls-1" d="M242.05,76.12V56.45q0-4.32,1.47-5.48t5.94-1.14l5.79.15v3.71h-5.79a4.14,4.14,0,0,0-2.27.41,2.22,2.22,0,0,0-.54,1.78V76.12Z"/><path class="cls-1" d="M278.58,76.12V55.78a2.29,2.29,0,0,0-.5-1.78,3.78,3.78,0,0,0-2.21-.42H265V76.12h-4.59V50q1.67-.15,6.15-.15h9q4.17,0,5.87,1.41c1.13.93,1.69,2.78,1.69,5.52V76.12Z"/><path class="cls-1" d="M200.87,71.92c-.36-.26-.54-.83-.54-1.7V53.58h7V50h-15.6v3.6h4V69.39q0,4.17,1.59,5.52t5.81,1.36c1.6,0,3.17,0,4.7-.15V72.31h-4.7A4.41,4.41,0,0,1,200.87,71.92Z"/><path class="cls-1" d="M183,72.31a4.38,4.38,0,0,1-2.27-.39,2,2,0,0,1-.55-1.7V53.58h7V50H171.54v3.6h4V69.39q0,4.17,1.59,5.52T183,76.27c1.6,0,3.16,0,4.69-.15V72.31Z"/><path class="cls-2" d="M3.28,52a3.17,3.17,0,0,0,1-.16l27.95-8.94a3.28,3.28,0,1,0-2-6.25l-27.95,9a3.28,3.28,0,0,0,1,6.4Z"/><path class="cls-2" d="M3.28,62.77a3.48,3.48,0,0,0,1-.16l27.95-9a3.28,3.28,0,1,0-2-6.25l-27.95,9a3.28,3.28,0,0,0,1,6.41Z"/><path class="cls-2" d="M3.28,73.53a3.15,3.15,0,0,0,1-.15l9.39-3a3.28,3.28,0,0,0-2-6.24l-9.39,3a3.27,3.27,0,0,0,1,6.39Z"/><path class="cls-2" d="M3.28,41.22a3.48,3.48,0,0,0,1-.16l9.39-3a3.28,3.28,0,0,0-2-6.25l-9.39,3a3.28,3.28,0,0,0,1,6.41Z"/><path class="cls-2" d="M69.58,56.36,32.73,68.16h0l-24.91,8h0l-5.5,1.76a3.28,3.28,0,0,0,1,6.4,3.17,3.17,0,0,0,1-.16l5.5-1.76h0l7.66-2.45.63-.2h0L29,76.25s0,0,0,0L71.58,62.61a3.28,3.28,0,1,0-2-6.25Z"/><path class="cls-2" d="M69.58,67.14,32.72,78.94h0L22,82.39a3.28,3.28,0,0,0,1,6.4,3.17,3.17,0,0,0,1-.16L29,87h0L71.58,73.38a3.28,3.28,0,1,0-2-6.24Z"/><path class="cls-2" d="M3.28,20.14a3.17,3.17,0,0,0,1-.16l13.81-4.42,0,0L29,12.06h0L46.67,6.4a3.28,3.28,0,1,0-2-6.24L27,5.81h0L16.1,9.31h0l-2.9.93L7.8,12h0l-5.5,1.76a3.28,3.28,0,0,0,1,6.41Z"/><path class="cls-2" d="M3.28,30.91a3.17,3.17,0,0,0,1-.16L34.71,21h0L71.58,9.2a3.28,3.28,0,1,0-2-6.24L32.72,14.76h0L2.28,24.51a3.28,3.28,0,0,0,1,6.4Z"/><path class="cls-2" d="M134.72,12q-2-1.54-6.92-1.54h-6.16q-4.87,0-6.9,1.62t-2,6.33v2.31h-2.34l-.92,5.51h3.26v2c0,3.22.7,5.42,2.11,6.62s3.74,1.8,7,1.8H127q6.36,0,9.18-.26V29.7H122.36a.68.68,0,0,1-.77-.77V26.31h15.08V17.75C136.67,14.94,136,13,134.72,12Zm-6.92,8.72h-6.21V17.44a.68.68,0,0,1,.77-.77H127a.68.68,0,0,1,.77.77Z"/><path class="cls-2" d="M156.82,10.56h-7.59q-5.39,0-7.75.21V36.42H151V17.18h4.2A.68.68,0,0,1,156,18V36.42h9.55V18.57c0-3.18-.65-5.31-1.93-6.39S160.07,10.56,156.82,10.56Z"/><rect class="cls-2" x="170.58" y="10.72" width="9.54" height="25.71"/><path class="cls-2" d="M193.86,10.56q-4.92,0-6.92,1.65c-1.34,1.09-2,3.23-2,6.41v8.82c0,3.18.66,5.31,2,6.39s3.64,1.62,6.92,1.62h6.42V39a.68.68,0,0,1-.77.77H195v6.67l6,.15q4.88,0,6.85-1.61c1.31-1.08,2-3.2,2-6.34V10.82L201,10.56Zm6.42,18.27h-5c-.55,0-.82-.26-.82-.77V17.85c0-.45.26-.67.77-.67h5Z"/><path class="cls-2" d="M245.52,10.56H222.79c-3.83,0-6.47.07-7.9.21V36.42h9.54V17.18h5.34V36.42h9.54V17.18h4.57a.68.68,0,0,1,.77.77V36.42h9.54V18.57c0-3.22-.63-5.36-1.87-6.42S248.8,10.56,245.52,10.56Z"/><path class="cls-2" d="M280.73,12.08c-1.23-1-3.66-1.52-7.29-1.52h-4.51q-4.32,0-8.11.21V17H273a.68.68,0,0,1,.77.77v2.51h-5.7c-3.55,0-6,.42-7.36,1.26s-2,2.55-2,5.15v2.37q0,4.2,2,5.87T268,36.63h6.21c4,0,6.82-.09,8.36-.26V18.72Q282.57,13.59,280.73,12.08Zm-7,17.78h-5.64a.68.68,0,0,1-.77-.77V26.62a.68.68,0,0,1,.77-.77h5.64Z"/></g></g></svg>