<?xml version="1.0" encoding="UTF-8" standalone="no"?><!DOCTYPE svg PUBLIC "-//W3C//DTD SVG 1.1//EN" "http://www.w3.org/Graphics/SVG/1.1/DTD/svg11.dtd"><svg width="100%" height="100%" viewBox="0 0 370 123" version="1.1" xmlns="http://www.w3.org/2000/svg" xmlns:xlink="http://www.w3.org/1999/xlink" xml:space="preserve" style="fill-rule:evenodd;clip-rule:evenodd;stroke-linejoin:round;stroke-miterlimit:1.41421;"><g id="Layer_1.-2"><path d="M366.899,81.321l-5.63,0c-0.254,-1.116 -0.9,-2.106 -1.82,-2.79c-1.233,-0.633 -2.617,-0.913 -4,-0.81c-1.184,-0.075 -2.367,0.153 -3.44,0.66c-0.848,0.381 -1.376,1.252 -1.32,2.18c0,0.81 0.66,1.57 2.08,2.18c1.708,0.614 3.451,1.121 5.22,1.52c2.339,0.463 4.581,1.322 6.63,2.54c1.968,1.134 3.172,3.25 3.14,5.52c0,5.57 -3.95,8.36 -11.81,8.36c-7.3,0 -11.2,-3.09 -11.76,-9.22l5.66,0c0.148,1.354 0.776,2.611 1.77,3.54c1.255,0.745 2.705,1.093 4.16,1c4.07,-0.08 6.07,-1.2 6.07,-3.33c0,-1.213 -0.76,-2.173 -2.28,-2.88c-1.673,-0.65 -3.404,-1.142 -5.17,-1.47c-2.288,-0.415 -4.498,-1.185 -6.55,-2.28c-1.895,-1.093 -3.048,-3.141 -3,-5.33c-0.096,-2.276 1.055,-4.433 3,-5.62c2.313,-1.503 5.046,-2.231 7.8,-2.08c6.84,0 10.64,2.79 11.25,8.31Z" style="fill:#333;fill-rule:nonzero;"/><path d="M192.497,30.105l-17.89,0l0,-14.59l-5.86,0l0,36.08l5.86,0l0,-15.59l17.89,0l0,15.59l5.86,0l0,-36.08l-5.86,0l0,14.59Z" style="fill:#333;fill-rule:nonzero;"/><path d="M215.277,24.045c-6.79,0 -13.66,4.76 -13.66,13.85c0,9.09 6.87,13.7 13.66,13.7c6.79,0 13.66,-4.71 13.66,-13.7c0,-8.99 -6.87,-13.85 -13.66,-13.85Zm6.88,13.85c0,5.27 -2.7,8.67 -6.88,8.67c-4.18,0 -6.83,-3.4 -6.83,-8.67c0,-5.27 2.68,-8.77 6.83,-8.77c4.15,0 6.88,3.44 6.88,8.77Z" style="fill:#333;fill-rule:nonzero;"/><path d="M213.079,73.081c-6.79,0 -13.66,4.76 -13.66,13.85c0,9.09 6.87,13.7 13.66,13.7c6.79,0 13.66,-4.71 13.66,-13.7c0,-8.99 -6.89,-13.85 -13.66,-13.85Zm6.88,13.85c0,5.27 -2.7,8.67 -6.88,8.67c-4.18,0 -6.83,-3.4 -6.83,-8.67c0,-5.27 2.68,-8.77 6.83,-8.77c4.15,0 6.88,3.44 6.88,8.77Z" style="fill:#333;fill-rule:nonzero;"/><path d="M271.289,73.081c-6.79,0 -13.66,4.76 -13.66,13.85c0,9.09 6.87,13.7 13.66,13.7c6.79,0 13.65,-4.71 13.65,-13.7c0,-8.99 -6.87,-13.85 -13.65,-13.85Zm6.88,13.85c0,5.27 -2.7,8.67 -6.88,8.67c-4.18,0 -6.84,-3.4 -6.84,-8.67c0,-5.27 2.68,-8.77 6.84,-8.77c4.16,0 6.88,3.44 6.88,8.77Z" style="fill:#333;fill-rule:nonzero;"/><path d="M302.987,24.045c-6.78,0 -13.65,4.76 -13.65,13.85c0,9.09 6.87,13.7 13.65,13.7c6.78,0 13.66,-4.71 13.66,-13.7c0,-8.99 -6.87,-13.85 -13.66,-13.85Zm6.89,13.85c0,5.27 -2.7,8.67 -6.89,8.67c-4.19,0 -6.83,-3.4 -6.83,-8.67c0,-5.27 2.68,-8.77 6.83,-8.77c4.15,0 6.89,3.44 6.89,8.77Z" style="fill:#333;fill-rule:nonzero;"/><path d="M247.007,24.555c-2.94,0 -5.84,1.94 -7.89,5.24l-0.41,-5.03l-5.51,0l0,26.83l6.57,0l0,-15.27c2.12,-5.2 5.27,-5.77 6.53,-5.77c0.923,-0.011 1.84,0.141 2.71,0.45l0.38,0.11l1.21,-5.79l-0.25,-0.12c-1.048,-0.474 -2.191,-0.697 -3.34,-0.65l0,0Z" style="fill:#333;fill-rule:nonzero;"/><path d="M286.147,28.755l0.07,-0.09l-0.01,-3.99l-21.51,0l0.01,5.63l13.04,0l-13.55,17.55l-0.06,0.09l0,3.65l22.54,0l0,-5.44l-14.06,0l13.53,-17.4Z" style="fill:#333;fill-rule:nonzero;"/><path d="M243.479,72.801c-2.915,0.134 -5.715,1.184 -8,3l0.12,-11.84l-5.75,0l0,36.06l4.47,0l0.52,-2.49c2.14,1.885 4.862,2.98 7.71,3.1c6.22,0 12.53,-4.92 12.53,-14.32c-0.04,-8.34 -4.47,-13.51 -11.6,-13.51Zm-2.1,22.71c-2.126,-0.051 -4.174,-0.82 -5.81,-2.18l0,-12.4c2.29,-2 4.32,-3 6.37,-3c4.22,0 6.91,2.83 6.91,8.5c0,5.67 -3.32,9.07 -7.47,9.07l0,0.01Z" style="fill:#333;fill-rule:nonzero;"/><path d="M301.239,94.891c-0.602,0.175 -1.223,0.276 -1.85,0.3c-2.63,0 -3.75,-1.42 -3.75,-4.78l0,-12.17l6.54,0l0,-4.85l-6.53,0l0,-9.38l-5.64,2.42l0,7l-4.28,0l0,4.82l4.12,0l0,12.11c0,6.91 2.19,10.27 8.13,10.27c1.105,-0.012 2.204,-0.143 3.28,-0.39l-0.02,-5.35Z" style="fill:#333;fill-rule:nonzero;"/><rect x="253.867" y="24.765" width="5.76" height="26.83" style="fill:#333;"/><circle cx="256.747" cy="18.305" r="4.04" style="fill:#333;"/><rect x="306.839" y="73.801" width="5.76" height="26.83" style="fill:#333;"/><circle cx="309.719" cy="67.341" r="4.04" style="fill:#333;"/><path d="M335.209,90.531c-1,3.17 -3.26,5.07 -6.39,5.07c-4.15,0 -6.83,-3.4 -6.83,-8.67c0,-5.27 2.68,-8.77 6.83,-8.77c3,0 5.3,1.84 6.3,4.9l6.84,0c-1.505,-5.969 -6.985,-10.14 -13.14,-10c-6.79,0 -13.66,4.76 -13.66,13.85c0,9.09 6.87,13.7 13.66,13.7c5.81,0 11.64,-3.47 13.21,-10.1l-6.82,0.02Z" style="fill:#333;fill-rule:nonzero;"/><path d="M196.449,75.801c0,-7.49 -4.93,-11.29 -14.65,-11.29l-12.51,0l0,36.12l6.17,0l0,-13.63l5.79,0l9,13.63l7.9,0l-9.76,-14.56c5.27,-1.73 8.06,-4.73 8.06,-10.27Zm-6.92,0c0,4.3 -2.85,5.67 -8.49,5.67l-5.58,0l0,-11.44l5.58,0c5.95,0 8.49,1.77 8.49,5.77Z" style="fill:#333;fill-rule:nonzero;"/><path d="M345.357,36.315c0,-7.66 -3,-11.55 -9,-11.55c-3.57,0 -6.32,1.79 -8.57,3.79c0,-0.12 -0.45,-3.59 -0.45,-3.59l-6.12,0l0,26.63l6.56,0l0,-17.39c2.43,-2.41 4.13,-3.64 6.58,-3.64c3.14,0 4.42,1.88 4.42,6.47l0,14.56l6.62,0l-0.04,-15.28Z" style="fill:#333;fill-rule:nonzero;"/><path d="M116.266,34.86c0.011,1.781 1.479,3.24 3.26,3.24c1.788,0 3.26,-1.472 3.26,-3.26c0,-1.788 -1.472,-3.26 -3.26,-3.26c-1.79,0.005 -3.26,1.48 -3.26,3.27l0,0.01Z" style="fill:#2c62ae;fill-rule:nonzero;"/><path d="M96.046,61.7c-0.022,-1.773 -1.487,-3.22 -3.26,-3.22c-1.788,0 -3.26,1.472 -3.26,3.26c0,1.788 1.472,3.26 3.26,3.26c0.003,0 0.007,0 0.01,0c1.795,-0.016 3.261,-1.504 3.25,-3.3Z" style="fill:#2c62ae;fill-rule:nonzero;"/><path d="M36.006,33.75c0.022,1.768 1.482,3.21 3.25,3.21c1.783,0 3.25,-1.467 3.25,-3.25c0,-1.783 -1.467,-3.25 -3.25,-3.25c-1.785,0.005 -3.25,1.475 -3.25,3.26l0,0.03Z" style="fill:#2c62ae;fill-rule:nonzero;"/><path d="M89.566,122.33l48.65,-45.85l-56.51,22.01l7.86,23.84Z" style="fill:#2c62ae;fill-rule:nonzero;"/><path d="M34.056,33.75c0.002,-1.1 0.352,-2.171 1,-3.06l-12.85,-16.85l-19.3,33.91l31.51,-12.14c-0.233,-0.593 -0.355,-1.223 -0.36,-1.86Z" style="fill:#2c62ae;fill-rule:nonzero;"/><path d="M44.446,33.75c-0.005,0.844 -0.214,1.674 -0.61,2.42l44.88,22.35c0.969,-1.296 2.492,-2.063 4.11,-2.07c1.032,-0.003 2.041,0.312 2.89,0.9l20.22,-18.73c-1.011,-0.989 -1.581,-2.346 -1.58,-3.76c0.001,-0.942 0.261,-1.865 0.75,-2.67l-41.19,-32.01l-30.2,30.88c0.482,0.814 0.734,1.744 0.73,2.69l0,0Z" style="fill:#2c62ae;fill-rule:nonzero;"/><path d="M39.256,28.5c1.307,0.002 2.565,0.507 3.51,1.41l29.12,-29.75l-48.26,13.13l12.45,16.34c0.902,-0.725 2.023,-1.124 3.18,-1.13l0,0Z" style="fill:#2c62ae;fill-rule:nonzero;"/><path d="M119.236,29.65l-0.87,-23.16l-42.3,-6.49l39.92,31c0.89,-0.819 2.042,-1.297 3.25,-1.35Z" style="fill:#2c62ae;fill-rule:nonzero;"/><path d="M124.716,34.35l23,-0.43l-27.86,-26.58l0.86,22.42c2.173,0.515 3.787,2.367 4,4.59Z" style="fill:#2c62ae;fill-rule:nonzero;"/><path d="M119.526,40.11c-0.839,-0.007 -1.663,-0.22 -2.4,-0.62l-20.36,18.86c0.785,0.94 1.216,2.125 1.22,3.35c0,0.12 0,0.24 0,0.37l40.53,11.79l-17.13,-34.12c-0.591,0.241 -1.222,0.366 -1.86,0.37l0,0Z" style="fill:#2c62ae;fill-rule:nonzero;"/><path d="M124.626,35.82c-0.246,1.278 -0.959,2.419 -2,3.2l17.39,34.57l8.84,-38.22l-24.23,0.45Z" style="fill:#2c62ae;fill-rule:nonzero;"/><path d="M137.636,75.13l-40,-11.62c-0.734,2.044 -2.678,3.419 -4.85,3.43c-0.419,-0.005 -0.835,-0.062 -1.24,-0.17l-9.58,30l55.67,-21.64Z" style="fill:#2c62ae;fill-rule:nonzero;"/><path d="M39.256,39c-0.771,-0.003 -1.531,-0.185 -2.22,-0.53l-26.15,33.91l-0.79,1l36.39,0l-7.23,-34.38Z" style="fill:#2c62ae;fill-rule:nonzero;"/><path d="M87.596,61.7c0.003,-0.651 0.128,-1.296 0.37,-1.9l-45,-22.41c-0.619,0.648 -1.393,1.127 -2.25,1.39l0,0.14l7.27,34.55l0.16,0.73l32.26,22.8l9.79,-30.73c-1.62,-0.947 -2.614,-2.694 -2.6,-4.57Z" style="fill:#2c62ae;fill-rule:nonzero;"/><path d="M35.806,37.64c-0.249,-0.219 -0.473,-0.463 -0.67,-0.73l-33.25,12.8l-0.17,0.07l0.08,0.22l7.63,21.88l26.38,-34.24Z" style="fill:#2c62ae;fill-rule:nonzero;"/></g></svg>