<?xml version="1.0" encoding="utf-8"?>
<!-- Generator: Adobe Illustrator 22.1.0, SVG Export Plug-In . SVG Version: 6.00 Build 0)  -->
<svg version="1.2" baseProfile="tiny" id="Layer_1" xmlns="http://www.w3.org/2000/svg" xmlns:xlink="http://www.w3.org/1999/xlink"
	 x="0px" y="0px" viewBox="0 0 1288 864" xml:space="preserve">
<path fill="#29449C" d="M629.2,350c-2.8,12-5.5,24.4-8.7,36.8c-7.5,29.1,24.9,76.1,46.9,85.3c26.5,11,51-2.3,55.7-32.4
	c6-38.5-1.7-73.1-31.3-100.8c-9.9-9.3-21.8-13.5-35-13.9c-10.9-0.4-21.8-0.1-35-0.1c15-13.7,30.5-21.1,47.8-24.5
	c70.1-13.6,102.2,47.7,95.9,97.2c-4.3,34.1-26.1,57-48.6,80c-13.8,14.1-29.5,23.8-48.4,27.9c-25.7,5.6-47.2-1.8-65-21.9
	c-16.2-18.4-24.9-38.9-24-63.5C580.6,392.6,604.6,358.6,629.2,350z"/>
<path fill="#29449C" d="M1197.6,561.2c-4.5,1-8.9,2.9-13.4,2.9c-77.3,0.8-154.6,0.7-231.9,2.4c-54.8,1.2-109.6,4.5-164.4,7.4
	c-16.8,0.9-33.5,3.1-50.2,5.4c-25.7,3.5-51.3,7.2-76.8,11.6c-10.2,1.7-19.5,1.1-28.2-4.5c-14.6-9.5-29.1-19-43.4-29.5
	C792,535.3,994.4,538.5,1197.6,561.2z"/>
<path fill="#29449C" d="M978.8,374c-4.4,6.6-8.7,14.3-14.3,20.9c-2.1,2.4-7.3,2.6-11.1,2.9c-5.8,0.4-8,2.9-7.8,8.7
	c0.9,23.2,1.9,46.5,2.3,69.7c0.1,3.4-1.3,8.4-3.8,10.1c-9.6,6.4-19.8,11.7-30,17.6c-2.6-33.7-5.1-66.8-7.6-100.9
	c-9.9-0.7-20.3-1.4-30.7-2.1c-0.4-0.8-0.8-1.7-1.2-2.5c4.9-5.2,9.3-10.9,14.8-15.3c10.6-8.4,18.9-17.9,21.9-31.7
	c2.8-13,9.8-23.4,21.3-30.9c11.2-7.4,21.8-15.8,32.8-23.5c12.6-8.8,31.8-5.4,39.2,8c1.7,3.1-0.5,10.4-3.4,13.4
	c-4.9,5.1-11.9,8.3-17.5,12.1c-5.9-4.3-10.7-8.8-16.4-11.5c-11.5-5.6-20.2-1.3-21.7,11c-1.5,12.1-1.5,24.4-2,36.6
	c-0.3,5.8,2.5,8.1,8.4,7.8C960.9,373.6,969.7,374,978.8,374z"/>
<path fill="#29449C" d="M814.7,503.2c-2-34-4-66.9-6-100.4c-11.4-0.6-21.8-1.2-32.2-1.8c-0.6-1.1-1.1-2.3-1.7-3.4
	c8.9-8,17.9-15.9,26.7-24.1c2.8-2.6,6.7-5.7,6.9-8.8c3.2-33.6,28.9-48.5,52.9-65.1c9.6-6.6,19.2-11.5,30.4-5.2
	c6.9,3.9,13,9.1,20.9,14.8c-9.5,7.5-18.5,14.5-27.3,21.4c-6.1-4.3-11-8.6-16.6-11.6c-11.7-6.1-20.7-2-22.3,10.8
	c-1.5,11.4-1.4,23.1-1.3,34.6c0.1,6.7,4.9,9.4,11.3,9.5c7.6,0,15.2,0,25.3,0c-10.2,10.6-15.5,23.2-29.4,26.1
	c-6.4,1.4-6.4,5.7-6.3,10.4c0.7,21.5,1.2,42.9,2.3,64.3c0.4,7.1-1.7,11.5-8.1,14.7C831.6,493.5,823.5,498.4,814.7,503.2z"/>
<path fill="#29449C" d="M1087.1,471.6c-11,20-28.1,30.4-47.6,34.9c-14,3.3-27.6-4.3-36.9-15c-14.3-16.4-23.6-35.3-17.4-58.1
	c1.8-6.7,5.1-13.2,9-19c15.7-23.4,35.2-40.9,65.6-40.4c15.6,0.2,26,7.4,28,19.9c0.6,3.6,0,8.4-2.1,11.1
	c-14.2,17.7-31.5,31.2-54.4,36.6c4.2-3.4,8.7-6.6,12.7-10.2c9.7-9,10.1-20.1,1.2-27.9c-10.5-9.3-21.6-8.8-28.8,3.1
	c-3.7,6-6.1,14.5-5,21.3c5.5,34.2,31.6,51,67.6,45C1081.3,472.4,1083.5,472.1,1087.1,471.6z"/>
<path fill="#29449C" d="M1155.4,370.3c2.3,12.2,4.3,22.9,6.7,35.9c5.1-5.2,9.2-9.8,13.8-13.8c8-7,16.3-13.8,24.9-20
	c1.6-1.2,6.2-0.6,7.6,0.9c4.5,4.9,9.2,10.1,12.1,16c5.4,11,4.3,13-5.9,19.9c-6.3,4.2-12.4,8.8-17.9,12.8c-5.1-4.6-9.8-9.5-15.3-13.2
	c-2.1-1.4-7.2-1.5-9,0c-7.6,6.3-11.9,14.5-11.8,24.8c0.1,15.6-0.1,31.3,0.2,46.9c0.1,5.2-1.4,8.4-6.3,10.8c-8.2,4-16,8.8-24.9,13.9
	c-0.3-3.5-0.7-6.1-0.8-8.7c-0.7-25.7-1.3-51.4-2-77.1c-0.3-12.7-0.9-13.2-13.9-13.4c-3.3-0.1-6.6,0-11.5,0
	C1116.2,388.3,1134.1,378.9,1155.4,370.3z"/>
<g>
	<path fill="#29449C" d="M290.7,646.8C156.3,649.3,45.2,536,47.4,398.5c2-129.9,108.2-242.9,248-240.6
		c131.3,2.1,239.3,111,238.8,246.2C533.7,536.6,425.7,649.1,290.7,646.8z M223.8,379.4c-25.6-5.5-51.2-11-76.8-16.3
		c-2-0.4-5.3,0.5-6.5,2.1c-11.5,14.5-22.6,29.3-33.8,44c0.7,1.3,1.3,2.7,2,4c45,4,90,8,135.3,12c-1.5,1.8-3,3.7-4.7,5.5
		c-29.5,30.7-64.7,53-102.9,71c-5.8,2.7-12.1,4.4-17.9,7.2c-2,0.9-4.7,4-4.4,5.4c3.5,14.7,7.6,29.3,11.7,44.8
		c29.7-17.3,58.7-33.7,81.4-58.2c16.6-17.9,31.2-37.6,46.9-56.4c1.6-1.9,4.2-3,6.3-4.5c1.1,1.9,2.8,3.6,3.1,5.6
		c5.2,33.2,10,66.4,15.4,99.5c2.1,12.6,6.3,24.6,15.5,34.6c10.5-7.2,9.4-17.2,8.9-27c-1.8-37-3.6-74-5.4-110.9
		c-0.1-1.8,0.5-3.7,0.6-4.4c19.3,22.8,37.8,46.5,58.3,68.3c22.5,23.8,49.7,41.7,79.7,55.3c6.3,2.9,9.8,3,11.4-5.2
		c1.9-9.9,4.7-19.6,8.1-29.1c3.1-8.6,0.6-12.8-7.9-15.3c-34.9-10.4-64.3-31-92.9-52.4c-15-11.2-28.1-24.7-42.1-37.2
		c0.6-1,1.2-1.9,1.8-2.9c10.6-1,21.2-1.5,31.7-3.1c35.3-5.3,70.7-10.4,105.8-16.9c8.1-1.5,17.4-5.2,22.8-17.7
		c-40,2.1-77.9,4.1-115.8,6.1c-0.3-0.9-0.5-1.8-0.8-2.8c10.1-10.2,20.1-20.6,30.3-30.7c7.2-7,7.5-10.8-0.7-16.9
		c-5.8-4.4-12.3-8-18.5-11.9c-6-3.8-9.9-2.1-13.1,4.1c-9.1,17.4-18.5,34.6-28,51.7c-1.3,2.3-3.9,5.5-5.9,5.6
		c-6.6,0.1-13.2-1.2-21.9-2.2c2.6-18.4,4.4-36.6,8.4-54.3c1-4.6,8.1-9,13.4-11.2c5.4-2.2,12-1.5,18.1-2.4c29.6-4.3,59.4-8,88.8-13.4
		c8-1.5,17.9-4.2,22-16.3c-44.5-5.1-87.6,9.8-132.8,3c3.5-14.1,6.3-28.2,10.5-41.8c2-6.5,0.9-10.4-4.6-13.7
		c-12.9-7.7-25.9-15.3-38.6-23.3c-4.7-2.9-8.7-6.8-14.1-11.2c-4,24.5-7.8,47.3-11.3,70.2c-2,12.8-2.9,13.9-15.5,11.8
		c-22.6-3.8-45.1-7.8-67.6-12.2c-7.8-1.5-14.1-0.2-18.6,6.4c-7.7,11.5-15.1,23.3-23.2,35.9c19.1,3.3,36.7,6.4,55.7,9.7
		c-8.5,11.2-15.5,20.5-24,31.7c8.2,0.8,13.6,1.3,19,1.8C202.8,356.4,215.9,363.9,223.8,379.4L223.8,379.4z"/>
	<path fill="#29449C" d="M223.8,379.4c2-2.6,5.3-5,5.7-7.9c2.1-14.5-3.4-26.9-12.3-38.1c-1.8-2.3-3.8-4.5-7-8.3
		c14.4,0.7,27,0.9,39.6,2.2c1.8,0.2,4.4,5.1,4.5,7.9c0.5,14.9,0.2,29.8,0.2,46.1C244.8,380.8,234.3,380.1,223.8,379.4
		C223.8,379.4,223.8,379.4,223.8,379.4z"/>
</g>
<g id="GvXnlK.tif">
	
		<image width="310" height="310" id="Layer_0_1_" xlink:href="3ADB60786BAD28CD.png"  transform="matrix(0.1129 0 0 0.1129 1220 530)">
	</image>
</g>
</svg>
