<svg xmlns="http://www.w3.org/2000/svg" xmlns:xlink="http://www.w3.org/1999/xlink" viewBox="0 0 2011.59 472.8"><defs><style>.cls-1,.cls-2{fill-rule:evenodd;}.cls-1{fill:url(#linear-gradient);}.cls-2{fill:url(#linear-gradient-2);}.cls-3{fill:url(#linear-gradient-3);}.cls-4{fill:url(#linear-gradient-4);}.cls-5{fill:url(#linear-gradient-5);}.cls-6{fill:url(#linear-gradient-6);}.cls-7{fill:#404040;}</style><linearGradient id="linear-gradient" x1="238.14" y1="470.75" x2="238.14" y2="-0.64" gradientUnits="userSpaceOnUse"><stop offset="0" stop-color="#5eb500"/><stop offset="1" stop-color="#c0f762"/></linearGradient><linearGradient id="linear-gradient-2" x1="118.82" y1="0.37" x2="118.82" y2="473.39" gradientUnits="userSpaceOnUse"><stop offset="0" stop-color="#878786"/><stop offset="1"/></linearGradient><linearGradient id="linear-gradient-3" x1="362.61" y1="166.78" x2="362.61" y2="74.45" xlink:href="#linear-gradient-2"/><linearGradient id="linear-gradient-4" x1="132.07" y1="83.33" x2="132.07" y2="131.85" xlink:href="#linear-gradient"/><linearGradient id="linear-gradient-5" x1="161.14" y1="212.93" x2="161.14" y2="380.69" xlink:href="#linear-gradient"/><linearGradient id="linear-gradient-6" x1="314.25" y1="377.62" x2="314.25" y2="214.33" xlink:href="#linear-gradient-2"/></defs><title>Asset 1</title><g id="Layer_2" data-name="Layer 2"><g id="图层_1" data-name="图层 1"><path class="cls-1" d="M474.66,116.46a202.78,202.78,0,0,0-2.76-30.9,102.62,102.62,0,0,0-9.85-29.38,98.28,98.28,0,0,0-18.48-25A100.15,100.15,0,0,0,418.12,13,107,107,0,0,0,388.25,3.3,213.91,213.91,0,0,0,356.82.41C352,.28,347.19,0,325.24,0h0l-4.67.17S139,.26,118.81.5A213.86,213.86,0,0,0,87.38,3.26,107.21,107.21,0,0,0,57.51,13,100,100,0,0,0,32.06,31.15a99,99,0,0,0-18.49,25A103.83,103.83,0,0,0,3.64,85.55,141,141,0,0,0,1,110.77v36.74H1V325.81H1v33.75A157.24,157.24,0,0,0,3.7,387.76a103.43,103.43,0,0,0,9.86,29.39,99.32,99.32,0,0,0,18.49,25,100.41,100.41,0,0,0,25.46,18.17A107,107,0,0,0,87.38,470a213.74,213.74,0,0,0,31.43,2.76c.91,0,1.82-.05,2.85-.05H349.91c2.1,0,4.39.08,6.91.05a213.72,213.72,0,0,0,31.43-2.74,107,107,0,0,0,29.87-9.7,100.15,100.15,0,0,0,25.45-18.18,98.63,98.63,0,0,0,18.48-25,102.68,102.68,0,0,0,9.85-29.39,202.78,202.78,0,0,0,2.76-30.9c.13-4.73.38-9.46.4-14.19,0-5.63.22-11.25.22-16.86V147.52c0-5.62-.18-11.25-.22-16.86C475,125.92,474.79,121.19,474.66,116.46Z"/><path class="cls-2" d="M237.64.37C186.15.39,128.83.45,118,.58A213.29,213.29,0,0,0,86.6,3.3,107.37,107.37,0,0,0,56.75,13,99.92,99.92,0,0,0,31.31,31.16a98.28,98.28,0,0,0-18.48,25A103.24,103.24,0,0,0,3,85.56a202.76,202.76,0,0,0-2.75,30.9c-.14,4.73-.18,9.46-.2,14.2,0,5.61,0,11.24,0,16.86V325.81c0,5.61,0,11.23,0,16.86,0,4.73.07,9.46.2,14.19A204.05,204.05,0,0,0,3,387.76a103.07,103.07,0,0,0,9.84,29.39,99.08,99.08,0,0,0,18.49,25,100.19,100.19,0,0,0,25.45,18.17A107,107,0,0,0,86.64,470a213.74,213.74,0,0,0,31.43,2.76c.91,0,1.82-.05,2.84-.05H237.64Z"/><path class="cls-3" d="M399.17,120.58a36.56,36.56,0,1,1-36.56-36.37A36.46,36.46,0,0,1,399.17,120.58Z"/><path class="cls-4" d="M178.7,107.35l.05-.1a97.08,97.08,0,0,0-94.35.49s0,.05,0,.09a20.33,20.33,0,0,0,19.15,35.86l0,.08a55.89,55.89,0,0,1,55.13-1l.07-.14a20.31,20.31,0,1,0,19.9-35.3Z"/><path class="cls-5" d="M237.64,215.2H113.81a29.28,29.28,0,0,0-29.34,29.19c0,1,0,1.91.14,2.84,0,0,0,.26,0,.29C91.2,319,135.69,382.13,237.8,382.13h-.16Z"/><path class="cls-6" d="M237.64,215.2h123.9a29.31,29.31,0,0,1,29.36,29.19c0,1,0,1.91-.12,2.84a2.81,2.81,0,0,1,0,.29c-6.6,71.51-51.08,134.62-153.18,134.62h0Z"/><path class="cls-7" d="M597.33,151.62h34.39V283.75h77.94V315H597.33Z"/><path class="cls-7" d="M732.66,152h35.73v30.14H732.66Zm.89,43.32h33.94V315H733.55Z"/><path class="cls-7" d="M799.43,195.31h33.94v17c7.82-10.05,17.87-19.2,35.06-19.2,25.68,0,40.65,17,40.65,44.44V315h-34V248.24c0-16.08-7.59-24.34-20.54-24.34s-21.22,8.26-21.22,24.34V315H799.43Z"/><path class="cls-7" d="M939.22,338.68l11.61-25.45c12.29,6.92,24.57,10.94,40.43,10.94,23.22,0,34.16-11.17,34.16-32.61v-5.8c-10.05,12.06-21,19.43-39.08,19.43-27.91,0-53.15-20.33-53.15-55.84v-.44c0-35.73,25.68-55.83,53.15-55.83,18.54,0,29.48,7.81,38.64,17.86V195.31h33.94V288c0,21.44-5.13,37.07-15.18,47.12-11.17,11.17-28.37,16.08-51.59,16.08C972.72,351.19,954.41,346.72,939.22,338.68Zm86.2-89.33v-.44c0-16.3-12.73-27.69-29.25-27.69s-29,11.39-29,27.69v.44c0,16.53,12.5,27.7,29,27.7S1025.42,265.66,1025.42,249.35Z"/><path class="cls-7" d="M1083.48,255.83v-.45c0-34.39,27.7-62.3,65-62.3,37.07,0,64.54,27.47,64.54,61.86v.44c0,34.4-27.69,62.31-65,62.31C1111,317.69,1083.48,290.22,1083.48,255.83Zm96,0v-.45c0-17.64-12.73-33-31.49-33-19.43,0-31,15-31,32.61v.44c0,17.65,12.73,33.06,31.49,33.06C1167.9,288.44,1179.51,273.47,1179.51,255.83Z"/><path class="cls-7" d="M1234.22,237.29v-.44c0-44.44,33.5-80.84,81.52-80.84,29.47,0,47.12,9.82,61.63,24.11l-21.88,25.24c-12.06-10.94-24.35-17.64-40-17.64-26.35,0-45.33,21.88-45.33,48.68v.45c0,26.8,18.53,49.13,45.33,49.13,17.87,0,28.81-7.15,41.09-18.31l21.89,22.11c-16.08,17.19-34,27.91-64.1,27.91C1268.39,317.69,1234.22,282.18,1234.22,237.29Z"/><path class="cls-7" d="M1402.38,152.28h33.94v60c7.82-10.05,17.87-19.2,35.07-19.2,25.68,0,40.64,17,40.64,44.44V315h-33.94V248.24c0-16.08-7.6-24.34-20.55-24.34s-21.22,8.26-21.22,24.34V315h-33.94Z"/><path class="cls-7" d="M1534.36,280.62v-.45c0-26.13,19.87-38.18,48.24-38.18a85.08,85.08,0,0,1,29.25,4.91v-2c0-14.07-8.71-21.89-25.68-21.89-13,0-22.11,2.46-33.05,6.48l-8.49-25.91c13.18-5.8,26.13-9.6,46.45-9.6,18.54,0,31.94,4.91,40.42,13.4,8.94,8.93,13,22.11,13,38.19V315h-32.83V302.06c-8.26,9.16-19.65,15.18-36.18,15.18C1552.89,317.24,1534.36,304.29,1534.36,280.62Zm77.94-7.82v-6a52.65,52.65,0,0,0-21.66-4.46c-14.52,0-23.45,5.8-23.45,16.52v.45c0,9.16,7.59,14.52,18.53,14.52C1601.58,293.8,1612.3,285.09,1612.3,272.8Z"/><path class="cls-7" d="M1673.71,195.31h34v17c7.81-10.05,18.08-19.2,35.28-19.2,15.63,0,27.47,6.92,33.72,19,10.5-12.28,23-19,39.31-19,25.23,0,40.42,15.18,40.42,44V315h-34V248.24c0-16.08-7.14-24.34-19.87-24.34S1782,232.16,1782,248.24V315h-33.94V248.24c0-16.08-7.15-24.34-19.88-24.34s-20.54,8.26-20.54,24.34V315h-34Z"/><path class="cls-7" d="M1885.86,195.31h34v17.2c8.26-11.17,19.65-19.43,37.29-19.43,27.92,0,54.49,21.88,54.49,61.86v.44c0,40-26.12,61.86-54.49,61.86-18.09,0-29.25-8.26-37.29-17.86v51.36h-34Zm91.79,60.07v-.44c0-19.88-13.4-33.05-29.26-33.05s-29,13.17-29,33.05v.44c0,19.88,13.18,33.06,29,33.06S1977.65,275.48,1977.65,255.38Z"/></g></g></svg>