<?xml version="1.0" encoding="utf-8"?>
<!-- Generator: Adobe Illustrator 21.1.0, SVG Export Plug-In . SVG Version: 6.00 Build 0)  -->
<svg version="1.1" id="Layer_1" xmlns="http://www.w3.org/2000/svg" xmlns:xlink="http://www.w3.org/1999/xlink" x="0px" y="0px"
	 viewBox="0 0 163 59" enable-background="new 0 0 163 59" xml:space="preserve">
<g>
	<g>
		<g>
			<circle fill-rule="evenodd" clip-rule="evenodd" cx="32.526" cy="30" r="28.022"/>
		</g>
	</g>
	<g>
		<g>
			<g>
				<g>
					<path fill="#FFFFFF" d="M16.768,40.5v-21h7.022c1.236,0,2.18,0.067,2.832,0.202c0.914,0.175,1.68,0.505,2.298,0.993
						c0.617,0.489,1.115,1.171,1.492,2.049c0.376,0.879,0.565,1.844,0.565,2.897c0,1.805-0.504,3.333-1.512,4.584
						c-1.007,1.25-2.827,1.875-5.46,1.875h-4.838v8.4H16.768z M19.168,29.4h4.756c1.573,0,2.689-0.334,3.35-1.001
						c0.661-0.668,0.991-1.609,0.991-2.82c0-0.878-0.195-1.629-0.583-2.255c-0.389-0.625-0.902-1.038-1.537-1.238
						c-0.41-0.124-1.167-0.186-2.272-0.186h-4.705V29.4z"/>
				</g>
				<path fill="#FFFFFF" d="M42.268,32.7h3.3v3.48c0,0.525-0.954,1.021-1.918,1.484c-0.966,0.464-1.816,0.696-2.83,0.696
					c-1.165,0-2.197-0.306-3.233-0.917c-1.038-0.612-1.794-1.549-2.336-2.81c-0.542-1.262-0.797-2.829-0.797-4.703
					c0-1.519,0.234-2.93,0.684-4.23c0.265-0.755,0.642-1.448,1.12-2.078c0.477-0.631,1.109-1.141,1.889-1.528
					c0.78-0.387,1.705-0.58,2.774-0.58c0.892,0,1.706,0.184,2.438,0.552c0.732,0.369,1.294,0.858,1.688,1.469
					c0.082,0.129,0.162,0.274,0.239,0.424l1.869-1.433c-0.11-0.208-0.223-0.411-0.347-0.596c-0.587-0.879-1.397-1.564-2.43-2.057
					c-1.032-0.492-2.188-0.739-3.467-0.739c-1.76,0-3.316,0.43-4.666,1.291c-1.351,0.86-2.386,2.176-3.106,3.95
					c-0.719,1.773-1.079,3.683-1.079,5.728c0,2.065,0.362,3.934,1.086,5.607c0.723,1.672,1.795,2.951,3.213,3.835
					c1.419,0.884,2.997,1.326,4.733,1.326c1.286,0,2.469-0.275,3.691-0.825c1.222-0.55,2.585-1.369,3.485-2.459V29.7l-6,0.012V32.7z
					"/>
			</g>
		</g>
	</g>
</g>
<g>
	<path d="M70.558,27.16c-0.468,0.168-1.391,0.444-2.482,0.444c-1.224,0-2.231-0.312-3.022-1.067
		c-0.695-0.672-1.127-1.751-1.127-3.01c0.012-2.411,1.667-4.174,4.378-4.174c0.935,0,1.667,0.204,2.015,0.372l-0.252,0.852
		c-0.432-0.192-0.971-0.348-1.787-0.348c-1.967,0-3.25,1.223-3.25,3.25c0,2.051,1.235,3.262,3.118,3.262
		c0.684,0,1.151-0.096,1.391-0.216v-2.411h-1.643v-0.839h2.663V27.16z"/>
	<path d="M72.121,23.526c0-0.684-0.012-1.271-0.048-1.811h0.923l0.036,1.139h0.048c0.264-0.779,0.899-1.271,1.607-1.271
		c0.12,0,0.204,0.012,0.3,0.036v0.996c-0.108-0.024-0.216-0.036-0.359-0.036c-0.744,0-1.271,0.564-1.416,1.355
		c-0.024,0.144-0.048,0.312-0.048,0.492v3.094h-1.043V23.526z"/>
	<path d="M81.178,24.57c0,2.146-1.487,3.082-2.89,3.082c-1.571,0-2.783-1.151-2.783-2.986c0-1.943,1.271-3.082,2.878-3.082
		C80.051,21.583,81.178,22.794,81.178,24.57z M76.572,24.629c0,1.271,0.732,2.231,1.763,2.231c1.007,0,1.763-0.947,1.763-2.255
		c0-0.983-0.492-2.23-1.739-2.23C77.112,22.375,76.572,23.526,76.572,24.629z"/>
	<path d="M82.85,21.715l0.768,2.95c0.168,0.648,0.323,1.248,0.432,1.847h0.035c0.133-0.588,0.324-1.211,0.516-1.835l0.947-2.962
		h0.889l0.898,2.902c0.217,0.696,0.385,1.307,0.516,1.895h0.037c0.096-0.588,0.252-1.199,0.443-1.883l0.828-2.914h1.043L88.33,27.52
		h-0.959l-0.889-2.771c-0.203-0.647-0.371-1.223-0.516-1.907h-0.023c-0.145,0.695-0.324,1.295-0.527,1.919L84.48,27.52h-0.96
		l-1.751-5.805H82.85z"/>
	<path d="M92.533,20.048v1.667h1.511v0.803h-1.511v3.13c0,0.72,0.203,1.127,0.791,1.127c0.275,0,0.479-0.036,0.611-0.072
		l0.049,0.792c-0.205,0.084-0.528,0.144-0.936,0.144c-0.492,0-0.889-0.156-1.141-0.444c-0.299-0.312-0.407-0.828-0.407-1.511v-3.167
		h-0.899v-0.803h0.899v-1.391L92.533,20.048z"/>
	<path d="M95.233,19.005h1.056v3.622h0.023c0.168-0.3,0.432-0.564,0.756-0.744c0.312-0.18,0.684-0.3,1.08-0.3
		c0.779,0,2.026,0.479,2.026,2.482v3.454h-1.056v-3.334c0-0.936-0.348-1.727-1.344-1.727c-0.684,0-1.223,0.479-1.414,1.055
		c-0.061,0.144-0.072,0.3-0.072,0.504v3.502h-1.056V19.005z"/>
	<path d="M110.123,27.256c-0.385,0.192-1.152,0.384-2.135,0.384c-2.279,0-3.994-1.439-3.994-4.09c0-2.531,1.715-4.246,4.221-4.246
		c1.008,0,1.644,0.216,1.92,0.36l-0.252,0.851c-0.396-0.191-0.96-0.335-1.631-0.335c-1.896,0-3.154,1.211-3.154,3.334
		c0,1.979,1.139,3.25,3.105,3.25c0.636,0,1.283-0.132,1.703-0.336L110.123,27.256z"/>
	<path d="M116.519,24.57c0,2.146-1.487,3.082-2.89,3.082c-1.572,0-2.783-1.151-2.783-2.986c0-1.943,1.271-3.082,2.879-3.082
		C115.392,21.583,116.519,22.794,116.519,24.57z M111.913,24.629c0,1.271,0.731,2.231,1.763,2.231c1.008,0,1.764-0.947,1.764-2.255
		c0-0.983-0.492-2.23-1.739-2.23S111.913,23.526,111.913,24.629z"/>
	<path d="M117.854,23.286c0-0.6-0.012-1.091-0.048-1.571h0.936l0.06,0.959h0.024c0.288-0.552,0.96-1.091,1.919-1.091
		c0.803,0,2.051,0.479,2.051,2.47v3.466h-1.056v-3.346c0-0.936-0.348-1.715-1.343-1.715c-0.695,0-1.236,0.492-1.416,1.079
		c-0.047,0.132-0.071,0.312-0.071,0.492v3.49h-1.056V23.286z"/>
	<path d="M124.369,26.44c0.312,0.204,0.864,0.42,1.393,0.42c0.768,0,1.127-0.384,1.127-0.863c0-0.504-0.301-0.78-1.08-1.067
		c-1.043-0.372-1.535-0.948-1.535-1.644c0-0.935,0.756-1.703,2.004-1.703c0.587,0,1.103,0.167,1.427,0.359l-0.265,0.768
		c-0.227-0.144-0.646-0.335-1.187-0.335c-0.624,0-0.972,0.36-0.972,0.792c0,0.479,0.348,0.695,1.104,0.983
		c1.008,0.384,1.523,0.888,1.523,1.751c0,1.02-0.792,1.739-2.172,1.739c-0.635,0-1.223-0.156-1.631-0.396L124.369,26.44z"/>
	<path d="M134.123,25.937c0,0.6,0.012,1.127,0.048,1.583h-0.936l-0.06-0.947h-0.024c-0.276,0.467-0.888,1.079-1.919,1.079
		c-0.911,0-2.003-0.503-2.003-2.542v-3.394h1.056v3.214c0,1.103,0.336,1.847,1.295,1.847c0.708,0,1.199-0.492,1.392-0.959
		c0.06-0.156,0.096-0.348,0.096-0.54v-3.562h1.056V25.937z"/>
	<path d="M135.877,19.005h1.057v8.515h-1.057V19.005z"/>
	<path d="M139.98,20.048v1.667h1.512v0.803h-1.512v3.13c0,0.72,0.204,1.127,0.792,1.127c0.276,0,0.479-0.036,0.611-0.072
		l0.048,0.792c-0.203,0.084-0.527,0.144-0.936,0.144c-0.491,0-0.887-0.156-1.139-0.444c-0.301-0.312-0.408-0.828-0.408-1.511v-3.167
		h-0.899v-0.803h0.899v-1.391L139.98,20.048z"/>
	<path d="M143.857,20.084c0.012,0.36-0.252,0.648-0.672,0.648c-0.372,0-0.636-0.288-0.636-0.648c0-0.372,0.276-0.66,0.659-0.66
		C143.605,19.424,143.857,19.712,143.857,20.084z M142.682,27.52v-5.805h1.056v5.805H142.682z"/>
	<path d="M145.49,23.286c0-0.6-0.013-1.091-0.049-1.571h0.936l0.061,0.959h0.023c0.288-0.552,0.96-1.091,1.92-1.091
		c0.803,0,2.051,0.479,2.051,2.47v3.466h-1.057v-3.346c0-0.936-0.348-1.715-1.343-1.715c-0.695,0-1.235,0.492-1.415,1.079
		c-0.048,0.132-0.072,0.312-0.072,0.492v3.49h-1.055V23.286z"/>
	<path d="M157.15,21.715c-0.023,0.419-0.048,0.887-0.048,1.595v3.37c0,1.331-0.264,2.146-0.827,2.65
		c-0.564,0.528-1.379,0.696-2.111,0.696c-0.695,0-1.463-0.168-1.931-0.48l0.264-0.804c0.384,0.24,0.983,0.456,1.703,0.456
		c1.079,0,1.871-0.564,1.871-2.027v-0.648h-0.024c-0.323,0.54-0.947,0.972-1.847,0.972c-1.438,0-2.471-1.224-2.471-2.831
		c0-1.967,1.284-3.082,2.614-3.082c1.008,0,1.56,0.527,1.812,1.007h0.024l0.048-0.875H157.15z M156.06,24.006
		c0-0.18-0.013-0.336-0.06-0.479c-0.192-0.612-0.709-1.116-1.477-1.116c-1.007,0-1.727,0.852-1.727,2.195
		c0,1.14,0.576,2.087,1.715,2.087c0.648,0,1.236-0.408,1.464-1.079c0.06-0.18,0.084-0.384,0.084-0.564V24.006z"/>
	<path d="M64.405,33.836h4.354v0.876h-3.31v2.687h3.058v0.863h-3.058v3.658h-1.043V33.836z"/>
	<path d="M75.094,38.97c0,2.146-1.487,3.082-2.89,3.082c-1.571,0-2.783-1.151-2.783-2.986c0-1.942,1.271-3.082,2.878-3.082
		C73.967,35.983,75.094,37.194,75.094,38.97z M70.489,39.029c0,1.271,0.732,2.23,1.763,2.23c1.007,0,1.763-0.947,1.763-2.254
		c0-0.984-0.492-2.23-1.739-2.23C71.029,36.775,70.489,37.926,70.489,39.029z"/>
	<path d="M76.429,37.926c0-0.684-0.012-1.271-0.048-1.811h0.923l0.036,1.139h0.048c0.264-0.779,0.899-1.271,1.607-1.271
		c0.12,0,0.204,0.012,0.3,0.036v0.995c-0.108-0.024-0.216-0.036-0.36-0.036c-0.744,0-1.271,0.564-1.416,1.355
		c-0.024,0.145-0.048,0.312-0.048,0.492v3.094h-1.043V37.926z"/>
	<path d="M83.977,34.724h-2.459v-0.888h5.984v0.888h-2.471v7.196h-1.055V34.724z"/>
	<path d="M88.105,39.209c0.023,1.428,0.935,2.016,1.99,2.016c0.756,0,1.211-0.133,1.607-0.301l0.18,0.756
		c-0.372,0.168-1.008,0.36-1.932,0.36c-1.787,0-2.854-1.176-2.854-2.927s1.031-3.13,2.723-3.13c1.895,0,2.398,1.667,2.398,2.734
		c0,0.216-0.024,0.384-0.036,0.491H88.105z M91.199,38.453c0.012-0.671-0.275-1.715-1.463-1.715c-1.068,0-1.535,0.984-1.619,1.715
		H91.199z"/>
	<path d="M97.666,41.704C97.391,41.848,96.779,42.04,96,42.04c-1.752,0-2.891-1.188-2.891-2.962c0-1.787,1.223-3.083,3.118-3.083
		c0.624,0,1.175,0.155,1.463,0.3l-0.239,0.815c-0.252-0.144-0.648-0.275-1.224-0.275c-1.331,0-2.052,0.983-2.052,2.194
		c0,1.344,0.864,2.171,2.016,2.171c0.6,0,0.996-0.155,1.295-0.288L97.666,41.704z"/>
	<path d="M98.904,33.404h1.057v3.622h0.023c0.168-0.3,0.432-0.563,0.756-0.743c0.312-0.18,0.684-0.3,1.079-0.3
		c0.779,0,2.026,0.479,2.026,2.482v3.454h-1.055v-3.334c0-0.936-0.348-1.727-1.344-1.727c-0.684,0-1.223,0.479-1.415,1.055
		c-0.06,0.145-0.071,0.3-0.071,0.504v3.502h-1.057V33.404z"/>
	<path d="M108.001,40.648c0.468,0.288,1.151,0.527,1.871,0.527c1.067,0,1.69-0.562,1.69-1.379c0-0.756-0.432-1.188-1.522-1.607
		c-1.319-0.467-2.135-1.15-2.135-2.29c0-1.259,1.043-2.194,2.614-2.194c0.828,0,1.428,0.191,1.787,0.395l-0.288,0.852
		c-0.264-0.144-0.804-0.383-1.535-0.383c-1.103,0-1.522,0.659-1.522,1.211c0,0.756,0.491,1.127,1.606,1.559
		c1.367,0.528,2.063,1.188,2.063,2.375c0,1.248-0.924,2.327-2.831,2.327c-0.779,0-1.631-0.228-2.062-0.517L108.001,40.648z"/>
	<path d="M115.261,34.448v1.667h1.511v0.803h-1.511v3.131c0,0.72,0.204,1.127,0.792,1.127c0.275,0,0.479-0.035,0.611-0.071
		l0.048,0.792c-0.204,0.084-0.528,0.144-0.936,0.144c-0.491,0-0.888-0.156-1.14-0.444c-0.3-0.312-0.408-0.827-0.408-1.511v-3.167
		h-0.898v-0.803h0.898v-1.392L115.261,34.448z"/>
	<path d="M121.176,41.92l-0.084-0.731h-0.037c-0.323,0.456-0.947,0.863-1.774,0.863c-1.175,0-1.774-0.827-1.774-1.667
		c0-1.403,1.246-2.171,3.489-2.158v-0.121c0-0.479-0.132-1.343-1.319-1.343c-0.539,0-1.104,0.168-1.511,0.432l-0.24-0.695
		c0.479-0.312,1.176-0.516,1.907-0.516c1.775,0,2.207,1.211,2.207,2.374v2.172c0,0.503,0.023,0.994,0.096,1.391H121.176z
		 M121.02,38.957c-1.151-0.023-2.459,0.181-2.459,1.308c0,0.684,0.456,1.008,0.996,1.008c0.755,0,1.234-0.479,1.402-0.972
		c0.036-0.107,0.061-0.229,0.061-0.336V38.957z"/>
	<path d="M123.745,37.926c0-0.684-0.012-1.271-0.048-1.811h0.924l0.035,1.139h0.049c0.264-0.779,0.898-1.271,1.606-1.271
		c0.12,0,0.204,0.012,0.3,0.036v0.995c-0.107-0.024-0.216-0.036-0.359-0.036c-0.744,0-1.271,0.564-1.416,1.355
		c-0.023,0.145-0.047,0.312-0.047,0.492v3.094h-1.044V37.926z"/>
	<path d="M129.229,34.448v1.667h1.511v0.803h-1.511v3.131c0,0.72,0.203,1.127,0.791,1.127c0.275,0,0.479-0.035,0.611-0.071
		l0.049,0.792c-0.205,0.084-0.528,0.144-0.936,0.144c-0.492,0-0.889-0.156-1.141-0.444c-0.299-0.312-0.407-0.827-0.407-1.511v-3.167
		h-0.899v-0.803h0.899v-1.392L129.229,34.448z"/>
	<path d="M136.785,40.337c0,0.6,0.012,1.128,0.049,1.583h-0.936l-0.061-0.947h-0.023c-0.276,0.468-0.888,1.079-1.92,1.079
		c-0.91,0-2.002-0.503-2.002-2.542v-3.395h1.055v3.214c0,1.104,0.336,1.847,1.296,1.847c0.708,0,1.199-0.491,1.392-0.959
		c0.06-0.156,0.096-0.348,0.096-0.539v-3.562h1.055V40.337z"/>
	<path d="M138.54,38.01c0-0.743-0.024-1.343-0.048-1.895h0.947l0.048,0.995h0.024c0.432-0.708,1.115-1.127,2.062-1.127
		c1.403,0,2.459,1.187,2.459,2.95c0,2.087-1.271,3.118-2.639,3.118c-0.768,0-1.439-0.336-1.787-0.911h-0.023v3.154h-1.044V38.01z
		 M139.584,39.557c0,0.156,0.023,0.301,0.047,0.432c0.192,0.732,0.828,1.236,1.584,1.236c1.115,0,1.763-0.912,1.763-2.243
		c0-1.163-0.611-2.159-1.728-2.159c-0.719,0-1.391,0.516-1.595,1.308c-0.036,0.132-0.071,0.288-0.071,0.432V39.557z"/>
	<path d="M145.224,40.84c0.312,0.205,0.864,0.42,1.392,0.42c0.768,0,1.127-0.383,1.127-0.863c0-0.504-0.3-0.779-1.079-1.067
		c-1.044-0.372-1.535-0.947-1.535-1.644c0-0.935,0.755-1.702,2.003-1.702c0.588,0,1.104,0.167,1.428,0.359l-0.265,0.768
		c-0.228-0.144-0.647-0.335-1.187-0.335c-0.625,0-0.973,0.359-0.973,0.791c0,0.479,0.348,0.695,1.104,0.983
		c1.008,0.384,1.523,0.888,1.523,1.751c0,1.02-0.791,1.739-2.171,1.739c-0.636,0-1.224-0.156-1.631-0.396L145.224,40.84z"/>
</g>
</svg>
