<svg xmlns="http://www.w3.org/2000/svg" viewBox="0 0 302.84 75.12"><defs><style>.cls-1{fill:#2d8cf0;}.cls-2{fill:#fff;}.cls-3{fill:#2df5be;}</style></defs><title>Asset 1</title><g id="Layer_2" data-name="Layer 2"><g id="Layer_1-2" data-name="Layer 1"><path class="cls-1" d="M12.72,0H290.11a12.72,12.72,0,0,1,12.72,12.72V62.39a12.72,12.72,0,0,1-12.72,12.72H0a0,0,0,0,1,0,0V12.72A12.72,12.72,0,0,1,12.72,0Z"/><path class="cls-2" d="M195.26,19.75H184.61V53.5h10.55c11.68,0,16.59-8.16,16.59-17.16S207.23,19.75,195.26,19.75ZM195,47.37h-3.45V25.88H195c7.54,0,9.63,4.28,9.63,10.46C204.65,42.08,202.85,47.37,195,47.37Z"/><path class="cls-2" d="M233.83,32.64h-.2a8.17,8.17,0,0,0-7.1-3.65c-5.94,0-11.09,4.77-11.09,12.27,0,8.8,6.08,12.45,10.6,12.45a8.91,8.91,0,0,0,7.59-3.7h.2v2.92h6.32V29.62h-6.32ZM228.09,48c-4.09,0-6-3.31-6-6.72s2-6.71,6-6.71c3.26,0,5.79,2.67,5.79,6.76C233.93,45.29,231.2,48,228.09,48Z"/><path class="cls-2" d="M253.65,44.22v-9h5.5V29.62h-5.5V22.18H247v7.44h-2.82v5.55H247V44.9c0,5.06,1.94,8.37,7.78,8.37a18.51,18.51,0,0,0,4.58-.63V47.29a11.17,11.17,0,0,1-2.83.39C254.48,47.68,253.65,47,253.65,44.22Z"/><path class="cls-2" d="M280.5,29.62v3h-.19A8.21,8.21,0,0,0,273.2,29c-5.93,0-11.09,4.77-11.09,12.27,0,8.8,6.08,12.45,10.61,12.45a8.94,8.94,0,0,0,7.59-3.7h.19v2.92h6.33V29.62ZM274.76,48c-4.09,0-6-3.31-6-6.72s1.94-6.71,6-6.71c3.26,0,5.79,2.67,5.79,6.76C280.6,45.29,277.87,48,274.76,48Z"/><path class="cls-2" d="M61.23,32.64H61A8.17,8.17,0,0,0,53.93,29C48,29,42.84,33.76,42.84,41.26c0,8.8,6.08,12.45,10.6,12.45A8.91,8.91,0,0,0,61,50h.2v2.92h6.32V29.62H61.23ZM55.49,48c-4.09,0-6-3.31-6-6.72s2-6.71,6-6.71c3.26,0,5.79,2.67,5.79,6.76C61.33,45.29,58.6,48,55.49,48Z"/><rect class="cls-2" x="74.27" y="17.87" width="6.57" height="35.04"/><polygon class="cls-2" points="109.41 29.62 101.43 29.62 94.03 37.51 94.03 17.9 87.47 17.9 87.47 52.93 94.03 52.93 94.03 44.81 95.54 43.35 102.89 52.93 110.82 52.93 100.07 39.21 109.41 29.62"/><rect class="cls-2" x="113.92" y="29.62" width="6.57" height="23.31"/><path class="cls-2" d="M140.1,28.89a7.86,7.86,0,0,0-6.91,3.65H133V29.62h-6.48V52.93h6.57V40.62c0-3.89,2.1-5.93,5-5.93,2.72,0,4.38,1.8,4.38,5.3V52.93H149V39.55C149,32.4,145.36,28.89,140.1,28.89Z"/><rect class="cls-2" x="113.68" y="18.97" width="7.06" height="6.41"/><path class="cls-2" d="M172.05,32.45h-.24a8.3,8.3,0,0,0-7.06-3.56c-6.47,0-11.29,5.31-11.29,12.32,0,7.54,5,12.26,11,12.26a9.21,9.21,0,0,0,7.45-3.36H172v2c0,5.18-3.42,7.22-7.31,7.22a11.67,11.67,0,0,1-6.92-2.29l-3,4.08A15.71,15.71,0,0,0,165.43,65c7.52,0,12.75-4.29,12.75-12.11V29.62h-6.13Zm-6,15.28c-4.09,0-5.94-3.36-5.94-6.57s2-6.57,6-6.57c3.3,0,5.88,2.63,5.88,6.62C172,45.05,169.33,47.73,166.07,47.73Z"/><path class="cls-2" d="M25.13,17.9a1.56,1.56,0,0,0-1.56,1.56v3.69A1.54,1.54,0,0,0,25.1,24.7h3.39V52.93h6.58V24.7H45.65a1.54,1.54,0,0,0,1.54-1.55V17.9Z"/><path class="cls-3" d="M14.39,17.9h5.25a1.56,1.56,0,0,1,1.56,1.56v3.69a1.56,1.56,0,0,1-1.56,1.56H16a1.56,1.56,0,0,1-1.56-1.56V17.9A0,0,0,0,1,14.39,17.9Z"/></g></g></svg>