<svg xmlns="http://www.w3.org/2000/svg" xmlns:xlink="http://www.w3.org/1999/xlink" viewBox="0 0 347.94 72.44"><defs><style>.cls-1{fill:#0563bf;}.cls-2{fill:url(#未命名的渐变_64);}</style><linearGradient id="未命名的渐变_64" x1="69.06" y1="4.03" x2="33.63" y2="38.28" gradientTransform="translate(100.81 3.97) rotate(135)" gradientUnits="userSpaceOnUse"><stop offset="0.58" stop-color="#0563bf"/><stop offset="1" stop-color="#04368b"/></linearGradient></defs><title>Asset 1</title><g id="Layer_2" data-name="Layer 2"><g id="图层_1" data-name="图层 1"><path class="cls-1" d="M52.69,39.29,46,46a13.81,13.81,0,0,1-19.4.14l-.22-.19-.11-.15-6.54-6.54L2.9,56.07a9.67,9.67,0,0,0,0,13.72,9.49,9.49,0,0,0,13.3-.13l15-15a7,7,0,0,1,9.94,0L56,69.51a9.66,9.66,0,0,0,13.71,0,9.49,9.49,0,0,0-.12-13.3Z"/><rect class="cls-2" x="40.08" y="-5.53" width="19" height="56.79" rx="9.5" transform="translate(68.48 74.09) rotate(-135)"/><path class="cls-1" d="M57.48,28.4a11.09,11.09,0,0,1-15.34.31L16.22,2.78a9.51,9.51,0,0,0-13.44,0h0a9.51,9.51,0,0,0,0,13.44L29.5,42.94a9.51,9.51,0,0,0,13.44,0h0Z"/><path class="cls-1" d="M231.66,26.63a20,20,0,1,0,20,20A20,20,0,0,0,231.66,26.63Zm0,31.36a11.39,11.39,0,1,1,11.4-11.39A11.4,11.4,0,0,1,231.66,58Z"/><path class="cls-1" d="M175.49,26.52c-8.33,0-14.85,5.25-14.85,12s6.52,12,14.84,12c4.09,0,6.83,2.22,6.83,4.3S179.57,59,175.49,59c-3.59,0-6.26-1.63-7-3.36h-7.83c.57,6.26,6.87,11,14.81,11,8.32,0,14.84-5.25,14.84-12,0-6.95-5.83-11.65-14.86-11.95-4.17,0-6.75-2.19-6.75-4.22,0-1.83,2.35-4.36,6.77-4.36,3.59,0,6.25,1.63,7,3.36h7.82C189.72,31.29,183.42,26.52,175.49,26.52Z"/><path class="cls-1" d="M277.72,35.64A8,8,0,0,1,283.27,43V65.25h8.58V43a16.51,16.51,0,0,0-4.57-11.86c-2.94-2.94-6.58-4.49-11.83-4.49a14,14,0,0,0-7.2,2c-1.39.9-1.55,1.21-1.55,1.21V26.63H258V65.25h8.75V43.05a8.29,8.29,0,0,1,1.84-4.8A8.12,8.12,0,0,1,277.72,35.64Z"/><rect class="cls-1" x="145.58" y="27.95" width="8.75" height="37.3"/><path class="cls-1" d="M150,11.82a5.27,5.27,0,1,0,5.27,5.27A5.28,5.28,0,0,0,150,11.82Z"/><rect class="cls-1" x="196.63" y="27.95" width="8.75" height="37.3"/><path class="cls-1" d="M201,11.82a5.27,5.27,0,1,0,5.27,5.27A5.28,5.28,0,0,0,201,11.82Z"/><polygon class="cls-1" points="347.94 13.68 337.25 13.68 324.05 32.52 310.86 13.68 300.17 13.68 318.71 40.15 301.14 65.25 311.82 65.25 324.05 47.78 336.29 65.25 346.97 65.25 329.4 40.15 347.94 13.68"/><polygon class="cls-1" points="129.65 13.68 113.24 54.6 96.76 13.68 87.33 13.68 108.1 65.25 118.39 65.25 139.07 13.68 129.65 13.68"/></g></g></svg>