<?xml version="1.0" encoding="UTF-8" standalone="no"?>
<!-- Created with Inkscape (http://www.inkscape.org/) -->

<svg
   xmlns:dc="http://purl.org/dc/elements/1.1/"
   xmlns:cc="http://creativecommons.org/ns#"
   xmlns:rdf="http://www.w3.org/1999/02/22-rdf-syntax-ns#"
   xmlns:svg="http://www.w3.org/2000/svg"
   xmlns="http://www.w3.org/2000/svg"
   xmlns:sodipodi="http://sodipodi.sourceforge.net/DTD/sodipodi-0.dtd"
   xmlns:inkscape="http://www.inkscape.org/namespaces/inkscape"
   version="1.1"
   id="svg54"
   xml:space="preserve"
   width="128"
   height="48"
   viewBox="0 0 128 48"
   sodipodi:docname="earthai_logo.svg"
   inkscape:version="0.92.3 (2405546, 2018-03-11)"><metadata
     id="metadata60"><rdf:RDF><cc:Work
         rdf:about=""><dc:format>image/svg+xml</dc:format><dc:type
           rdf:resource="http://purl.org/dc/dcmitype/StillImage" /><dc:title></dc:title></cc:Work></rdf:RDF></metadata><defs
     id="defs58" /><sodipodi:namedview
     pagecolor="#ffffff"
     bordercolor="#666666"
     borderopacity="1"
     objecttolerance="10"
     gridtolerance="10"
     guidetolerance="10"
     inkscape:pageopacity="0"
     inkscape:pageshadow="2"
     inkscape:window-width="2109"
     inkscape:window-height="1156"
     id="namedview56"
     showgrid="false"
     inkscape:zoom="4.4140625"
     inkscape:cx="64"
     inkscape:cy="24"
     inkscape:window-x="0"
     inkscape:window-y="0"
     inkscape:window-maximized="0"
     inkscape:current-layer="g62" /><g
     id="g62"
     inkscape:groupmode="layer"
     inkscape:label="ink_ext_XXXXXX"
     transform="matrix(1.3333333,0,0,-1.3333333,0,48)"><g
       id="g64"
       transform="scale(0.1)"><path
         d="M 56.5195,115.82 C 54.4883,108.98 51.4492,98.3203 50.6992,96.0508 49.4102,92.6211 46.6406,88.8281 40.7813,88.8281 H 0.160156 V 347.578 c 0.269532,4.184 2.570314,7.582 5.578124,7.582 H 53.2383 L 47.1484,335.391 C 46.1289,331.949 43.3203,327.77 37.5,327.77 H 22.7695 c -2.539,0 -4.289,-2.649 -4.289,-6.481 V 242.148 H 45.8594 C 43.8711,235.309 40.7813,224.301 40.0391,221.988 38.75,218.551 36.25,214.77 30.3906,214.77 h -7.6211 c -2.2578,0 -4.289,-3.051 -4.289,-6.489 V 115.82 Z"
         style="fill:#000000;fill-opacity:1;fill-rule:nonzero;stroke:none"
         id="path66"
         inkscape:connector-curvature="0" /><path
         d="M 185.512,88.8281 H 165.941 L 150.309,272.23 134.73,88.8281 H 115.121 L 141.41,355.16 h 9.641 c 7.469,0 8.679,-7.23 9.418,-14.461 z"
         style="fill:#000000;fill-opacity:1;fill-rule:nonzero;stroke:none"
         id="path68"
         inkscape:connector-curvature="0" /><path
         d="m 298.871,88.8281 v 97.3829 c 0,12.969 -4.57,17.148 -9.383,17.148 h -9.609 V 88.8281 H 261.68 V 355.16 h 33.121 c 12.148,0 22.269,-14.851 22.269,-33.48 v -82.192 c 0,0 0.782,-20.937 -6.558,-23.59 7.066,-5.308 6.558,-25.117 6.558,-25.117 V 88.7891 Z m -9.383,140.3909 c 4.813,0 9.383,3.051 9.383,15.23 v 71.531 c 0,9.879 -4.57,13.711 -9.383,13.711 h -9.609 V 229.219 Z"
         style="fill:#000000;fill-opacity:1;fill-rule:nonzero;stroke:none"
         id="path70"
         inkscape:connector-curvature="0" /><path
         d="m 478.871,333.199 c -1.141,-3.398 -4.223,-7.219 -10.672,-7.219 h -15.738 c -2.813,0 -4.801,-3.05 -5.082,-6.449 V 86.6406 h -14.328 c -4.77,0 -5.629,3.7891 -5.629,5.6992 V 325.98 h -28.363 v 18.629 c 0,4.571 2.82,8.403 6.171,8.403 h 80.391 z"
         style="fill:#020202;fill-opacity:1;fill-rule:nonzero;stroke:none"
         id="path72"
         inkscape:connector-curvature="0" /><path
         d="m 619.84,353.012 c 5.711,0 7.5,-6.102 7.5,-10.672 V 86.6406 H 608.75 V 202.699 c -0.27,3.43 -2.07,6.09 -4.41,6.09 H 584.18 V 86.6406 H 565.59 V 342.34 c 0,4.57 1.789,10.672 7.5,10.672 h 11.09 V 245.309 c 0,-7.61 2.07,-9.528 6.48,-9.528 h 18.09 v 117.231 z"
         style="fill:#000000;fill-opacity:1;fill-rule:nonzero;stroke:none"
         id="path74"
         inkscape:connector-curvature="0" /><path
         d="M 862.77,88.8281 H 841.641 L 824.77,272.23 807.891,88.8281 H 786.719 L 815.121,355.16 h 10.43 c 8.039,0 9.371,-7.23 10.187,-14.461 z"
         style="fill:#020202;fill-opacity:1;fill-rule:nonzero;stroke:none"
         id="path76"
         inkscape:connector-curvature="0" /><path
         d="m 942.891,355.16 c 5.039,0 6.949,-6.058 6.949,-10.629 V 88.8281 h -12.18 c -4.07,0 -4.808,3.793 -5.039,5.7032 V 355.16 Z"
         style="fill:#000000;fill-opacity:1;fill-rule:nonzero;stroke:none"
         id="path78"
         inkscape:connector-curvature="0" /><g
         id="g80"
         transform="scale(10)"><text
           transform="matrix(0.807263,0,0,-1,-0.0289063,1.08125)"
           style="font-variant:normal;font-weight:normal;font-size:4.50725985px;font-family:AvenirNext;-inkscape-font-specification:AvenirNext-Regular;writing-mode:lr-tb;fill:#000000;fill-opacity:1;fill-rule:nonzero;stroke:none"
           id="text84"><tspan
             x="0 3.155082 5.7916579 8.360796 9.5326834 12.065763 13.237651 16.482878 17.654766 20.809849 23.005013 24.131826 25.303715 28.747261 31.316399 33.984695 36.283401 38.582104 39.75399 43.265144 45.933445 49.376991 52.622219 55.290516 56.417332 58.950409 62.781582 65.48143 66.608246 70.601677 71.773567 75.21711 77.885406 80.571739 83.726822 85.917252 87.044067 89.712364 92.637573 95.251785 97.415398 101.24657 103.94642 106.82654 109.39568 110.56757 114.39874"
             y="0"
             sodipodi:role="line"
             id="tspan82">ARTIFICIAL INTELLIGENCE FOR MINERAL EXPLORATION</tspan></text>
</g></g></g></svg>