<?xml version="1.0" encoding="UTF-8" standalone="no"?><!DOCTYPE svg PUBLIC "-//W3C//DTD SVG 1.1//EN" "http://www.w3.org/Graphics/SVG/1.1/DTD/svg11.dtd"><svg width="100%" height="100%" viewBox="0 0 128 48" version="1.1" xmlns="http://www.w3.org/2000/svg" xmlns:xlink="http://www.w3.org/1999/xlink" xml:space="preserve" style="fill-rule:evenodd;clip-rule:evenodd;stroke-linejoin:round;stroke-miterlimit:1.41421;"><g id="g64"><path id="path66" d="M7.706,37.597c-0.27,0.912 -0.676,2.333 -0.776,2.636c-0.172,0.457 -0.541,0.963 -1.322,0.963l-5.416,0l0,-34.5c0.036,-0.558 0.342,-1.011 0.744,-1.011l6.333,0l-0.812,2.636c-0.136,0.459 -0.511,1.016 -1.287,1.016l-1.964,0c-0.338,0 -0.572,0.353 -0.572,0.864l0,10.552l3.651,0c-0.265,0.912 -0.677,2.38 -0.776,2.688c-0.172,0.459 -0.505,0.963 -1.287,0.963l-1.016,0c-0.301,0 -0.572,0.407 -0.572,0.865l0,12.328l5.072,0Z" style="fill-rule:nonzero;"/><path id="path68" d="M24.905,41.196l-2.609,0l-2.084,-24.454l-2.078,24.454l-2.614,0l3.505,-35.511l1.286,0c0.995,0 1.157,0.964 1.255,1.928l3.339,33.583Z" style="fill-rule:nonzero;"/><path id="path70" d="M40.02,41.196l0,-12.984c0,-1.73 -0.609,-2.287 -1.251,-2.287l-1.281,0l0,15.271l-2.427,0l0,-35.511l4.416,0c1.62,0 2.969,1.98 2.969,4.464l0,10.959c0,0 0.105,2.792 -0.874,3.145c0.942,0.708 0.874,3.349 0.874,3.349l0,13.599l-2.426,-0.005Zm-1.251,-18.719c0.642,0 1.251,-0.407 1.251,-2.03l0,-9.538c0,-1.317 -0.609,-1.828 -1.251,-1.828l-1.281,0l0,13.396l1.281,0Z" style="fill-rule:nonzero;"/><path id="path72" d="M64.02,8.613c-0.152,0.453 -0.563,0.963 -1.423,0.963l-2.098,0c-0.376,0 -0.641,0.406 -0.678,0.86l0,31.052l-1.91,0c-0.636,0 -0.751,-0.505 -0.751,-0.76l0,-31.152l-3.782,0l0,-2.484c0,-0.61 0.376,-1.12 0.823,-1.12l10.719,0l-0.9,2.641Z" style="fill:#020202;fill-rule:nonzero;"/><path id="path74" d="M82.816,5.972c0.761,0 1,0.813 1,1.422l0,34.094l-2.479,0l0,-15.475c-0.036,-0.457 -0.276,-0.812 -0.588,-0.812l-2.688,0l0,16.287l-2.479,0l0,-34.094c0,-0.609 0.239,-1.422 1,-1.422l1.479,0l0,14.36c0,1.015 0.276,1.27 0.864,1.27l2.412,0l0,-15.63l1.479,0Z" style="fill-rule:nonzero;"/><path id="path76" d="M115.206,41.196l-2.817,0l-2.249,-24.454l-2.251,24.454l-2.823,0l3.787,-35.511l1.391,0c1.072,0 1.249,0.964 1.358,1.928l3.604,33.583Z" style="fill:#020202;fill-rule:nonzero;"/><path id="path78" d="M125.889,5.685c0.672,0 0.927,0.808 0.927,1.417l0,34.094l-1.624,0c-0.543,0 -0.641,-0.506 -0.672,-0.76l0,-34.751l1.369,0Z" style="fill-rule:nonzero;"/></g></svg>