<?xml version="1.0" encoding="UTF-8" standalone="no"?><!DOCTYPE svg PUBLIC "-//W3C//DTD SVG 1.1//EN" "http://www.w3.org/Graphics/SVG/1.1/DTD/svg11.dtd"><svg width="100%" height="100%" viewBox="0 0 1300 344" version="1.1" xmlns="http://www.w3.org/2000/svg" xmlns:xlink="http://www.w3.org/1999/xlink" xml:space="preserve" style="fill-rule:evenodd;clip-rule:evenodd;stroke-linejoin:round;stroke-miterlimit:1.41421;"><path id="path2" d="M1187.69,287.883l0,-112.867c0,0 0.321,-34.499 -40.249,-34.499c-50.252,0 -59.414,47.915 -59.414,72.831l0,114.998l-29.389,0l0,-190.066l-33.221,-7.667l0,-14.373l62.61,0l0,41.847c14.055,-40.889 46.479,-41.847 65.964,-41.847c43.444,0 63.087,32.582 63.087,58.776l0,112.442c0,11.925 8.625,20.122 31.944,14.907l0,19.378c-39.289,17.889 -61.332,-3.303 -61.332,-33.86Zm-231.271,0l0,-171.643l29.388,0l0,171.218c0,11.925 8.625,20.122 31.944,14.907l0,19.378c-39.289,17.889 -61.332,-3.303 -61.332,-33.86Zm-87.054,-171.643l52.555,0l0,21.722l-52.388,0l0,190.384l-29.554,0l0.166,-190.384l-35.776,0l0,-21.722l35.61,0c0,-59.202 16.351,-92.849 98.553,-92.849l0,23.851c-56.647,0 -69.166,21.722 -69.166,68.998Zm-252.187,105.413c0,-58.136 35.991,-105.413 88.804,-105.413c41.588,0 77.941,24.277 77.941,68.185c0,57.034 -72.192,78.117 -136.079,55.118c0,60.053 77.942,81.775 136.079,49.193l0,21.72c-75.173,40.038 -166.745,13.418 -166.745,-88.803Zm139.913,-38.331c0,-58.777 -109.247,-67.082 -109.247,31.305c47.276,21.082 109.247,9.707 109.247,-31.305Zm-298.992,37.693l0,107.331l-31.943,0l0,-259.382l-33.221,-7.667l0,-14.055l63.946,0c81.716,0 144.325,0 144.325,83.905c0,89.441 -62.609,89.868 -143.107,89.868Zm0,-152.051l0,130.169c60.055,0 111.164,0.161 111.164,-65.644c0,-64.525 -51.109,-64.525 -111.164,-64.525Z" style="fill-rule:nonzero;"/><path id="path4" d="M133.337,145.728l-37.811,-21.83l-29.865,-82.053l75.622,43.66l14.932,41.026l-37.81,-21.83l14.932,41.027Z" style="fill-rule:nonzero;"/><path id="path6" d="M123.785,182.702l-42.997,7.581l-75.621,-43.66l85.993,-15.162l37.811,21.83l-42.996,7.58l37.81,21.831Z" style="fill-rule:nonzero;"/><path id="path8" d="M112.17,250.61l-85.993,15.163l56.128,-66.89l42.996,-7.582l-28.064,33.446l42.997,-7.582l-28.064,33.445Z" style="fill-rule:nonzero;"/><path id="path10" d="M118.859,256.223l28.064,-33.445l0,43.66l28.064,-33.445l0,43.66l-56.128,66.89l0,-87.32Z" style="fill-rule:nonzero;"/><path id="path12" d="M183.719,276.653l0,-43.66l28.064,33.445l0,-43.66l28.064,33.445l0,87.32l-56.128,-66.89Z" style="fill-rule:nonzero;"/><path id="path14" d="M246.536,250.61l-28.064,-33.445l42.997,7.582l-28.064,-33.446l42.996,7.582l56.129,66.89l-85.994,-15.163Z" style="fill-rule:nonzero;"/><path id="path16" d="M277.918,190.283l-42.997,-7.581l37.811,-21.831l-42.997,-7.58l37.811,-21.83l85.993,15.162l-75.621,43.66Z" style="fill-rule:nonzero;"/><path id="path18" d="M263.18,123.898l-37.811,21.83l14.933,-41.027l-37.811,21.83l14.933,-41.026l75.621,-43.66l-29.865,82.053Z" style="fill-rule:nonzero;"/><path id="path20" d="M194.286,123.545l-14.933,-41.026l-14.933,41.026l-14.932,-41.026l29.865,-82.055l29.865,82.055l-14.932,41.026Z" style="fill-rule:nonzero;"/></svg>