<?xml version="1.0" encoding="UTF-8" standalone="no"?>
<svg
   xmlns:dc="http://purl.org/dc/elements/1.1/"
   xmlns:cc="http://creativecommons.org/ns#"
   xmlns:rdf="http://www.w3.org/1999/02/22-rdf-syntax-ns#"
   xmlns:svg="http://www.w3.org/2000/svg"
   xmlns="http://www.w3.org/2000/svg"
   xmlns:sodipodi="http://sodipodi.sourceforge.net/DTD/sodipodi-0.dtd"
   xmlns:inkscape="http://www.inkscape.org/namespaces/inkscape"
   id="pefin-logo"
   viewBox="0 0 957 344"
   width="100%"
   height="100%"
   version="1.1"
   sodipodi:docname="pefin_logo.svg"
   inkscape:version="0.92.3 (2405546, 2018-03-11)">
  <metadata
     id="metadata27">
    <rdf:RDF>
      <cc:Work
         rdf:about="">
        <dc:format>image/svg+xml</dc:format>
        <dc:type
           rdf:resource="http://purl.org/dc/dcmitype/StillImage" />
        <dc:title></dc:title>
      </cc:Work>
    </rdf:RDF>
  </metadata>
  <defs
     id="defs25" />
  <sodipodi:namedview
     pagecolor="#ffffff"
     bordercolor="#666666"
     borderopacity="1"
     objecttolerance="10"
     gridtolerance="10"
     guidetolerance="10"
     inkscape:pageopacity="0"
     inkscape:pageshadow="2"
     inkscape:window-width="874"
     inkscape:window-height="517"
     id="namedview23"
     showgrid="false"
     inkscape:zoom="0.59038662"
     inkscape:cx="478.5"
     inkscape:cy="172"
     inkscape:window-x="0"
     inkscape:window-y="0"
     inkscape:window-maximized="0"
     inkscape:current-layer="pefin-logo" />
  <path
     d="M917.537,236.737 L917.537,163.936 C917.537,163.936 917.744,141.684 891.576,141.684 C859.163,141.684 853.253,172.590 853.253,188.661 L853.253,262.836 L834.297,262.836 L834.297,140.241 L812.869,135.296 L812.869,126.025 L853.253,126.025 L853.253,153.017 C862.319,126.643 883.233,126.025 895.801,126.025 C923.823,126.025 936.493,147.041 936.493,163.936 L936.493,236.463 C936.493,244.155 942.056,249.442 957.097,246.078 L957.097,258.577 C931.755,270.116 917.537,256.447 917.537,236.737 ZM768.364,236.737 L768.364,126.025 L787.320,126.025 L787.320,236.463 C787.320,244.155 792.883,249.442 807.924,246.078 L807.924,258.577 C782.582,270.116 768.364,256.447 768.364,236.737 ZM712.213,126.025 L746.112,126.025 L746.112,140.036 L712.321,140.036 L712.321,262.836 L693.258,262.836 L693.365,140.036 L670.289,140.036 L670.289,126.025 L693.258,126.025 C693.258,87.839 703.805,66.136 756.826,66.136 L756.826,81.520 C720.288,81.520 712.213,95.531 712.213,126.025 ZM549.549,194.018 C549.549,156.519 572.764,126.025 606.829,126.025 C633.654,126.025 657.102,141.684 657.102,170.005 C657.102,206.793 610.537,220.392 569.329,205.557 C569.329,244.292 619.603,258.303 657.102,237.287 L657.102,251.297 C608.614,277.122 549.549,259.952 549.549,194.018 ZM639.795,169.294 C639.795,131.382 569.329,126.025 569.329,189.486 C599.823,203.084 639.795,195.747 639.795,169.294 ZM446.941,193.606 L446.941,262.836 L426.337,262.836 L426.337,95.531 L404.909,90.586 L404.909,81.520 L446.155,81.520 C498.863,81.520 539.247,81.520 539.247,135.640 C539.247,193.331 498.863,193.606 446.941,193.606 ZM446.941,95.531 L446.941,179.492 C485.677,179.492 518.643,179.596 518.643,137.151 C518.643,95.531 485.677,95.531 446.941,95.531 Z"
     class="logo-text"
     id="path2" />
  <path
     d="M128.170,145.728 L90.359,123.898 L60.494,41.845 L136.116,85.505 L151.048,126.531 L113.238,104.701 L128.170,145.728 Z"
     class="fill-set-tertiary"
     id="path4" />
  <path
     d="M118.618,182.702 L75.621,190.283 L0.000,146.623 L85.993,131.461 L123.804,153.291 L80.808,160.871 L118.618,182.702 Z"
     class="fill-set-tertiary"
     id="path6" />
  <path
     d="M107.003,250.610 L21.010,265.773 L77.138,198.883 L120.134,191.301 L92.070,224.747 L135.067,217.165 L107.003,250.610 Z"
     class="fill-set-secondary"
     id="path8" />
  <path
     d="M113.692,256.223 L141.756,222.778 L141.756,266.438 L169.820,232.993 L169.820,276.653 L113.692,343.543 L113.692,256.223 Z"
     class="fill-set-secondary"
     id="path10" />
  <path
     d="M178.552,276.653 L178.552,232.993 L206.616,266.438 L206.616,222.778 L234.680,256.223 L234.680,343.543 L178.552,276.653 Z"
     class="fill-set-secondary"
     id="path12" />
  <path
     d="M241.369,250.610 L213.305,217.165 L256.302,224.747 L228.238,191.301 L271.234,198.883 L327.363,265.773 L241.369,250.610 Z"
     class="fill-set-primary"
     id="path14" />
  <path
     d="M272.751,190.283 L229.754,182.702 L267.565,160.871 L224.568,153.291 L262.379,131.461 L348.372,146.623 L272.751,190.283 Z"
     class="fill-set-primary"
     id="path16" />
  <path
     d="M258.013,123.898 L220.202,145.728 L235.135,104.701 L197.324,126.531 L212.257,85.505 L287.878,41.845 L258.013,123.898 Z"
     class="fill-set-primary"
     id="path18" />
  <path
     d="M189.119,123.545 L174.186,82.519 L159.253,123.545 L144.321,82.519 L174.186,0.464 L204.051,82.519 L189.119,123.545 Z"
     class="fill-set-tertiary"
     id="path20" />
</svg>
