<?xml version="1.0" encoding="UTF-8"?>
<svg width="582px" height="98px" viewBox="0 0 582 98" version="1.1" xmlns="http://www.w3.org/2000/svg" xmlns:xlink="http://www.w3.org/1999/xlink">
    <!-- Generator: Sketch 51.2 (57519) - http://www.bohemiancoding.com/sketch -->
    <title>AI Frontiers blue Copy</title>
    <desc>Created with Sketch.</desc>
    <defs>
        <path d="M32.9263712,49.4804986 C33.3362881,49.9691413 34.0122438,50.5500831 34.8945152,50.533795 C34.845651,50.5690859 34.8945152,50.5500831 34.8022161,50.5799446 L34.8022161,50.6260942 L36.5396122,50.6260942 C36.4934626,50.5880886 36.5396122,50.6070914 36.447313,50.5799446 C36.6834903,50.4306371 37.1395568,50.5283657 37.4083102,50.4414958 C38.1928532,50.1863158 39.1891413,50.039723 39.9682548,49.7546814 C40.2614404,49.6488089 40.4921884,49.7709695 40.7826593,49.665097 C41.0731302,49.5592244 41.6377839,49.4479224 41.9716898,49.298615 L42.4277562,49.298615 L42.4277562,49.2063158 L42.8919668,49.2063158 L42.8919668,49.1167313 L43.3018837,49.1167313 L43.3018837,49.0244321 L43.7145152,49.0244321 L43.7145152,48.932133 C43.912687,48.8425485 44.0077008,49.0054294 44.1244321,48.8425485 C44.3959003,48.8425485 44.5614958,48.8778393 44.5832133,48.7502493 C44.8546814,48.7502493 45.020277,48.7882548 45.0392798,48.6579501 C45.2971745,48.6579501 45.4329086,48.693241 45.4519114,48.565651 C45.9050876,48.5389413 46.3521107,48.4475255 46.7793906,48.2941828 C47.2978947,48.1503047 47.8272576,48.1150139 48.2860388,47.9738504 L48.6525208,47.9738504 C49.5782271,47.7023823 50.712964,47.653518 51.625097,47.3359003 L52.1218837,47.3359003 C52.3091967,47.2707479 53.533518,47.0427147 53.5878116,46.9694183 C53.8592798,46.9694183 54.1144598,47.0101385 54.1307479,46.8771191 C54.4022161,46.8771191 54.700831,46.9232687 54.7252632,46.7875346 C54.9967313,46.7875346 55.2057618,46.8255402 55.2274792,46.6952355 C55.4989474,46.6952355 55.7079778,46.733241 55.7296953,46.6029363 C56.0011634,46.6029363 56.2563435,46.6463712 56.2726316,46.5106371 L56.9132964,46.5106371 C56.8671468,46.4753463 56.9132964,46.494349 56.8237119,46.4672022 C56.9621607,46.3776177 57.2390582,46.4997784 57.4182271,46.4210526 C57.7331302,46.2798892 58.2923546,46.2093075 58.6506925,46.1007202 L59.1094737,46.1007202 C59.8560111,45.9025485 60.8224377,45.8916898 61.5336842,45.6419391 L62.0766205,45.6419391 C62.8496521,45.4156891 63.6493639,45.2933587 64.4546814,45.2781717 L64.500831,45.2320222 L64.500831,45.0039889 C63.1434903,45.0039889 62.2449307,44.3117452 61.5744044,43.7688089 L61.6178393,43.6765097 C61.4514059,43.5200808 61.3127904,43.3364842 61.2079224,43.1335734 L61.2079224,42.9489751 C60.9923565,42.5070438 60.9592051,41.9980715 61.1156233,41.5319114 L61.1156233,41.1654294 C61.2866482,40.853241 61.3219391,40.5139058 61.4821053,40.1609972 C61.8784488,39.2868698 62.2422161,38.2444321 62.7172853,37.3241551 L62.7172853,37.052687 C62.9200379,36.6666519 63.1012932,36.2697027 63.2602216,35.8636565 L63.2602216,35.6356233 C63.6785776,34.8699364 64.0013253,34.0557734 64.2212188,33.2114127 C64.3080886,33.3335734 64.6555679,32.3209972 64.6772853,32.1255402 L64.7234349,32.1255402 C64.8461326,32.5393157 65.0145784,32.9381224 65.225651,33.3145706 C65.3260942,33.5100277 65.2500831,33.6511911 65.3179501,33.8575069 C65.4238227,33.7163435 65.4618283,34.1914127 65.4998338,34.3162881 C65.6849061,34.6265986 65.8534514,34.9464721 66.0047645,35.2745706 C66.8028809,37.0934072 67.3946814,39.8270914 68.47241,40.8993906 C69.2618917,41.6033697 70.1386977,42.2028093 71.0812188,42.6829363 C71.2603878,42.7779501 71.3771191,42.7073684 71.5834349,42.7752355 C71.4639889,42.8648199 72.7806094,43.2421607 72.954349,43.3181717 L73.2963989,43.3181717 C73.5380055,43.4159003 73.9642105,43.5054848 74.2112465,43.5896399 L74.7541828,43.5896399 C75.3514794,43.7419799 75.9681891,43.8041999 76.5838781,43.7742382 C76.7533128,43.7913223 76.9212025,43.8212702 77.0860942,43.8638227 C77.3249861,43.7959557 77.8109141,43.8638227 78.1393906,43.7742382 C78.8001442,43.6326283 79.4754784,43.5706543 80.1509695,43.5896399 C80.7961694,43.5949196 81.4402079,43.5339724 82.072964,43.4077562 C82.5018837,43.2774515 83.1588366,43.4077562 83.4900277,43.3154571 C83.9243767,43.1851524 84.654626,43.3290305 85.0455402,43.2258726 L86.7367867,43.2258726 C87.2417175,43.0819945 88.0561219,43.1335734 88.7022161,43.1335734 L89.3428809,43.1335734 C89.6565575,43.053552 89.9807049,43.0224192 90.3038781,43.0412742 C91.020554,43.0412742 92.1824377,43.1960111 92.7280886,42.9489751 L103.931579,42.9489751 C104.173186,42.9489751 104.593961,43.0032687 104.745983,42.9055402 C104.783989,42.8566759 104.764986,42.8919668 104.792133,42.813241 C104.762271,42.7833795 104.73241,42.7508033 104.699834,42.7209418 C104.47723,42.566205 103.92615,42.6123546 103.649252,42.4929086 C102.866964,42.188843 102.103666,41.8380161 101.36349,41.4423269 C101.233186,41.3636011 100.934571,41.3364543 100.820554,41.2577285 C100.340055,40.9428255 99.7944044,40.6795014 99.3111911,40.3428809 C98.9703626,40.0557371 98.6072631,39.7961209 98.2253186,39.566482 L98.2714681,39.4741828 C98.187313,39.4117452 98.0787258,39.4497507 98,39.3818837 C97.9619945,39.3520222 97.9457064,39.2298615 97.9077008,39.2 C97.8262604,39.1348476 97.7149584,39.1755679 97.6362327,39.1077008 C97.1801662,38.7357895 96.7946814,38.160277 96.2653186,37.8752355 C96.3820499,37.7720776 95.9395568,37.5521884 95.7223823,37.3322992 C95.2147368,36.8192244 94.8102493,36.2029917 94.259169,35.7333518 C94.2944598,35.6926316 94.2347368,35.5324654 94.1668698,35.4618837 C94.0990028,35.3913019 93.9496953,35.3532964 93.8954017,35.2772853 C92.8095291,33.8167867 91.9788366,32.3128532 91.0151247,30.7953463 C90.8875346,30.5971745 90.9173961,30.3908587 90.8305263,30.1573961 C90.7925208,30.2089751 90.5889197,29.9429363 90.5590582,29.885928 C90.5291967,29.8289197 90.5726316,29.6741828 90.5590582,29.6578947 C90.4036047,29.4439264 90.2595271,29.22192 90.1274238,28.9927978 L90.1274238,28.8109141 L90.0351247,28.8109141 C89.9509695,28.6616066 90.0351247,28.5014404 89.9428255,28.3548476 C89.7419391,28.0236565 89.5817729,27.5404432 89.3998892,27.2092521 C89.3184488,27.0599446 89.3998892,26.8997784 89.30759,26.7531856 C89.0089751,26.2618283 88.8678116,25.8003324 88.5773407,25.2438227 C88.4823269,25.0646537 88.5610526,24.9316343 88.4850416,24.7416066 C88.319446,24.9886427 88.012687,23.6557341 87.8905263,23.460277 L87.7982271,23.460277 C87.8110446,23.3028996 87.7800377,23.1450462 87.7086427,23.0042105 L87.6163435,23.0042105 C87.534903,22.8521884 87.6163435,22.6920222 87.5240443,22.5454294 C87.4317452,22.3988366 87.2525762,22.1029363 87.160277,21.9047645 L87.160277,21.6767313 L87.0679778,21.6767313 C86.9838227,21.5138504 87.0679778,21.3672576 86.9756787,21.2206648 L86.8833795,21.2206648 L86.8833795,21.0360665 L86.793795,21.0360665 L86.793795,20.7645983 C86.4436011,20.1646537 86.172133,19.4072576 85.8327978,18.799169 C85.7486427,18.6471468 85.8327978,18.4869806 85.7404986,18.3403878 L85.6509141,18.3403878 C85.566759,18.193795 85.6319114,18.0852078 85.558615,17.9304709 C85.4853186,17.7757341 85.3387258,17.6047091 85.2871468,17.4716898 L85.2871468,17.2436565 C84.8012188,16.1414958 84.4727424,15.3705263 84.0519668,14.5914127 C83.9678116,14.4393906 84.0519668,14.2819391 83.9596676,14.1326316 C83.7207756,13.7390028 83.5361773,13.2177839 83.3190028,12.807867 C83.2348476,12.6449861 83.3190028,12.4983934 83.2294183,12.3490859 C82.925374,11.8631579 82.7869252,11.3962327 82.4964543,10.8424377 C82.4041551,10.6632687 82.4801662,10.5275346 82.4068698,10.3375069 C82.2684211,10.5465374 81.9779501,9.44709141 81.9019391,9.28692521 C81.5517452,8.53495845 81.152687,7.45180055 80.7129086,6.63468144 C80.6260388,6.47180055 80.7129086,6.32792244 80.6233241,6.17590028 L80.5310249,6.17590028 L80.5310249,5.90443213 L80.4848753,5.90443213 C80.4007202,5.93429363 80.4251524,5.6601108 80.3464266,5.53795014 L80.2568421,5.53795014 C80.2025485,5.45108033 80.2568421,5.32620499 80.2568421,5.3099169 C80.2568421,5.29362881 80.1401108,5.26376731 80.1183934,5.21761773 C80.0206648,4.98958449 80.0640997,4.78869806 79.9365097,4.57966759 C79.4913019,3.85484765 79.2578393,2.90742382 78.8506371,2.15545706 C78.7610526,1.99529086 78.6063158,1.30847645 78.5303047,1.34105263 C78.3934021,1.08242042 78.2859524,0.80924326 78.2099723,0.526648199 C78.1312465,0.342049861 78.0063712,0.268753463 77.9819391,0.024432133 L51.9209972,0.024432133 C51.8531302,0.567368421 51.4649307,1.11030471 51.2368975,1.53379501 L51.2368975,1.80526316 L51.1445983,1.80526316 C51.0550139,1.95728532 51.1445983,2.09301939 51.0522992,2.26132964 L50.96,2.26132964 L50.96,2.44592798 L50.7645429,2.60609418 L50.7645429,2.87756233 L50.6722438,2.87756233 C50.585374,3.03229917 50.6722438,3.17074792 50.5826593,3.33634349 L50.4930748,3.33634349 L50.4930748,3.56437673 C49.8496953,4.74254848 49.4424931,6.14060942 48.8018283,7.3133518 L48.8018283,7.58481994 C48.5982271,7.97301939 48.3810526,8.48880886 48.1611634,8.86614958 C47.9684211,9.19734072 47.9819945,9.68055402 47.7946814,10.0090305 C47.3006094,10.8940166 47.1513019,11.5889751 46.6518006,12.433241 C46.5622161,12.5852632 46.6518006,12.7264266 46.5595014,12.8920222 C46.4672022,13.0576177 46.3043213,13.3888089 46.1957341,13.5761219 C46.0057064,13.8964543 46.0111357,14.3470914 45.8292521,14.6619945 C45.1315789,15.9026039 44.765097,17.4445429 44.0457064,18.6851524 C43.8176731,19.0760665 43.8095291,19.6135734 43.5869252,20.0126316 C43.1335734,20.827036 42.8865374,21.6414404 42.4440443,22.4341274 L42.4440443,22.7055956 L42.2621607,22.8901939 L42.2621607,23.161662 C41.8875346,23.8891967 41.534626,24.8990582 41.2034349,25.5180055 C41.1111357,25.6971745 40.9645429,26.2699723 40.8396676,26.2509695 C40.7527978,26.4301385 40.8396676,26.5713019 40.7473684,26.7531856 C40.6903601,26.8644875 40.5274792,27.0409418 40.4759003,27.1658172 C40.3483102,27.4535734 40.3510249,27.814626 40.2044321,28.0779501 C39.506759,29.3022715 39.1185596,30.7329086 38.5104709,31.8296399 L38.5104709,32.101108 L38.3285873,32.2829917 L38.3285873,32.5544598 C38.1249861,32.9426593 37.9078116,33.44759 37.6879224,33.8357895 C37.5793352,34.0285319 37.6119114,34.3271468 37.5060388,34.5226039 C37.3485873,34.794072 37.1667036,35.1551247 37.001108,35.4374515 C36.8979501,35.6139058 37.001108,35.8690859 36.8192244,35.8473684 C36.7024931,36.0916898 36.7350693,36.3142936 36.6373407,36.5803324 L36.5450416,36.5341828 L36.5450416,36.7622161 L36.4527424,36.7622161 C36.3631579,36.9142382 36.4527424,37.0499723 36.3631579,37.2209972 L36.1785596,37.4028809 C36.0916898,37.5521884 36.1785596,37.7069252 36.0889751,37.861662 C35.9423823,38.1331302 35.7550693,38.4887535 35.6301939,38.773795 L35.6301939,39.0045429 C35.1388366,39.9166759 34.8809418,40.725651 34.3950139,41.6106371 L34.3950139,41.8821053 C34.1832687,42.2920222 33.985097,42.8105263 33.754349,43.2095845 C33.6701939,43.358892 33.754349,43.5136288 33.6647645,43.665651 C33.4421607,44.0619945 33.2032687,44.5506371 32.9779501,44.9469806 C32.8503601,45.1722992 32.8992244,45.7776731 32.706482,45.9052632 C32.706482,46.1577285 32.7390582,46.2527424 32.6141828,46.2717452 C32.6141828,46.5432133 32.6521884,46.7088089 32.5245983,46.7305263 L32.5245983,48.4679224 C32.5463158,48.4326316 32.8476454,49.374626 32.9263712,49.4804986 Z M78.2615512,56.1124654 L78.5330194,56.1124654 C78.953795,55.8762881 79.618892,55.7731302 80.0423823,55.5695291 C80.2595568,55.4636565 80.4685873,55.5939612 80.6803324,55.4772299 C81.2504155,55.1650416 81.9073684,55.1324654 82.6023269,54.9342936 C82.5860388,54.9044321 82.5724654,54.8745706 82.5561773,54.8419945 L82.9226593,54.8419945 L82.8765097,54.75241 L83.2429917,54.75241 C83.1968421,54.7171191 83.8320776,54.4646537 83.9270914,54.4320776 C84.2392798,54.3234903 84.5433241,54.3723546 84.8419391,54.2474792 C86.0879778,53.7371191 87.4968975,53.5525208 88.8678116,53.1616066 L88.821662,53.0693075 L89.2342936,53.0693075 L89.2342936,52.979723 L89.554626,52.979723 L89.554626,52.8874238 L89.9183934,52.8874238 L89.9183934,52.7951247 C90.1165651,52.7028255 90.3771745,52.7706925 90.6052078,52.7055402 L90.5590582,52.613241 L90.9716898,52.613241 C90.8142382,52.4992244 91.514626,52.4367867 91.6557895,52.3852078 C92.4294737,52.1137396 93.4366205,51.9888643 94.1722992,51.6522438 L94.5849307,51.6522438 C94.7722438,51.5789474 95.9911357,51.2776177 96.048144,51.1961773 C96.3196122,51.1961773 96.4390582,51.2287535 96.4580609,51.1038781 C96.7295291,51.1038781 97.5195014,50.9572853 97.6009418,50.83241 C97.8534072,50.83241 97.9484211,50.8649861 97.9674238,50.7401108 C98.238892,50.7401108 98.358338,50.7754017 98.3800554,50.6505263 C98.8110923,50.6412682 99.2340263,50.5315842 99.6152355,50.3301939 L99.9790028,50.3301939 C100.478504,50.1618837 101.143601,50.0587258 101.626814,49.8714127 L101.993296,49.8714127 C102.484654,49.6786704 103.171468,49.6270914 103.638393,49.4153463 L104.051025,49.4153463 L104.051025,49.3230471 L104.507091,49.3230471 L104.507091,49.2307479 L104.919723,49.2307479 L104.919723,49.1411634 C105.191191,49.0162881 105.5441,49.1845983 105.696122,48.9565651 C105.954017,48.9565651 106.087036,48.991856 106.108753,48.8669806 L106.65169,48.8669806 C106.60554,48.8289751 106.65169,48.8479778 106.559391,48.820831 C106.830859,48.6579501 107.685983,48.7231025 107.84072,48.5004986 C108.098615,48.5004986 108.231634,48.5330748 108.253352,48.4081994 C108.598374,48.3875857 108.937683,48.3105532 109.257784,48.1801662 L109.624266,48.1801662 C109.879446,48.0824377 110.327368,48.0009972 110.585263,47.9086981 L111.030471,47.9086981 C112.043047,47.5829363 112.672853,47.6969529 113.362382,46.9938504 C113.397673,46.9585596 113.519834,46.9395568 113.546981,46.9015512 C113.628421,46.7875346 113.913463,45.8672576 113.818449,45.6229363 C113.676443,45.1477729 113.406988,44.7205879 113.039335,44.3877562 C112.911745,44.2764543 112.420388,44.1624377 112.44482,44.0674238 L107.92759,44.0674238 C108.102895,44.1229419 108.288366,44.138707 108.470526,44.1135734 L108.470526,44.1570083 L105.872576,44.1570083 C105.601108,44.1570083 105.085319,44.0891413 105.093463,44.2493075 C104.359626,44.2290422 103.625464,44.2753816 102.9,44.3877562 C102.373352,44.5099169 101.675679,44.3877562 101.252188,44.4773407 C100.787978,44.585928 100.207036,44.4773407 99.8351247,44.5696399 L98.5972299,44.5696399 C97.8289751,44.7406648 96.772964,44.6293629 96.0372853,44.841108 L95.1224377,44.841108 C94.1804432,45.1125762 92.7878116,44.8954017 91.8648199,45.20759 L91.0504155,45.20759 C90.5699169,45.3731856 89.725651,45.2808864 89.2668698,45.4790582 C89.0334072,45.5822161 88.574626,45.4790582 88.3547368,45.5713573 C88.0832687,45.693518 87.646205,45.4329086 87.4833241,45.6609418 C87.1901385,45.6609418 86.7313573,45.6093629 86.7069252,45.753241 C86.4110249,45.753241 85.9549584,45.701662 85.9305263,45.8455402 C85.634626,45.8455402 85.1758449,45.7912465 85.1514127,45.9351247 L84.2365651,45.9351247 C84.2854294,45.9731302 84.2501385,45.9541274 84.3288643,45.9812742 L84.3288643,46.0274238 C84.0302493,46.0274238 83.5307479,45.9731302 83.5144598,46.119723 C83.2239889,46.119723 82.805928,46.068144 82.7814958,46.2120222 C82.2559306,46.2170074 81.7335067,46.293727 81.2286981,46.4400554 L80.5880332,46.4400554 C79.9202216,46.6029363 79.0379501,46.613795 78.391856,46.8065374 L77.8489197,46.8065374 C77.2001108,46.9965651 76.2798338,46.9531302 75.6527424,47.1703047 L75.1098061,47.1703047 C74.7297507,47.3033241 74.0483657,47.2897507 73.6927424,47.4417729 L73.005928,47.4417729 L73.005928,47.5069252 L72.4114127,47.5069252 L72.4114127,47.5992244 L71.8168975,47.5992244 C71.3602881,47.7488882 70.8794391,47.8106064 70.3998338,47.781108 C70.4459834,47.8191136 70.3998338,47.7973961 70.492133,47.8272576 L70.492133,47.8734072 C70.1989474,47.8734072 69.8324654,47.8109695 69.8053186,47.9629917 C69.5338504,47.9629917 68.6977285,48.0227147 68.6162881,48.14759 C68.3448199,48.14759 68.0434903,48.1014404 68.0217729,48.2398892 C67.7503047,48.2398892 67.4489751,48.1937396 67.4272576,48.3294737 C66.805506,48.35137 66.1897719,48.4591692 65.5975623,48.6498061 L65.0953463,48.6498061 C64.5686981,48.8045429 63.8221607,48.8371191 63.3118006,49.0162881 L62.7905817,49.0162881 C62.4865374,49.1221607 61.9571745,49.1818837 61.6449861,49.2877562 L61.1427701,49.2877562 C60.450765,49.525917 59.7245695,49.6497003 58.9927424,49.6542382 C59.0416066,49.6895291 59.0063158,49.6705263 59.0850416,49.7003878 C58.8461496,49.8442659 58.1810526,49.7003878 58.0344598,49.9284211 C57.7629917,49.9284211 57.5973961,49.8904155 57.5756787,50.0207202 C57.3042105,50.0207202 57.0951801,49.98 57.0734626,50.1103047 C56.8019945,50.1103047 56.5468144,50.0695845 56.5305263,50.2026039 C56.2590582,50.2026039 56.047313,50.1618837 56.0255956,50.294903 C55.5243532,50.3262745 55.030883,50.4343069 54.5623823,50.6152355 L54.1524654,50.6152355 C53.6567628,50.7018493 53.1678055,50.8234083 52.6892521,50.9790028 L52.2766205,50.9790028 C51.7173961,51.1771745 50.9192798,51.198892 50.4007756,51.4377839 L49.9908587,51.4377839 L49.9908587,51.5273684 L49.5320776,51.5273684 L49.5320776,51.6196676 C49.2226039,51.7581163 48.7936842,51.5518006 48.6172299,51.8042659 C48.3593352,51.8042659 48.2263158,51.7689751 48.207313,51.8938504 C47.9494183,51.8938504 47.8136842,51.8612742 47.7946814,51.9861496 C47.5232133,51.9861496 47.3576177,51.948144 47.338615,52.0784488 C47.1322992,52.0784488 46.91241,52.0377285 46.8336842,52.1680332 C46.5812188,52.1680332 46.4889197,52.1381717 46.4699169,52.2603324 C46.2120222,52.2603324 46.0762881,52.2250416 46.0572853,52.3526316 C45.5918855,52.3941831 45.1348153,52.5020517 44.6999446,52.672964 C44.1570083,52.8412742 43.5977839,52.860277 43.0982825,53.0367313 L42.685651,53.0367313 C41.8712465,53.3977839 40.7446537,53.405928 39.9438227,53.7696953 L39.5311911,53.7696953 C39.2895845,53.8782825 38.0652632,54.1008864 37.9756787,54.2257618 C37.7286427,54.2257618 37.674349,54.198615 37.6553463,54.3180609 C37.3974515,54.3180609 37.2644321,54.2827701 37.2454294,54.4103601 C36.7004181,54.4632058 36.1681654,54.6072811 35.6709141,54.8365651 C35.399446,54.9342936 35.2012742,54.8365651 34.9379501,54.9288643 C34.3950139,55.1297507 33.6321884,55.238338 33.1109695,55.4718006 L32.7444875,55.4718006 L32.7444875,55.5640997 C32.4730194,55.6889751 31.8404986,55.6238227 31.6911911,55.8355679 C31.4387258,55.8355679 31.3464266,55.8029917 31.3274238,55.927867 C31.0966759,55.927867 30.7166205,55.9848753 30.6406094,56.1097507 C30.3935734,56.1097507 30.3392798,56.0826039 30.320277,56.2020499 C30.0678116,56.2020499 29.9727978,56.1694737 29.953795,56.2916343 C29.7013296,56.2916343 29.6090305,56.2617729 29.587313,56.3839335 C29.3148808,56.401855 29.0497683,56.4797202 28.8109141,56.6119668 C28.5883102,56.7015512 28.4525762,56.6282548 28.2163989,56.7042659 C27.8987812,56.8047091 27.4671468,56.9540166 27.1658172,57.0707479 C26.9242105,57.1630471 26.774903,57.0707479 26.5251524,57.1630471 C25.9116343,57.385651 25.0972299,57.5268144 24.5108587,57.8009972 L24.193241,57.8009972 L24.193241,57.8932964 L23.8729086,57.8932964 L23.8729086,57.9855956 C23.6014404,58.1077562 23.0123546,58.0534626 22.8657618,58.2570637 C22.6295845,58.2570637 22.5942936,58.2272022 22.5942936,58.3493629 C22.3472576,58.3493629 22.292964,58.3195014 22.2739612,58.4389474 C21.7581717,58.4389474 21.3401108,58.7104155 20.946482,58.8515789 C20.3248199,59.0904709 19.6760111,59.1230471 19.1195014,59.3945152 L18.8480332,59.3945152 C18.6634349,59.4705263 18.3458172,59.5981163 18.1612188,59.6659834 L17.8897507,59.6659834 C17.6372853,59.8071468 17.2409418,59.9048753 16.974903,60.0324654 L16.6464266,60.0324654 C15.7315789,60.5373961 14.4746814,60.6514127 13.3888089,61.1753463 L13.1173407,61.1753463 C12.5363989,61.5065374 11.8088643,61.5988366 11.1057618,61.8160111 L11.1491967,61.9083102 C10.8777285,62.0304709 10.4298061,61.9517452 10.2804986,62.1797784 C10.0524654,62.1797784 10.0660388,62.1499169 10.0524654,62.2693629 C9.80542936,62.2693629 9.75113573,62.2422161 9.73213296,62.361662 C9.18919668,62.3752355 8.54581717,62.7525762 8.04088643,62.9561773 C6.41207756,63.6185596 4.44393352,63.7271468 3.78698061,65.106205 L3.78698061,65.472687 C3.63767313,65.7441551 3.62138504,66.3088089 3.51551247,66.6155679 L3.51551247,67.1585042 C3.37434903,67.4299723 3.33091413,67.9593352 3.24404432,68.2443767 L3.24404432,68.838892 C2.97257618,69.3655402 2.95628809,70.4161219 2.78797784,71.0350693 L2.78797784,71.5372853 C2.61695291,71.9716343 2.633241,72.9407756 2.37534626,73.2746814 C2.37534626,73.5461496 2.4133518,73.7117452 2.28304709,73.7334626 C2.28304709,74.0049307 2.23689751,74.7433241 2.10116343,74.8193352 C2.10116343,75.0908033 2.14188366,75.2998338 2.00886427,75.3215512 C2.00886427,75.5332964 2.05229917,75.7911911 1.91927978,75.8644875 C1.91927978,76.1359557 1.96,76.3938504 1.82698061,76.4074238 C1.82698061,76.678892 1.87041551,76.9775069 1.73468144,77.0019391 C1.73544435,77.5464532 1.64364764,78.0871358 1.4632133,78.6008864 L1.4632133,79.1954017 L1.37091413,79.1954017 L1.37091413,79.738338 L1.28132964,79.738338 L1.28132964,80.2812742 L1.18903047,80.2812742 C1.06686981,80.5527424 1.21889197,81.0522438 1.0967313,81.331856 C0.893130194,81.8014958 0.879556787,82.5724654 0.732963989,83.0692521 C0.586371191,83.5660388 0.580941828,85.0645429 0.32033241,85.3115789 C0.32033241,85.5830471 0.35833795,85.745928 0.228033241,85.7676454 C0.228033241,86.6037673 0,87.1249861 0,88.0534072 L0,88.6479224 C0.18607237,88.9952922 0.434539238,89.3054156 0.732963989,89.5627701 C1.00443213,89.733795 1.94099723,89.9645429 2.33191136,89.7473684 C2.8232687,89.4759003 3.38792244,89.0795568 3.97972299,88.694072 C4.14260388,88.5881994 4.31634349,88.6207756 4.48193906,88.5121884 C4.51451524,88.4904709 4.58781163,88.3493075 4.61767313,88.32759 C4.73440443,88.2570083 4.83484765,88.3113019 4.93800554,88.2380055 L4.93800554,88.2271468 L5.12260388,88.2271468 C7.00387812,86.9675346 9.43623269,85.7839335 11.5699723,84.4781717 C11.6948476,84.399446 11.8142936,84.4781717 11.9364543,84.3858726 C12.4810564,84.0194225 13.0635486,83.712704 13.6738504,83.4710249 L13.6277008,83.3787258 L13.8122992,83.3787258 C13.8122992,83.3787258 13.9941828,83.1506925 13.9941828,83.1506925 C14.2176603,83.0469548 14.4469862,82.9563121 14.6809972,82.8792244 C15.0773407,82.6647645 15.5252632,82.3770083 15.9134626,82.1462604 C16.0437673,82.072964 16.1577839,82.1462604 16.2799446,82.0566759 C16.5514127,81.8829363 16.8744598,81.6684765 17.1486427,81.5137396 C17.2762327,81.4377285 17.392964,81.5137396 17.5151247,81.4214404 C18.5945175,80.712111 19.7433213,80.1145147 20.9437673,79.6378947 C20.7836011,79.5130194 21.4568421,79.3664266 21.4867036,79.3664266 C21.3754017,79.2822715 21.9509141,79.073241 22.1708033,78.953795 C22.9615281,78.4927673 23.7875712,78.0951773 24.6411634,77.7647645 C24.4891413,77.6507479 24.9126316,77.6181717 25.0076454,77.5828809 C24.9044875,77.5041551 25.0076454,77.5122992 25.0972299,77.4905817 C25.5055113,77.3172434 25.9026208,77.1186886 26.2862604,76.8960665 C27.1631025,76.4427147 28.1268144,75.9893629 28.9846537,75.5251524 L29.2154017,75.5251524 C29.3755679,75.4274238 29.5981717,75.2536842 29.758338,75.1586704 L29.9863712,75.1586704 C30.235384,74.9765992 30.494607,74.80892 30.7627701,74.6564543 C30.9663712,74.5587258 31.1672576,74.5913019 31.3572853,74.471856 L31.3572853,74.3822715 L31.5418837,74.3822715 L31.5418837,74.2899723 L31.7237673,74.2899723 L31.7237673,74.1976731 L31.9518006,74.1976731 C32.591233,73.826682 33.2659868,73.5202237 33.9660942,73.2828255 C33.8466482,73.193241 34.7804986,72.8593352 34.9243767,72.7806094 C35.8699241,72.2862197 36.8486582,71.8580802 37.853518,71.4992798 C37.7014958,71.3852632 38.3638781,71.2712465 38.4914681,71.2278116 C38.3584488,71.1246537 39.1782825,70.8830471 39.3058726,70.8178947 C39.8488089,70.5627147 40.4840443,70.2749584 40.9971191,70.0034903 C41.1762881,69.9030471 41.4640443,69.9274792 41.6377839,69.8216066 L41.6377839,69.7293075 L41.8658172,69.7293075 C42.20988,69.5377709 42.5740453,69.3848215 42.9516898,69.273241 C42.9516898,69.2433795 42.9218283,69.2108033 42.9055402,69.1809418 C43.0657064,69.0967867 43.2095845,69.1809418 43.3643213,69.0913573 C44.4193806,68.4919578 45.5397254,68.0155836 46.7033795,67.6715789 C46.5187812,67.5331302 46.8635457,67.62 46.9314127,67.5819945 C47.107867,67.4788366 47.3820499,67.3105263 47.5720776,67.2155125 L47.8435457,67.2155125 C47.8272576,67.185651 47.8136842,67.1530748 47.7973961,67.1232133 L48.0688643,67.1232133 C48.0525762,67.0933518 48.0390028,67.0634903 48.0227147,67.0309141 C48.1801662,66.9521884 48.3376177,67.0309141 48.4814958,66.9413296 C49.1927424,66.4554017 50.218892,66.2029363 50.9952909,65.7984488 C51.1690305,65.7061496 51.3319114,65.7984488 51.4975069,65.7061496 C51.9486855,65.472004 52.4249974,65.289858 52.9172853,65.1632133 C52.7544044,65.0410526 53.2620499,65.0166205 53.3733518,64.978615 C53.3081994,64.9297507 54.394072,64.4546814 54.5623823,64.3840997 L54.8365651,64.3840997 C55.3795014,64.1533518 56.0147368,63.9117452 56.5305263,63.6538504 L56.8019945,63.6538504 C57.3449307,63.3525208 58.1023269,63.1109141 58.493241,62.9208864 L58.7647091,62.9208864 C59.4185911,62.5942065 60.090157,62.3041915 60.7762881,62.0521884 C60.9771745,61.9707479 61.3898061,61.9653186 61.5554017,61.8703047 C62.3426593,61.4196676 63.3118006,61.2296399 64.1614958,60.9554571 C64.3289797,60.827302 64.5112671,60.7197524 64.7044321,60.6351247 C65.038338,60.4966759 65.3993906,60.5401108 65.7115789,60.3636565 C65.9749809,60.2243084 66.247001,60.1018994 66.5259834,59.9971745 L66.7974515,59.9971745 C67.5847091,59.5546814 68.6977285,59.3402216 69.5419945,59.0823269 L69.4958449,58.9927424 L69.767313,58.9927424 L69.767313,58.9004432 L70.0387812,58.9004432 L70.0387812,58.808144 L70.3102493,58.808144 C70.7858763,58.5813813 71.2744621,58.382865 71.7734626,58.2136288 C71.9689197,58.1376177 72.145374,58.2136288 72.3163989,58.1213296 C73.0412188,57.7114127 74.045651,57.5648199 74.9252078,57.3069252 C74.7487535,57.1739058 75.3948476,57.1684765 75.468144,57.1250416 C75.894349,56.8888643 76.1223823,56.9404432 76.7033241,56.7585596 C76.627313,56.6255402 78.0470914,56.1939058 78.2479778,56.1124654 L78.2615512,56.1124654 Z M118.672299,96.6426593 C118.590859,96.4906371 118.672299,96.3304709 118.582715,96.1838781 C118.346537,95.792964 118.15651,95.2608864 117.94205,94.8591136 L117.94205,94.6283657 C117.887756,94.506205 117.724875,94.3297507 117.670582,94.2184488 C117.575568,94.0392798 117.64072,93.900831 117.578283,93.7162327 C117.491413,93.8248199 117.214515,92.8773961 117.076066,92.6167867 C116.45169,91.4440443 116.041773,90.040554 115.428255,88.8678116 L115.428255,88.5963435 L115.33867,88.5963435 L115.33867,88.3683102 L115.246371,88.4117452 L115.246371,88.140277 C114.567701,86.972964 114.032909,85.3224377 113.462825,84.2094183 L113.462825,83.9379501 L113.370526,83.9379501 L113.370526,83.7099169 L113.280942,83.7560665 L113.280942,83.4845983 C113.047479,83.0828255 112.816731,82.5616066 112.594127,82.1571191 C112.509972,82.0078116 112.594127,81.8476454 112.501828,81.7010526 C111.923601,80.7509141 111.519114,79.4750139 111.130914,78.3619945 C111.0359,78.4841551 110.902881,77.905928 110.810582,77.7213296 C110.492964,77.0888089 110.240499,76.3178393 109.895734,75.7097507 C109.811579,75.5604432 109.895734,75.4084211 109.803435,75.2536842 C109.475853,74.6072659 109.203418,73.934351 108.98903,73.2421053 L108.942881,73.2421053 L108.942881,73.2855402 C108.899446,73.2366759 108.942881,73.2855402 108.896731,73.1959557 C108.749334,72.8356623 108.58166,72.484001 108.394515,72.1426593 C108.31036,71.9933518 108.394515,71.8331856 108.302216,71.6865928 C107.884473,70.8993436 107.547929,70.0716263 107.297784,69.2162327 C107.178338,69.3682548 107.080609,68.6732964 107.026316,68.5755679 C106.693165,67.9974433 106.398437,67.3980122 106.144044,66.7811634 L106.144044,66.5531302 C106.027313,66.281662 105.815568,65.9314681 105.685263,65.6844321 L105.685263,65.412964 C105.495297,65.0681393 105.34242,64.7041479 105.229197,64.3270914 L105.136898,64.3705263 L105.136898,64.0990582 C104.550526,63.0919114 104.219335,61.927313 103.719834,60.8061496 C103.554238,60.4396676 103.404931,60.0840443 103.261053,59.6632687 L103.171468,59.7094183 C103.092742,59.5573961 103.141607,59.2126316 103.033019,59.2533518 C102.919104,59.0552455 102.841856,58.8382161 102.804986,58.612687 C102.457507,57.9584488 101.974294,57.1847645 102.210471,56.234626 L102.210471,55.868144 C102.370637,55.5803878 102.623102,54.9261496 102.753407,54.7822715 C104.224765,53.1018837 105.978449,52.0322992 108.378227,51.2151801 L108.378227,51.0305817 C107.763172,51.0881153 107.161157,51.2429714 106.594681,51.4893629 L106.228199,51.4893629 L106.228199,51.5789474 C105.975734,51.6956787 105.598393,51.5518006 105.451801,51.7635457 C105.204765,51.7635457 105.150471,51.7336842 105.131468,51.8558449 C104.944155,51.8558449 104.835568,51.8259834 104.764986,51.9454294 C104.51795,51.9454294 104.463657,51.9182825 104.444654,52.0377285 C104.192188,52.0377285 104.099889,52.0051524 104.080886,52.1300277 L103.622105,52.1300277 C103.668255,52.1653186 103.622105,52.1463158 103.714404,52.1734626 L103.714404,52.2196122 C103.461939,52.2196122 103.366925,52.1897507 103.347922,52.3119114 C103.100886,52.3119114 103.046593,52.2847645 103.02759,52.4042105 C102.454792,52.4204986 101.670249,52.7245429 101.197895,52.9064266 C100.959003,52.9987258 100.806981,52.9064266 100.55723,52.9987258 C100.125596,53.1561773 99.525651,53.2973407 99.0940166,53.4547922 C98.7465374,53.585097 97.8479778,53.5742382 97.6769529,53.8212742 C97.4299169,53.8212742 97.3756233,53.7914127 97.3566205,53.9135734 C97.1041551,53.9135734 97.011856,53.8809972 96.9901385,54.0031579 C96.7322438,54.0031579 96.5992244,53.9705817 96.5802216,54.0954571 C96.3901939,54.0954571 96.2843213,54.0655956 96.2137396,54.1877562 C95.9667036,54.1877562 95.91241,54.1578947 95.8934072,54.2773407 C95.6463712,54.2773407 95.5920776,54.2501939 95.5730748,54.3696399 C95.3206094,54.3696399 95.2283102,54.3397784 95.2065928,54.4619391 C94.6989884,54.5138242 94.2040608,54.6524774 93.7433795,54.871856 C93.5017729,54.9641551 93.3524654,54.8854294 93.1054294,54.9641551 C92.6392211,55.0909017 92.1806034,55.2440764 91.7318006,55.4229363 L91.3653186,55.4229363 L91.3653186,55.5125208 C91.0938504,55.6455402 90.5699169,55.5505263 90.407036,55.7839889 C90.16,55.7839889 90.1057064,55.7568421 90.0867036,55.8762881 C89.8152355,55.8762881 89.1229917,56.0120222 89.0334072,56.1477562 C88.7972299,56.1477562 88.7619391,56.1178947 88.7619391,56.2400554 C88.514903,56.2400554 88.4606094,56.2101939 88.4416066,56.3296399 C88.1891413,56.3296399 88.0968421,56.2997784 88.0751247,56.4219391 C87.6000554,56.4219391 87.3747368,56.6255402 87.0245429,56.7422715 C86.674349,56.8590028 86.4381717,56.7938504 86.1096953,56.9241551 C85.5622963,57.1378017 85.0275391,57.382521 84.5080332,57.6571191 C84.347867,57.7439889 84.212133,57.6571191 84.0519668,57.7494183 L84.0519668,57.8390028 C83.8162263,57.9511607 83.570928,58.042012 83.3190028,58.1104709 L83.3651524,58.2027701 L83.1371191,58.2027701 C83.2131302,58.2597784 82.2385596,58.7864266 82.0865374,58.8895845 C81.0766759,59.5628255 79.8876454,60.5183934 79.2035457,61.4956787 C78.9061631,61.98438 78.6343297,62.4881778 78.3891413,63.0050416 C78.1991136,63.3498061 78.212687,63.9606094 78.0688089,64.194072 C78.0498061,64.3569529 78.093241,64.313518 77.9792244,64.3325208 C77.9792244,64.7017175 77.9195014,66.2599446 78.0688089,66.2518006 C78.1130864,66.8171474 78.2857796,67.3649377 78.5737396,67.8534626 L78.5737396,68.1249307 C78.8452078,68.6162881 79.0433795,69.3139612 79.3039889,69.8161773 L79.3039889,70.0876454 L79.3962881,70.0876454 L79.3962881,70.3591136 L79.4858726,70.3591136 L79.4858726,70.6305817 C80.0586704,71.6404432 80.3735734,73.185097 80.9952355,74.3822715 C81.1146814,74.6103047 81.0739612,74.9252078 81.1798338,75.1586704 C81.1988366,75.2075346 81.34,75.392133 81.3617175,75.4301385 C81.4485873,75.6038781 81.3617175,75.7368975 81.4540166,75.8889197 L81.5436011,75.8889197 L81.5436011,76.1603878 C81.6578825,76.4102448 81.7487605,76.670156 81.8150693,76.9367867 L81.8585042,76.9367867 C81.956741,77.1420503 82.0340474,77.3566891 82.0892521,77.5774515 C82.1847142,77.7964792 82.2916396,78.01033 82.4095845,78.2181163 C82.567036,78.5140166 82.5426039,78.9076454 82.6810526,79.2225485 C83.3380055,80.7210526 83.8293629,82.2792798 84.4645983,83.4764543 C84.5460388,83.6311911 84.4645983,83.785928 84.5541828,83.9325208 C84.9586704,84.5976177 85.2029917,85.4880332 85.5613296,86.1748476 L85.5613296,86.4463158 L85.7432133,86.6281994 L85.7432133,86.8996676 C86.0879778,87.5050416 86.3160111,88.2570083 86.7042105,88.9601108 C86.8698061,89.2560111 86.7992244,89.6252078 86.9756787,89.9183934 C87.0842659,90.0975623 87.2471468,90.3690305 87.3421607,90.5590582 C87.4371745,90.7490859 87.3421607,90.8685319 87.4344598,91.0178393 L87.5240443,91.0178393 L87.5240443,91.199723 L87.6163435,91.199723 L87.6163435,91.4711911 L87.7086427,91.4711911 L87.7086427,91.6992244 L87.7982271,91.6992244 L87.7982271,91.9706925 C88.2624377,92.7660942 88.5610526,93.7868144 89.0334072,94.6690859 C89.120277,94.8346814 89.1257064,95.2500277 89.2180055,95.4020499 C89.4433241,95.7875346 89.6523546,96.3359003 89.8559557,96.7268144 L89.8559557,96.9982825 C90.0249884,97.2058733 90.1204547,97.4636322 90.1274238,97.7312465 L119.120222,97.7312465 C119.114792,97.258892 118.848753,96.9467036 118.672299,96.6426593 Z M59.7637119,65.5894183 L59.771856,65.5785596 C60.0591438,65.3901406 60.3798013,65.2583761 60.7165651,65.1903601 C60.7437119,65.2799446 60.7247091,65.233795 60.76,65.2799446 C60.7328532,65.3722438 60.751856,65.3260942 60.7165651,65.3722438 C60.4939612,65.6138504 60.138338,65.6029917 59.8451524,65.7848753 C59.1936288,66.1839335 58.5583934,66.6209972 57.879723,67.0173407 C57.8960111,67.0499169 57.9095845,67.0797784 57.9258726,67.1096399 C57.7168421,67.2046537 57.2770637,67.3919668 57.3829363,67.4761219 C56.5196676,67.8290305 55.8627147,68.5348476 55.186759,69.0777839 L55.0510249,69.0777839 C54.9804432,69.1293629 54.820277,69.3085319 54.8664266,69.3492521 C54.6097884,69.4790009 54.365381,69.6316419 54.1361773,69.8053186 C54.0981717,69.8351801 54.0818837,69.9573407 54.0438781,69.9872022 L53.9054294,69.9872022 C53.8294183,70.0442105 53.7968421,70.1908033 53.7235457,70.2586704 C53.5660942,70.4079778 53.346205,70.4758449 53.1806094,70.6224377 C52.9544987,70.825616 52.7547677,71.0563554 52.5860942,71.3092521 C52.2206535,71.5417497 51.8827763,71.8149657 51.5789474,72.1236565 C51.5355125,72.1643767 51.5327978,72.2621053 51.4893629,72.3082548 C51.2110404,72.547674 50.9506385,72.8071686 50.7102493,73.0846537 C50.645097,73.1796676 50.4089197,73.3886981 50.4822161,73.4511357 C50.1293075,73.6655956 49.3854848,74.5370083 49.0651524,74.9604986 C49,75.0419391 49.0380055,75.153241 48.9728532,75.2319668 C48.1102955,76.282951 47.3306483,77.3993259 46.6409418,78.5710249 L46.6409418,78.8424931 C46.3776177,79.3474238 46.1930194,80.0478116 45.9079778,80.5337396 L45.9079778,80.8052078 L45.8183934,80.8052078 L45.8183934,81.033241 L45.7260942,81.033241 C45.633795,81.1879778 45.7233795,81.3427147 45.633795,81.4920222 C44.9442659,82.6403324 44.526205,84.3315789 43.9425485,85.7432133 C43.725374,86.2725762 43.4837673,86.6824931 43.2557341,87.1629917 C43.0086981,87.6950693 42.9842659,88.2515789 42.7127978,88.7619391 L42.6232133,88.7619391 C42.5336288,88.9139612 42.5173407,89.30759 42.438615,89.494903 C42.3294354,89.7296563 42.2070798,89.9580535 42.072133,90.1790028 C41.9825485,90.339169 42.0639889,90.4884765 41.9825485,90.6377839 L41.8902493,90.6377839 L41.8902493,90.9092521 C41.8658172,90.960831 41.773518,91.1807202 41.7083657,91.0911357 C41.6432133,91.2947368 41.713795,91.4223269 41.6160665,91.5960665 C41.6052078,91.6123546 41.4939058,91.6530748 41.4776177,91.685651 L41.5237673,91.8240997 L41.3880332,91.8702493 L41.4341828,92.0059834 C41.219723,92.4620499 40.9455402,93.0077008 40.7473684,93.4691967 L40.7473684,93.7406648 C40.538338,94.1560111 40.3455956,94.7125208 40.1067036,95.1142936 L40.1067036,95.3423269 L40.0144044,95.3423269 L40.0144044,95.5703601 L39.9248199,95.5703601 L39.9248199,95.7983934 L39.8325208,95.7983934 L39.8325208,96.0698615 C39.7320776,96.2707479 39.2895845,97.1231579 39.3737396,97.2127424 C39.2359446,97.344574 39.1542715,97.5244494 39.1457064,97.7149584 L10.7501385,97.7149584 C10.8131155,97.3217317 10.9695146,96.949353 11.206205,96.6290859 C11.2985042,96.4797784 11.2116343,96.3331856 11.2985042,96.1703047 C11.5075346,95.7766759 11.7057064,95.2310249 11.939169,94.8455402 C12.0314681,94.6908033 11.9445983,94.5469252 12.0314681,94.386759 L12.2133518,94.2048753 C12.305651,94.0338504 12.2160665,93.8709695 12.305651,93.7026593 L12.3952355,93.7460942 L12.3952355,93.474626 C12.3952355,93.474626 12.501108,93.5044875 12.5336842,93.4284765 L12.4875346,93.2927424 L12.6259834,93.2465928 C12.6968045,92.9963103 12.7875849,92.752111 12.8974515,92.5163435 C14.5092139,90.5275646 16.3705228,88.754759 18.4354017,87.2417175 L18.3892521,87.152133 C19.2140906,86.6507775 20.0081962,86.100524 20.767313,85.5043213 C20.8840443,85.4228809 21.619723,85.0971191 21.500277,85.0021053 C22.3112421,84.6312878 23.0779727,84.170521 23.7860388,83.6284765 C23.954349,83.5144598 24.7253186,83.180554 24.7008864,83.0855402 L24.7008864,83.0393906 C24.8013296,82.9986704 25.1488089,82.9606648 25.0212188,82.8575069 C25.1352355,82.814072 25.6048753,82.6837673 25.4772853,82.5860388 C25.8128701,82.4673563 26.1349877,82.313577 26.4382825,82.1272576 L26.4382825,82.0376731 C26.6011634,81.9263712 26.7803324,81.961662 26.9404986,81.8530748 C26.9757895,81.8313573 27.0436565,81.6956233 27.0789474,81.6711911 C27.3938504,81.4404432 27.7793352,81.3970083 28.0833795,81.1689751 L28.0833795,81.0739612 C28.1892521,80.9898061 28.3738504,81.0169529 28.3548476,80.9355125 L28.3548476,80.8920776 C28.4552909,80.8486427 28.8027701,80.8106371 28.6724654,80.7074792 C28.786482,80.6640443 29.3131302,80.5445983 29.1773961,80.4360111 C29.5327166,80.2958561 29.8699374,80.1135746 30.1818283,79.8930748 C30.3392798,79.7844875 30.5265928,79.814349 30.686759,79.7111911 C31.9490859,78.885928 32.9209418,78.3945706 34.3,77.6534626 C35.7930748,76.8417729 37.2427147,76.1468144 38.7792244,75.3188366 C39.2054294,75.0880886 39.5176177,75.0283657 39.8786704,74.8166205 L39.8786704,74.7243213 C39.9601108,74.6727424 40.3781717,74.6483102 40.2451524,74.5424377 C40.7745627,74.3596605 41.2803363,74.1145198 41.7518006,73.8121884 C41.9092521,73.7117452 42.1807202,73.7226039 42.3463158,73.62759 C43.2041551,73.133518 44.0728532,72.7778947 44.8628255,72.3028255 L45.0908587,72.3028255 L45.0908587,72.2105263 L45.2754571,72.2105263 L45.2754571,72.1019391 L45.5034903,72.1019391 C46.2011634,71.7327424 47.0074238,71.352687 47.7431025,71.0160665 C47.8761219,70.9563435 48.6145152,70.6767313 48.5222161,70.6034349 C48.7395678,70.5570801 48.9535953,70.4963181 49.1628809,70.4215512 L49.1628809,70.3292521 L49.3909141,70.3292521 C50.3356233,69.8161773 51.4214958,69.3166759 52.3173407,68.7303047 C52.4639335,68.6325762 53.1208864,68.4914127 53.0937396,68.4099723 L53.0937396,68.3773961 C53.1778947,68.3475346 53.4385042,68.4099723 53.278338,68.285097 C54.2774023,67.9140248 55.2544675,67.4862189 56.2047645,67.0037673 C56.3323546,66.9413296 57.1576177,66.6970083 57.019169,66.5938504 C57.2526316,66.5178393 57.8525762,66.4363989 57.7059834,66.3223823 L57.9340166,66.3223823 C58.3493629,66.1079224 58.8787258,65.8717452 59.3049307,65.6817175 C59.4922438,65.6029917 59.5954017,65.6790028 59.7637119,65.5894183 Z M122.689751,11.8957341 L122.687036,11.3039335 C122.507867,10.9320222 122.44,9.45252078 122.597452,9.03174515 L122.597452,8.30692521 C122.623701,8.02890602 122.684808,7.75529129 122.779335,7.49252078 L122.779335,7.07717452 C122.935745,6.64360099 123.117025,6.21940671 123.322271,5.8067036 C123.414571,5.64110803 123.330416,5.51894737 123.414571,5.3533518 C123.596454,5.38049861 123.490582,5.25290859 123.596454,5.08188366 L123.686039,5.08188366 C123.76205,4.95429363 123.696898,4.84299169 123.778338,4.71811634 C124.250693,3.97972299 124.948366,3.38520776 125.456011,2.6766759 C125.643324,2.66038781 126.457729,1.90299169 126.729197,1.63152355 C126.949086,1.63423823 127.111967,1.39806094 127.318283,1.26775623 L127.500166,1.26775623 C127.530028,1.24875346 127.559889,1.10759003 127.589751,1.08587258 L127.771634,1.08587258 L127.771634,0.99900277 L127.953518,0.99900277 L127.953518,0.909418283 L128.181551,0.909418283 C128.784211,0.567368421 129.661053,0.135734072 130.586759,0.135734072 L130.586759,1.60878255e-14 L133.629917,1.60878255e-14 L133.629917,0.135734072 L134.265152,0.135734072 L134.265152,0.271468144 C135.131136,0.271468144 135.682216,0.662382271 136.260443,0.909418283 C136.469474,0.996288089 136.724654,0.971855956 136.895679,1.08858726 C137.126427,1.24603878 137.278449,1.49036011 137.623213,1.54465374 L137.623213,1.68038781 C138.071136,1.69939058 139.138006,2.96714681 139.485485,3.36077562 C139.575069,3.46393352 139.786814,3.54265928 139.846537,3.63224377 C139.90626,3.72182825 140.158726,4.28648199 140.256454,4.13174515 C140.310748,4.24304709 140.430194,4.66925208 140.527922,4.54166205 C140.606155,4.77259779 140.696776,4.99914975 140.799391,5.22033241 C140.815679,5.25019391 140.962271,5.28277008 140.981274,5.31263158 C141.070859,5.46736842 140.983989,5.63567867 141.070859,5.81213296 L141.160443,5.81213296 C141.239169,5.94515235 141.212022,6.29806094 141.298892,6.26548476 L141.342327,6.26548476 L141.342327,6.58310249 C141.3559,6.60753463 141.524211,6.65096953 141.524211,6.67540166 L141.524211,7.03102493 C141.613795,7.28077562 141.695235,7.71512465 141.795679,7.9865928 L141.795679,8.80099723 C141.923269,9.0833241 141.885263,9.64526316 141.885263,10.0714681 C141.885263,10.9917452 141.708809,12.2622161 141.342327,12.8404432 L141.342327,13.1119114 L141.252742,13.1119114 L141.252742,13.3372299 L141.160443,13.3372299 L141.160443,13.6086981 L141.070859,13.6086981 L141.070859,13.8801662 L140.981274,13.8340166 C140.956842,13.9100277 140.818393,14.4339612 140.709806,14.2900831 C140.202161,15.6854294 138.513629,17.1486427 137.34903,18.0119114 C137.05313,18.2345152 136.599778,18.3159557 136.352742,18.4652632 C136.325596,18.4815512 136.284875,18.6308587 136.260443,18.6471468 L136.124709,18.6471468 C136.045983,18.6607202 134.715789,19.1303601 134.715789,19.1466482 L134.715789,19.1927978 L134.262438,19.1927978 C133.665208,19.4669806 132.620055,19.3746814 131.764931,19.3746814 L130.858227,19.3746814 L130.858227,19.2823823 C130.627479,19.1575069 130.027535,19.3176731 129.772355,19.1927978 L129.772355,19.1004986 C129.612188,19.0109141 129.460166,19.0977839 129.272853,19.0109141 L129.272853,18.9213296 C129.12626,18.8290305 128.797784,18.9104709 128.637618,18.8290305 C128.358006,18.6905817 128.227701,18.500554 127.866648,18.4652632 L127.866648,18.3295291 C127.13097,18.253518 125.97723,17.1214958 125.458726,16.6057064 C124.503595,15.6624923 123.720015,14.5601527 123.143102,13.3480886 L123.143102,13.0766205 C123.009236,12.8261796 122.888716,12.5688299 122.78205,12.305651 L122.78205,11.8957341 L122.689751,11.8957341 Z M145.256898,92.1715789 L145.254183,92.1715789 C145.411634,92.478338 145.297618,93.1814404 145.297618,93.5696399 C145.300332,94.9378393 145.53108,96.9629917 144.798116,97.4760665 C144.450637,97.7231025 143.763823,97.6579501 143.169307,97.6579501 L125.143823,97.6579501 C123.422715,97.6579501 119.717175,98.067867 119.605873,96.7946814 C119.445706,96.5422161 119.559723,95.1685873 119.559723,94.7505263 L119.559723,92.307313 C119.722604,91.6747922 120.645596,90.6106371 121.46,90.5373407 L121.46,90.4016066 C121.962216,90.2821607 122.958504,89.3754571 123.229972,88.992687 L123.229972,88.8108033 C123.25169,88.7809418 123.392853,88.7076454 123.411856,88.6750693 L123.411856,88.4931856 C123.672465,88.5094737 123.642604,88.020831 123.775623,87.7683657 L123.865208,87.8118006 L123.865208,87.4941828 L123.954792,87.5403324 L123.954792,87.2227147 L124.136676,87.040831 L124.136676,86.6309141 C124.519446,86.0119668 124.364709,84.638338 124.364709,83.6800554 L124.364709,38.6353463 C124.364709,36.9495291 124.500443,34.9786704 124.228975,33.5045983 L124.136676,33.5968975 C124.149544,33.2585258 124.054473,32.9248282 123.865208,32.6440443 L123.865208,32.3725762 L123.775623,32.3725762 L123.775623,32.101108 L123.699612,32.101108 L123.699612,31.9192244 L123.610028,31.9192244 L123.610028,31.7373407 C123.058581,30.9120942 122.366723,30.1899158 121.565873,29.6036011 C121.316122,29.4217175 120.846482,29.3619945 120.702604,29.1963989 C120.670028,29.1475346 120.675457,29.152964 120.656454,29.0579501 L120.477285,29.0579501 C120.379557,28.7891967 119.858338,28.5041551 119.7959,28.3765651 C119.703601,28.1946814 119.806759,28.1946814 119.703601,28.0155125 L119.600443,28.0155125 C119.45928,27.7521884 119.554294,27.1386704 119.554294,26.7884765 C119.554294,25.7351801 119.380554,23.5091413 119.782327,23.0204986 L119.964211,22.974349 C120.556011,22.5209972 120.770471,22.6730194 121.641884,22.5209972 C121.63374,22.360831 122.233684,22.4286981 122.505152,22.4286981 L125.366427,22.4286981 C125.523878,22.2006648 126.026094,22.4368421 126.31928,22.3391136 C127.079391,22.0839335 129.055679,22.2495291 130.043823,22.2495291 C130.032964,22.0893629 130.632909,22.1572299 130.904377,22.1572299 L133.749363,22.1572299 L133.749363,22.1110803 C133.52133,22.1192244 133.119557,22.1599446 132.978393,22.0676454 L135.693075,22.0676454 C135.988975,22.0676454 136.572632,22.1518006 136.778947,22.0214958 C136.689363,21.9916343 136.735512,22.0133518 136.689363,21.9753463 L140.489917,21.9753463 C140.644654,22.4531302 140.533352,23.272964 140.533352,23.8376177 L140.533352,86.1775623 L140.579501,86.1775623 C140.609363,86.0879778 140.587645,86.1341274 140.625651,86.0879778 C140.620222,87.9231025 141.985706,89.5410526 143.030859,90.2631579 L143.212742,90.2631579 L143.212742,90.3554571 C143.302327,90.4206094 143.413629,90.4857618 143.484211,90.5373407 L143.622659,90.5373407 L143.622659,90.6269252 L143.847978,90.6269252 C144.446715,91.0072475 144.933093,91.5404829 145.256898,92.1715789 Z M188.399959,57.6078246 L188.399959,67.7580098 L208.504034,67.7580098 L208.504034,77.5605859 L188.399959,77.5605859 L188.399959,96.6790855 L176,96.6790855 L176,47.4576393 L210.191602,47.4576393 L210.191602,57.6078246 L188.399959,57.6078246 Z M246.070772,96.6790855 L234.844774,77.143455 L230.589167,77.143455 L230.589167,96.6790855 L218.262581,96.6790855 L218.262581,47.4576393 L238.073166,47.4576393 C240.567845,47.4576393 243.001343,47.7009633 245.373733,48.1876184 C247.746124,48.6742736 249.873906,49.4969402 251.757144,50.6556429 C253.640382,51.8143456 255.144504,53.3438103 256.269555,55.2440828 C257.394606,57.1443553 257.957123,59.5080734 257.957123,62.3353081 C257.957123,65.672372 257.00329,68.4763905 255.095594,70.7474479 C253.187899,73.0185053 250.546514,74.6406648 247.17136,75.6139751 L260.74528,96.6790855 L246.070772,96.6790855 Z M245.557165,62.5438735 C245.557165,61.3851708 245.300363,60.4466357 244.786753,59.72824 C244.273143,59.0098443 243.612796,58.4536753 242.805694,58.0597164 C241.998592,57.6657574 241.093674,57.3992598 240.090911,57.2602155 C239.088148,57.1211711 238.122086,57.05165 237.192695,57.05165 L230.515795,57.05165 L230.515795,68.5227498 L236.45897,68.5227498 C237.486191,68.5227498 238.537853,68.4416418 239.613989,68.2794234 C240.690125,68.117205 241.668416,67.8275337 242.548891,67.4104007 C243.429365,66.9932677 244.150855,66.3907513 244.71338,65.6028335 C245.275906,64.8149156 245.557165,63.7952725 245.557165,62.5438735 Z M321.057505,71.859797 C321.057505,75.7530382 320.348244,79.3102022 318.929701,82.5313958 C317.511158,85.7525894 315.542348,88.5102606 313.023212,90.804492 C310.504075,93.0987234 307.50806,94.871512 304.035076,96.122911 C300.562092,97.3743099 296.795673,98 292.735705,98 C288.675738,98 284.921548,97.3743099 281.473021,96.122911 C278.024495,94.871512 275.040708,93.0987234 272.521572,90.804492 C270.002435,88.5102606 268.033625,85.7525894 266.615083,82.5313958 C265.19654,79.3102022 264.487279,75.7530382 264.487279,71.859797 C264.487279,67.9202077 265.19654,64.3630436 266.615083,61.1881981 C268.033625,58.0133526 270.002435,55.3136157 272.521572,53.0889065 C275.040708,50.8641972 278.024495,49.1493429 281.473021,47.944292 C284.921548,46.7392412 288.675738,46.1367248 292.735705,46.1367248 C296.795673,46.1367248 300.562092,46.7392412 304.035076,47.944292 C307.50806,49.1493429 310.504075,50.8641972 313.023212,53.0889065 C315.542348,55.3136157 317.511158,58.0133526 318.929701,61.1881981 C320.348244,64.3630436 321.057505,67.9202077 321.057505,71.859797 Z M307.63033,71.859797 C307.63033,69.7277839 307.263471,67.7348451 306.529742,65.8809207 C305.796013,64.0269964 304.781037,62.4395974 303.484782,61.1186763 C302.188527,59.7977552 300.623262,58.7549384 298.78894,57.9901945 C296.954617,57.2254507 294.936893,56.8430846 292.735705,56.8430846 C290.534518,56.8430846 288.529022,57.2254507 286.719157,57.9901945 C284.909293,58.7549384 283.344027,59.7977552 282.023315,61.1186763 C280.702603,62.4395974 279.687626,64.0269964 278.978355,65.8809207 C278.269084,67.7348451 277.914453,69.7277839 277.914453,71.859797 C277.914453,74.0845062 278.281312,76.1353793 279.015041,78.0124777 C279.74877,79.8895762 280.763747,81.5001488 282.060001,82.844244 C283.356256,84.1883392 284.909293,85.2427428 286.719157,86.0074866 C288.529022,86.7722304 290.534518,87.1545966 292.735705,87.1545966 C294.936893,87.1545966 296.942389,86.7722304 298.752253,86.0074866 C300.562118,85.2427428 302.127384,84.1883392 303.448096,82.844244 C304.768808,81.5001488 305.796013,79.8895762 306.529742,78.0124777 C307.263471,76.1353793 307.63033,74.0845062 307.63033,71.859797 Z M362.366243,96.6790855 L341.45507,64.4904844 L341.234952,64.4904844 L341.528442,96.6790855 L329.348601,96.6790855 L329.348601,47.4576393 L343.656246,47.4576393 L364.494046,79.5767186 L364.714164,79.5767186 L364.420674,47.4576393 L376.600515,47.4576393 L376.600515,96.6790855 L362.366243,96.6790855 Z M409.544784,57.6078246 L409.544784,96.6790855 L396.99808,96.6790855 L396.99808,57.6078246 L382.323572,57.6078246 L382.323572,47.4576393 L424.219291,47.4576393 L424.219291,57.6078246 L409.544784,57.6078246 Z M429.942349,96.6790855 L429.942349,47.4576393 L442.562425,47.4576393 L442.562425,96.6790855 L429.942349,96.6790855 Z M453.274815,96.6790855 L453.274815,47.4576393 L488.200143,47.4576393 L488.200143,57.5383027 L465.381284,57.5383027 L465.381284,66.7847043 L486.952809,66.7847043 L486.952809,76.3091932 L465.381284,76.3091932 L465.381284,86.5289003 L489.520848,86.5289003 L489.520848,96.6790855 L453.274815,96.6790855 Z M525.620136,96.6790855 L514.394138,77.143455 L510.138531,77.143455 L510.138531,96.6790855 L497.811945,96.6790855 L497.811945,47.4576393 L517.62253,47.4576393 C520.117208,47.4576393 522.550707,47.7009633 524.923097,48.1876184 C527.295488,48.6742736 529.42327,49.4969402 531.306508,50.6556429 C533.189746,51.8143456 534.693868,53.3438103 535.818919,55.2440828 C536.94397,57.1443553 537.506487,59.5080734 537.506487,62.3353081 C537.506487,65.672372 536.552654,68.4763905 534.644958,70.7474479 C532.737263,73.0185053 530.095878,74.6406648 526.720724,75.6139751 L540.294643,96.6790855 L525.620136,96.6790855 Z M525.106528,62.5438735 C525.106528,61.3851708 524.849727,60.4466357 524.336117,59.72824 C523.822506,59.0098443 523.16216,58.4536753 522.355058,58.0597164 C521.547956,57.6657574 520.643037,57.3992598 519.640274,57.2602155 C518.637511,57.1211711 517.671449,57.05165 516.742059,57.05165 L510.065158,57.05165 L510.065158,68.5227498 L516.008334,68.5227498 C517.035555,68.5227498 518.087217,68.4416418 519.163353,68.2794234 C520.239489,68.117205 521.21778,67.8275337 522.098254,67.4104007 C522.978729,66.9932677 523.700219,66.3907513 524.262744,65.6028335 C524.82527,64.8149156 525.106528,63.7952725 525.106528,62.5438735 Z M573.899265,60.2496536 C572.823129,58.9519065 571.416836,57.9206766 569.680344,57.1559327 C567.943852,56.3911889 566.268529,56.0088228 564.654326,56.0088228 C563.822766,56.0088228 562.97899,56.0783439 562.122973,56.2173882 C561.266956,56.3564326 560.496552,56.6229302 559.811738,57.0168891 C559.126924,57.410848 558.552179,57.9206696 558.087484,58.5463691 C557.622788,59.1720686 557.390444,59.9715615 557.390444,60.9448718 C557.390444,61.7791377 557.573874,62.4743489 557.940738,63.0305262 C558.307603,63.5867036 558.845663,64.0733514 559.554934,64.4904844 C560.264206,64.9076174 561.107981,65.2899836 562.086287,65.6375944 C563.064592,65.9852052 564.165169,66.3443977 565.388051,66.7151825 C567.149001,67.2713598 568.983296,67.8854631 570.890991,68.5575107 C572.798687,69.2295583 574.535153,70.121746 576.100441,71.2341006 C577.66573,72.3464552 578.961965,73.7252908 579.989186,75.3706487 C581.016406,77.0160066 581.530009,79.0668797 581.530009,81.5233295 C581.530009,84.3505641 580.97972,86.7953902 579.879127,88.8578811 C578.778533,90.920372 577.298869,92.6236395 575.440088,93.9677346 C573.581308,95.3118298 571.453526,96.3082992 569.056678,96.9571728 C566.65983,97.6060463 564.189646,97.9304782 561.646052,97.9304782 C557.928491,97.9304782 554.333273,97.3163749 550.860289,96.08815 C547.387305,94.8599251 544.501347,93.1103103 542.202329,90.8392529 L550.420053,82.9137658 C551.69185,84.3969053 553.367173,85.6366986 555.446072,86.633183 C557.524971,87.6296673 559.59161,88.127902 561.646052,88.127902 C562.575442,88.127902 563.480361,88.0352072 564.360835,87.8498148 C565.24131,87.6644223 566.011714,87.3631641 566.67207,86.9460312 C567.332426,86.5288982 567.858258,85.9727292 568.24958,85.2775076 C568.640902,84.5822859 568.83656,83.7480325 568.83656,82.7747222 C568.83656,81.84776 568.591987,81.0598539 568.102835,80.4109804 C567.613682,79.7621069 566.91665,79.1711773 566.011717,78.6381741 C565.106785,78.1051708 563.981751,77.618523 562.636581,77.1782159 C561.291411,76.7379089 559.762832,76.2628479 558.050797,75.7530187 C556.387678,75.2431895 554.76127,74.6406731 553.171524,73.9454515 C551.581777,73.2502298 550.163256,72.3580421 548.915916,71.2688615 C547.668577,70.1796809 546.665829,68.8587796 545.907642,67.306118 C545.149456,65.7534563 544.770368,63.8647992 544.770368,61.6400899 C544.770368,58.9055515 545.357343,56.565007 546.531309,54.6183864 C547.705275,52.6717658 549.246083,51.0727801 551.153779,49.8213811 C553.061474,48.5699821 555.213714,47.6546207 557.610562,47.0752693 C560.00741,46.495918 562.42868,46.2062466 564.874443,46.2062466 C567.809359,46.2062466 570.805375,46.7160682 573.862579,47.7357266 C576.919783,48.755385 579.597854,50.261676 581.896872,52.2546447 L573.899265,60.2496536 Z" id="path-1"></path>
        <linearGradient x1="50%" y1="0%" x2="50%" y2="100%" id="linearGradient-3">
            <stop stop-color="#2587B7" offset="0%"></stop>
            <stop stop-color="#113D68" offset="100%"></stop>
        </linearGradient>
    </defs>
    <g id="AI-Frontiers-blue-Copy" stroke="none" stroke-width="1" fill="none" fill-rule="evenodd">
        <mask id="mask-2" fill="white">
            <use xlink:href="#path-1"></use>
        </mask>
        <use id="AI-Frontiers" fill="#FFFFFF" xlink:href="#path-1"></use>
        <rect id="Rectangle" fill="url(#linearGradient-3)" fill-rule="nonzero" mask="url(#mask-2)" x="0" y="0" width="903" height="98"></rect>
    </g>
</svg>