<svg xmlns="http://www.w3.org/2000/svg" viewBox="0 0 546.43 360"><defs><style>.cls-1{fill:#fff;fill-rule:evenodd;}</style></defs><title>Asset 3</title><g id="Layer_1-2" data-name="Layer 1"><path class="cls-1" d="M121.29,182.27c1.51,1.8,4,3.94,7.25,3.88-.18.13,0,.06-.34.17v.17h6.4c-.17-.14,0-.07-.34-.17.87-.55,2.55-.19,3.54-.51,2.89-.94,6.56-1.48,9.43-2.53,1.08-.39,1.93.06,3-.33s3.15-.8,4.38-1.35h1.68v-.34H158v-.33h1.51v-.34h1.52v-.34c.73-.33,1.08.27,1.51-.33,1,0,1.61.13,1.69-.34,1,0,1.61.14,1.68-.34.95,0,1.45.13,1.52-.34a17.53,17.53,0,0,0,4.89-1c1.91-.53,3.86-.66,5.55-1.18h1.35c3.41-1,7.59-1.18,10.95-2.35H192c.69-.24,5.2-1.08,5.4-1.35,1,0,1.94.15,2-.34,1,0,2.1.17,2.19-.33,1,0,1.77.14,1.85-.34,1,0,1.77.14,1.85-.34,1,0,1.94.16,2-.34h2.36c-.17-.13,0-.06-.33-.16.51-.33,1.53.12,2.19-.17,1.16-.52,3.22-.78,4.54-1.18h1.69c2.75-.73,6.31-.77,8.93-1.69h2a33.43,33.43,0,0,1,8.76-1.34l.17-.17v-.84c-5,0-8.31-2.55-10.78-4.55l.16-.34a7.42,7.42,0,0,1-1.51-2v-.68a6.9,6.9,0,0,1-.34-5.22v-1.35c.63-1.15.76-2.4,1.35-3.7,1.46-3.22,2.8-7.06,4.55-10.45v-1a43.58,43.58,0,0,0,2-4.38v-.84a39.26,39.26,0,0,0,3.54-8.93c.32.45,1.6-3.28,1.68-4h.17a21.39,21.39,0,0,0,1.85,4.38c.37.72.09,1.24.34,2,.39-.52.53,1.23.67,1.69a37.78,37.78,0,0,1,1.86,3.53c2.94,6.7,5.12,16.77,9.09,20.72a45.41,45.41,0,0,0,9.61,6.57c.66.35,1.09.09,1.85.34-.44.33,4.41,1.72,5.05,2H270c.89.36,2.46.69,3.37,1h2a22.79,22.79,0,0,0,6.74.68,12.37,12.37,0,0,1,1.85.33c.88-.25,2.67,0,3.88-.33a31.18,31.18,0,0,1,7.41-.68,34.74,34.74,0,0,0,7.08-.67c1.58-.48,4,0,5.22-.34,1.6-.48,4.29.05,5.73-.33h6.23c1.86-.53,4.86-.34,7.24-.34h2.36a11.59,11.59,0,0,1,3.54-.34c2.64,0,6.92.57,8.93-.34h41.27c.89,0,2.44.2,3-.16.14-.18.07-.05.17-.34-.11-.11-.22-.23-.34-.34-.82-.57-2.85-.4-3.87-.84a77.13,77.13,0,0,1-8.42-3.87c-.48-.29-1.58-.39-2-.68-1.77-1.16-3.78-2.13-5.56-3.37a31,31,0,0,0-4-2.86l.17-.34c-.31-.23-.71-.09-1-.34-.14-.11-.2-.56-.34-.67-.3-.24-.71-.09-1-.34-1.68-1.37-3.1-3.49-5.05-4.54.43-.38-1.2-1.19-2-2-1.87-1.89-3.36-4.16-5.39-5.89.13-.15-.09-.74-.34-1s-.8-.4-1-.68c-4-5.38-7.06-10.92-10.61-16.51-.47-.73-.36-1.49-.68-2.35-.14.19-.89-.79-1-1s.05-.78,0-.84A27.75,27.75,0,0,1,332,106.8v-.67h-.34c-.31-.55,0-1.14-.34-1.68-.74-1.22-1.33-3-2-4.22-.3-.55,0-1.14-.34-1.68-1.1-1.81-1.62-3.51-2.69-5.56-.35-.66-.06-1.15-.34-1.85-.61.91-1.74-4-2.19-4.72h-.34a3.15,3.15,0,0,0-.33-1.68h-.34c-.3-.56,0-1.15-.34-1.69s-1-1.63-1.34-2.36v-.84h-.34c-.31-.6,0-1.14-.34-1.68h-.34v-.68h-.33v-1c-1.29-2.21-2.29-5-3.54-7.24-.31-.56,0-1.15-.34-1.69h-.33c-.31-.54-.07-.94-.34-1.51s-.81-1.2-1-1.69v-.84c-1.79-4.06-3-6.9-4.55-9.77-.31-.56,0-1.14-.34-1.69-.88-1.45-1.56-3.37-2.36-4.88-.31-.6,0-1.14-.33-1.69-1.12-1.79-1.63-3.51-2.7-5.55-.34-.66-.06-1.16-.33-1.86-.51.77-1.58-3.28-1.86-3.87-1.29-2.77-2.76-6.76-4.38-9.77-.32-.6,0-1.13-.33-1.69h-.34v-1h-.17c-.31.11-.22-.9-.51-1.35h-.33c-.2-.32,0-.78,0-.84s-.43-.17-.51-.34c-.36-.84-.2-1.58-.67-2.35-1.64-2.67-2.5-6.16-4-8.93-.33-.59-.9-3.12-1.18-3a14.41,14.41,0,0,1-1.18-3c-.29-.68-.75-.95-.84-1.85h-96c-.25,2-1.68,4-2.52,5.56v1h-.34c-.33.56,0,1.06-.34,1.68h-.34v.68L187,9.6v1h-.34c-.32.57,0,1.08-.33,1.69H186v.84c-2.37,4.34-3.87,9.49-6.23,13.81v1c-.75,1.43-1.55,3.33-2.36,4.72-.71,1.22-.66,3-1.35,4.21-1.82,3.26-2.37,5.82-4.21,8.93-.33.56,0,1.08-.34,1.69s-.94,1.83-1.34,2.52c-.7,1.18-.68,2.84-1.35,4-2.57,4.57-3.92,10.25-6.57,14.82-.84,1.44-.87,3.42-1.69,4.89-1.67,3-2.58,6-4.21,8.92v1l-.67.68v1C154.3,88,153,91.72,151.78,94c-.34.66-.88,2.77-1.34,2.7-.32.66,0,1.18-.34,1.85-.21.41-.81,1.06-1,1.52-.47,1.06-.46,2.39-1,3.36-2.57,4.51-4,9.78-6.24,13.82v1l-.67.67v1c-.75,1.43-1.55,3.29-2.36,4.72-.4.71-.28,1.81-.67,2.53-.58,1-1.25,2.33-1.86,3.37-.38.65,0,1.59-.67,1.51-.43.9-.31,1.72-.67,2.7l-.34-.17v.84h-.34c-.33.56,0,1.06-.33,1.69l-.68.67c-.32.55,0,1.12-.33,1.69-.54,1-1.23,2.31-1.69,3.36v.85c-1.81,3.36-2.76,6.34-4.55,9.6v1c-.78,1.51-1.51,3.42-2.36,4.89-.31.55,0,1.12-.33,1.68-.82,1.46-1.7,3.26-2.53,4.72-.47.83-.29,3.06-1,3.53,0,.93.12,1.28-.34,1.35,0,1,.14,1.61-.33,1.69v6.4C119.89,178.41,121,181.88,121.29,182.27Zm167,24.43h1c1.55-.87,4-1.25,5.56-2,.8-.39,1.57.09,2.35-.34,2.1-1.15,4.52-1.27,7.08-2-.06-.11-.11-.22-.17-.34h1.35l-.17-.33h1.35c-.17-.13,2.17-1.06,2.52-1.18,1.15-.4,2.27-.22,3.37-.68,4.59-1.88,9.78-2.56,14.83-4l-.17-.34h1.52v-.33h1.18v-.34h1.34v-.34c.73-.34,1.69-.09,2.53-.33l-.17-.34h1.52c-.58-.42,2-.65,2.52-.84,2.85-1,6.56-1.46,9.27-2.7h1.52c.69-.27,5.18-1.38,5.39-1.68,1,0,1.44.12,1.51-.34,1,0,3.91-.54,4.21-1,.93,0,1.28.12,1.35-.34,1,0,1.44.13,1.52-.33a10.21,10.21,0,0,0,4.55-1.18h1.34c1.84-.62,4.29-1,6.07-1.69h1.35c1.81-.71,4.34-.9,6.06-1.68h1.52v-.34h1.68v-.34h1.52v-.33c1-.46,2.3.16,2.86-.68.95,0,1.44.13,1.52-.33h2c-.17-.14,0-.07-.34-.17,1-.6,4.15-.36,4.72-1.18.95,0,1.44.12,1.52-.34a11.65,11.65,0,0,0,3.7-.84h1.35c.94-.36,2.59-.66,3.54-1H409c3.73-1.2,6.05-.78,8.59-3.37.13-.13.58-.2.68-.34.3-.42,1.35-3.81,1-4.71a10,10,0,0,0-2.87-4.55c-.47-.41-2.28-.83-2.19-1.18H397.57a4.56,4.56,0,0,0,2,.17v.16H390c-1,0-2.9-.25-2.87.34a44.72,44.72,0,0,0-8.08.51c-1.94.45-4.51,0-6.07.33-1.71.4-3.85,0-5.22.34H363.2c-2.83.63-6.72.22-9.43,1H350.4c-3.47,1-8.6.2-12,1.35h-3c-1.77.61-4.88.27-6.57,1-.86.38-2.55,0-3.36.34-1,.45-2.61-.51-3.21.33-1.08,0-2.77-.19-2.86.34-1.09,0-2.77-.19-2.86.34-1.09,0-2.78-.2-2.87.33H310.3c.18.14.05.07.34.17v.17c-1.1,0-2.94-.2-3,.34-1.07,0-2.61-.19-2.7.34a21.27,21.27,0,0,0-5.72.84h-2.36c-2.46.6-5.71.64-8.09,1.35h-2c-2.39.7-5.78.54-8.09,1.34h-2c-1.4.49-3.91.44-5.22,1h-2.53V175h-2.19v.34h-2.19a14,14,0,0,1-5.22.67c.17.14,0,.06.34.17v.17c-1.08,0-2.43-.23-2.53.33-1,0-4.08.22-4.38.68-1,0-2.11-.17-2.19.34-1,0-2.11-.17-2.19.33a24.85,24.85,0,0,0-6.74,1.18h-1.85c-1.94.57-4.69.69-6.57,1.35H231.3c-1.12.39-3.07.61-4.22,1h-1.85a24.81,24.81,0,0,1-7.92,1.35c.18.13.05.06.34.17-.88.53-3.33,0-3.87.84-1,0-1.61-.14-1.69.34-1,0-1.77-.15-1.85.33-1,0-1.94-.15-2,.34-1,0-1.78-.15-1.86.34a18.1,18.1,0,0,0-5.39,1.18h-1.51a39.32,39.32,0,0,0-5.39,1.34h-1.52c-2.06.73-5,.81-6.91,1.69h-1.51v.33h-1.69v.34c-1.14.51-2.72-.25-3.37.68-.95,0-1.44-.13-1.51.33-.95,0-1.45-.12-1.52.34-1,0-1.61-.14-1.68.34-.76,0-1.57-.15-1.86.33-.93,0-1.27-.11-1.34.34-.95,0-1.45-.13-1.52.34a18.06,18.06,0,0,0-5,1.18c-2,.62-4.06.69-5.9,1.34h-1.52c-3,1.33-7.15,1.36-10.1,2.7h-1.52c-.89.4-5.4,1.22-5.73,1.68-.91,0-1.11-.1-1.18.34-.95,0-1.44-.13-1.51.34A18,18,0,0,0,131.4,202c-1,.36-1.73,0-2.7.34-2,.74-4.81,1.14-6.73,2h-1.35v.34c-1,.46-3.33.22-3.88,1-.93,0-1.27-.12-1.34.34-.85,0-2.25.21-2.53.67-.91,0-1.11-.1-1.18.34-.93,0-1.28-.12-1.35.33-.93,0-1.27-.11-1.35.34a6.83,6.83,0,0,0-2.86.84c-.82.33-1.32.06-2.19.34-1.17.37-2.76.92-3.87,1.35-.89.34-1.44,0-2.36.34-2.26.82-5.26,1.34-7.42,2.35H89.12v.34H87.94v.34c-1,.45-3.17.25-3.71,1-.87,0-1-.11-1,.34-.91,0-1.11-.11-1.18.33-1.9,0-3.44,1-4.89,1.52-2.29.88-4.68,1-6.73,2h-1c-.68.28-1.85.75-2.53,1h-1c-.93.52-2.39.88-3.37,1.35H61.32c-3.37,1.86-8,2.28-12,4.21h-1c-2.14,1.22-4.82,1.56-7.41,2.36l.16.34c-1,.45-2.65.16-3.2,1-.84,0-.79-.11-.84.33-.91,0-1.11-.1-1.18.34-2,.05-4.37,1.44-6.23,2.19-6,2.44-13.25,2.84-15.67,7.92v1.35c-.55,1-.61,3.08-1,4.21v2c-.52,1-.68,2.95-1,4v2.19c-1,1.94-1.06,5.81-1.68,8.09v1.85c-.63,1.6-.57,5.17-1.52,6.4,0,1,.14,1.61-.34,1.69,0,1-.17,3.72-.67,4,0,1,.15,1.77-.34,1.85,0,.78.16,1.73-.33,2,0,1,.15,1.95-.34,2,0,1,.16,2.1-.34,2.19a17.7,17.7,0,0,1-1,5.89v2.19H5.05v2H4.72v2H4.38c-.45,1,.11,2.84-.34,3.87-.75,1.73-.8,4.57-1.34,6.4s-.56,7.35-1.52,8.26c0,1,.14,1.6-.34,1.68,0,3.08-.84,5-.84,8.42v2.19a11.82,11.82,0,0,0,2.7,3.37c1,.63,4.45,1.48,5.89.68,1.81-1,3.89-2.46,6.07-3.88.6-.39,1.24-.27,1.85-.67.12-.08.39-.6.5-.68.43-.26.8-.06,1.18-.33V325h.68c6.93-4.64,15.89-9,23.75-13.81.46-.29.9,0,1.35-.34a33.67,33.67,0,0,1,6.4-3.37l-.17-.34h.68s.67-.84.67-.84a23.39,23.39,0,0,1,2.53-1c1.46-.79,3.11-1.85,4.54-2.7.48-.27.9,0,1.35-.33,1-.64,2.19-1.43,3.2-2,.47-.28.9,0,1.35-.34a70.1,70.1,0,0,1,12.63-6.57c-.59-.46,1.89-1,2-1-.41-.31,1.71-1.08,2.52-1.52a63.77,63.77,0,0,1,9.1-4.38c-.56-.42,1-.54,1.35-.67-.38-.29,0-.26.33-.34a39.42,39.42,0,0,0,4.38-2.19c3.23-1.67,6.78-3.34,9.94-5.05h.85c.59-.36,1.41-1,2-1.35h.84a29.8,29.8,0,0,1,2.86-1.85c.75-.36,1.49-.24,2.19-.68v-.33h.68v-.34h.67v-.34h.84a41.06,41.06,0,0,1,7.42-3.37c-.44-.33,3-1.56,3.53-1.85a84.91,84.91,0,0,1,10.79-4.72c-.56-.42,1.88-.84,2.35-1-.49-.38,2.53-1.27,3-1.51,2-.94,4.34-2,6.23-3,.66-.37,1.72-.28,2.36-.67v-.34h.84a19.7,19.7,0,0,1,4-1.68c0-.11-.11-.23-.17-.34.59-.31,1.12,0,1.69-.33a58.44,58.44,0,0,1,12.3-5.23c-.68-.51.59-.19.84-.33.65-.38,1.66-1,2.36-1.35h1c-.06-.11-.11-.23-.17-.34h1c-.06-.11-.11-.22-.17-.34.58-.29,1.16,0,1.69-.33,2.62-1.79,6.4-2.72,9.26-4.21.64-.34,1.24,0,1.85-.34a24.73,24.73,0,0,1,5.23-2c-.6-.45,1.27-.54,1.68-.68-.24-.18,3.76-1.93,4.38-2.19H202c2-.85,4.34-1.74,6.24-2.69h1c2-1.11,4.79-2,6.23-2.7h1a72.53,72.53,0,0,1,7.41-3.2c.74-.3,2.26-.32,2.87-.67,2.9-1.66,6.47-2.36,9.6-3.37a9.69,9.69,0,0,1,2-1.18c1.23-.51,2.56-.35,3.71-1a25.82,25.82,0,0,1,3-1.35h1c2.9-1.63,7-2.42,10.11-3.37l-.17-.33h1v-.34h1v-.34h1a49.37,49.37,0,0,1,5.39-2.19c.72-.28,1.37,0,2-.34,2.67-1.51,6.37-2.05,9.61-3-.65-.49,1.73-.51,2-.67,1.57-.87,2.41-.68,4.55-1.35C282.27,208.59,287.5,207,288.24,206.7ZM437.15,356c-.3-.56,0-1.15-.33-1.69-.87-1.44-1.57-3.4-2.36-4.88v-.85c-.2-.45-.8-1.1-1-1.51-.35-.66-.11-1.17-.34-1.85-.32.4-1.34-3.09-1.85-4.05-2.3-4.32-3.81-9.49-6.07-13.81v-1h-.33v-.84l-.34.16v-1c-2.5-4.3-4.47-10.38-6.57-14.48v-1h-.34v-.84l-.33.17v-1c-.86-1.48-1.71-3.4-2.53-4.89-.31-.55,0-1.14-.34-1.68-2.13-3.5-3.62-8.2-5.05-12.3-.35.45-.84-1.68-1.18-2.36-1.17-2.33-2.1-5.17-3.37-7.41-.31-.55,0-1.11-.34-1.68a47.44,47.44,0,0,1-3-7.41h-.17v.16c-.16-.18,0,0-.17-.33a38,38,0,0,0-1.85-3.88c-.31-.55,0-1.14-.34-1.68a48.39,48.39,0,0,1-3.7-9.1c-.44.56-.8-2-1-2.36A56,56,0,0,1,391,246v-.84c-.43-1-1.21-2.29-1.69-3.2v-1a20.52,20.52,0,0,1-1.68-4l-.34.16v-1c-2.16-3.71-3.38-8-5.22-12.13-.61-1.35-1.16-2.66-1.69-4.21l-.33.17c-.29-.56-.11-1.83-.51-1.68a7,7,0,0,1-.84-2.36c-1.28-2.41-3.06-5.26-2.19-8.76v-1.35c.59-1.06,1.52-3.47,2-4,5.42-6.19,11.88-10.13,20.72-13.14v-.68a21.49,21.49,0,0,0-6.57,1.69h-1.35v.33c-.93.43-2.32-.1-2.86.68-.91,0-1.11-.11-1.18.34-.69,0-1.09-.11-1.35.33-.91,0-1.11-.1-1.18.34-.93,0-1.27-.12-1.34.34h-1.69c.17.13,0,.06.34.16v.17c-.93,0-1.28-.11-1.35.34-.91,0-1.11-.1-1.18.34-2.11.06-5,1.18-6.74,1.85-.88.34-1.44,0-2.36.34-1.59.58-3.8,1.1-5.39,1.68-1.28.48-4.59.44-5.22,1.35-.91,0-1.11-.11-1.18.34-.93,0-1.27-.12-1.35.33-.95,0-1.44-.12-1.51.34-.7,0-1.09-.11-1.35.34-.91,0-1.11-.11-1.18.33-.91,0-1.11-.1-1.18.34-.93,0-1.27-.11-1.35.34a16.42,16.42,0,0,0-5.39,1.51c-.89.34-1.44.05-2.35.34a46.91,46.91,0,0,0-5.06,1.69h-1.35v.33c-1,.49-2.93.14-3.53,1-.91,0-1.11-.1-1.18.34-1,0-3.55.5-3.88,1-.87,0-1-.11-1,.34-.91,0-1.11-.11-1.18.33-.93,0-1.27-.11-1.35.34-1.75,0-2.58.75-3.87,1.18s-2.16.19-3.37.67a56.88,56.88,0,0,0-5.9,2.7c-.59.32-1.09,0-1.68.34v.33a16.13,16.13,0,0,1-2.7,1l.17.34h-.84c.28.21-3.31,2.15-3.87,2.53-3.72,2.48-8.1,6-10.62,9.6a60.94,60.94,0,0,0-3,5.56c-.7,1.27-.65,3.52-1.18,4.38-.07.6.09.44-.33.51,0,1.36-.22,7.1.33,7.07a13.73,13.73,0,0,0,1.86,5.9v1c1,1.81,1.73,4.38,2.69,6.23v1h.34v1h.33v1c2.11,3.72,3.27,9.41,5.56,13.82.44.84.29,2,.68,2.86.07.18.59.86.67,1,.32.64,0,1.13.34,1.69h.33v1a16.38,16.38,0,0,1,1,2.86h.16a12.48,12.48,0,0,1,.85,2.36,25.08,25.08,0,0,0,1.18,2.36c.58,1.09.49,2.54,1,3.7,2.42,5.52,4.23,11.26,6.57,15.67.3.57,0,1.14.33,1.68,1.49,2.45,2.39,5.73,3.71,8.26v1l.67.67v1c1.27,2.23,2.11,5,3.54,7.59.61,1.09.35,2.45,1,3.53.4.66,1,1.66,1.35,2.36s0,1.14.34,1.69h.33v.67h.34v1h.34v.84h.33v1c1.71,2.93,2.81,6.69,4.55,9.94.32.61.34,2.14.68,2.7.83,1.42,1.6,3.44,2.35,4.88v1a4.46,4.46,0,0,1,1,2.7h106.8C438.78,358.27,437.8,357.12,437.15,356Zm-217-114.39c-.62.33-1,.05-1.69.34-1.57.7-3.52,1.57-5.05,2.36h-.84c.54.42-1.67.72-2.53,1,.51.38-2.53,1.28-3,1.51a103.15,103.15,0,0,1-10.78,4.72c.59.46-.37.23-.68.34V252c.1.3-2.32.82-2.86,1.18-3.3,2.16-7.3,4-10.78,5.89h-.84v.34a18.46,18.46,0,0,1-2.36.67c.34.27-2.38,1.3-2.87,1.52-2.71,1.24-5.68,2.64-8.25,4h-.84V266h-.68v.34h-.84c-2.91,1.75-6.11,3.06-9.27,4.88-.61.35-1.61.31-2.19.68a26,26,0,0,1-5.55,2.69c.49.39-1.05.48-1.35.67v.34c-1.33.78-2.48,1-4.05,1.85-5.66,3.05-11,5.61-16.5,8.6-5.08,2.73-8.66,4.54-13.31,7.58-.59.38-1.28.27-1.86.67a17.59,17.59,0,0,1-3.7,2c.5.4-1.44.84-1.86,1,.48.38-.8.52-1.17.68v.16c.07.3-.61.2-1,.51V299c-1.12.84-2.54,1-3.7,1.85-.13.09-.38.59-.51.67-.59.4-1.25.27-1.85.68v.33a18.63,18.63,0,0,1-3.54,1.69c.47.36-1.26.84-1.68,1,.47.38-.81.52-1.18.67v.17c.09.35-2.75,1.58-3.37,2a43.85,43.85,0,0,1-8.42,5.06c.44.35-2.27,1.55-2.7,1.85a89.15,89.15,0,0,1-8.76,6.07l.17.33A109.77,109.77,0,0,0,47.51,340.8a17.92,17.92,0,0,0-1,2.69l-.51.17.17.5c-.12.28-.51.17-.51.17v1l-.33-.16c-.33.62,0,1.22-.34,1.85l-.67.67c-.32.59,0,1.12-.34,1.69-.86,1.42-1.59,3.43-2.36,4.88-.32.6,0,1.14-.34,1.69a9.17,9.17,0,0,0-1.68,4H144.2a2.73,2.73,0,0,1,.84-1.85c-.31-.33,1.32-3.47,1.69-4.21v-1h.34v-.84h.33v-.84h.34v-.84c.88-1.48,1.59-3.53,2.36-5.06v-1c.73-1.7,1.74-3.71,2.53-5.39l-.17-.5.5-.17-.17-.51c.06-.12.47-.27.51-.33.36-.64.1-1.11.34-1.86.24.33.58-.48.67-.67v-1h.34c.3-.55,0-1.1.33-1.69a25.32,25.32,0,0,0,1.35-2.52c.29-.69.35-2.14.68-2.7h.33c1-1.88,1.09-3.93,2-5.89.84-1.77,1.73-3.28,2.53-5.23,2.15-5.2,3.69-11.43,6.23-15.66.33-.55,0-1.12.34-1.69h.34v-.84h.33v-1c1.05-1.79,1.73-4.37,2.7-6.23v-1a96.75,96.75,0,0,1,8.59-12.3c.24-.29.1-.7.34-1,1.18-1.56,3.92-4.77,5.22-5.56-.27-.23.6-1,.84-1.35a27.68,27.68,0,0,1,2.87-2.86c.16-.17.17-.53.33-.68a21.09,21.09,0,0,1,3.71-3,13.39,13.39,0,0,1,2.19-2.53c.61-.54,1.42-.79,2-1.34.27-.25.39-.79.67-1h.51c.14-.11.2-.56.34-.67a17.61,17.61,0,0,1,2.69-1.68c-.17-.15.42-.81.68-1h.5c2.49-2,4.91-4.6,8.09-5.9-.39-.31,1.23-1,2-1.35-.06-.11-.11-.22-.17-.34,2.5-1.46,4.84-3.07,7.24-4.54,1.08-.67,2.39-.63,3.21-1.52.13-.17.06,0,.16-.34-.13-.17-.06,0-.16-.33A9.93,9.93,0,0,0,220.18,241.57Z"/><path class="cls-1" d="M463,43.82h.34v1.51a29.65,29.65,0,0,0,1.33,2.84v1a42.59,42.59,0,0,0,8.53,12c1.91,1.9,6.16,6.07,8.87,6.35v.5c1.33.13,1.81.83,2.84,1.34.59.3,1.8,0,2.34.34v.33c.69.32,1.25,0,1.84.33v.34c.94.46,3.15-.13,4,.33v.34h3.34c3.15,0,7,.34,9.2-.67h1.67v-.17c0-.06,4.9-1.79,5.19-1.84h.5c.09-.06.24-.61.34-.67.91-.55,2.58-.85,3.67-1.67,4.29-3.18,10.51-8.57,12.38-13.71.4.53.91-1.4,1-1.68l.33.17v-1h.33v-1h.34v-.83h.33v-1c1.35-2.13,2-6.81,2-10.2,0-1.57.14-3.64-.33-4.68v-3c-.37-1-.67-2.6-1-3.52V24.59c0-.09-.62-.25-.67-.34V23.08h-.16c-.32.12-.22-1.18-.51-1.67h-.33c-.32-.65,0-1.27-.33-1.84-.07-.11-.61-.23-.67-.34a25,25,0,0,1-1-2.5c-.36.47-.8-1.1-1-1.51-.36.57-1.29-1.51-1.51-1.84s-1-.62-1.33-1c-1.28-1.45-5.21-6.12-6.86-6.19v-.5c-1.27-.2-1.83-1.1-2.68-1.68-.63-.43-1.57-.34-2.34-.66C510.86,2.44,508.83,1,505.64,1V.5H503.3V0H492.09V.5c-3.41,0-6.64,1.59-8.86,2.85h-.84v.33h-.67V4h-.67c-.11.08-.22.6-.33.67h-.67c-.76.48-1.36,1.35-2.17,1.34-1,1-4,3.79-4.69,3.85-1.87,2.61-4.44,4.8-6.18,7.52-.3.46-.06.87-.34,1.34h-.33c-.39.63,0,1.1-.67,1-.31.61,0,1.06-.34,1.67a44.17,44.17,0,0,0-2,4.68V27.6a12.27,12.27,0,0,0-.67,3v2.67c-.58,1.55-.33,7,.33,8.37Zm83.13,295.71a14.68,14.68,0,0,0-5.19-5.69h-.83v-.33h-.51c-.26-.19-.67-.43-1-.67v-.34h-.67c-3.85-2.66-8.88-8.62-8.86-15.38-.14.17-.06,0-.17.33h-.17V87.81c0-2.08.41-5.1-.16-6.86h-14c.17.14,0,.06.33.17-.76.48-2.91.17-4,.17h-10c.52.34,2,.19,2.84.16v.17H493.26c-1,0-3.21-.25-3.17.34-3.64,0-10.92-.61-13.72.33-1.08.36-2.93-.51-3.51.33H462.32c-1,0-3.21-.25-3.18.34-3.21.56-4,0-6.18,1.67l-.67.17c-1.48,1.8-.84,10-.84,13.88,0,1.29-.35,3.55.17,4.52H452c.38.66,0,.66.34,1.33.23.47,2.15,1.52,2.51,2.51h.66c.07.35.05.33.17.51.53.61,2.26.83,3.18,1.5a31.28,31.28,0,0,1,7.53,7.86v.67h.33v.67H467v1h.33v1a5.88,5.88,0,0,1,1,3.51l.34-.34c1,5.43.5,12.69.5,18.9V308.25c0,3.53.57,8.59-.84,10.87v1.51l-.67.67v1.17l-.33-.17v1.17l-.33-.16c-.49.93-.38,2.73-1.34,2.67v.67c-.07.12-.59.39-.67.5v.67c-1,1.41-4.67,4.75-6.52,5.19v.5c-3,.27-6.4,4.19-7,6.52v9c0,1.54-.42,6.6.17,7.53.41,4.69,14.06,3.18,20.4,3.18h66.4c2.19,0,4.72.24,6-.67,2.7-1.89,1.85-9.35,1.84-14.39C546.28,343.25,546.7,340.66,546.12,339.53ZM516.85,81.12h.5C517.06,81.27,517.14,81.27,516.85,81.12Z"/></g></svg>